<svg xmlns="http://www.w3.org/2000/svg"><symbol viewBox="0 0 24 24" id="icon-au"><title>au</title><g fill="none" fill-rule="evenodd"><path d="M12 .084c6.565 0 11.888 5.322 11.888 11.888 0 6.565-5.323 11.888-11.888 11.888C5.435 23.86.112 18.537.112 11.972.112 5.406 5.435.084 12 .084" fill="#9E9E9E"/><path d="M12 .785C18.194.785 23.215 5.806 23.215 12S18.194 23.215 12 23.215.785 18.194.785 12 5.806.785 12 .785" fill="#00008B"/><path d="M.785 12c0 6.194 5.021 11.215 11.215 11.215S23.215 18.194 23.215 12 18.194.785 12 .785.785 5.806.785 12z"/><path d="M3.78 19.42l-.214-1.806 1.805-.153-1.56-1.01 1.04-1.468-1.744.612-.581-1.744-.55 1.744-.686-.257a11.169 11.169 0 0 0 1.456 2.997L3.78 19.42zM19.059 5.529l.122.796-.55-.613-.551.613.153-.796-.826-.061.703-.429-.459-.642.735.245.275-.735.245.735.734-.245-.428.642.673.429zM19.059 18.226l.122.796-.55-.612-.551.612.122-.796-.795-.091.673-.398-.429-.673.735.275.245-.734.275.734.734-.245-.459.643.674.428zM14.102 10.394l.123.795-.551-.612-.52.612.122-.795-.826-.062.704-.428-.46-.642.766.244.245-.734.244.734.735-.244-.429.642.673.428zM22.486 8.589l-.704.428.826.061-.122.796.418-.493a11.118 11.118 0 0 0-.386-1.278l-.491-.157.459.643zM20.191 11.801l.122-.49-.397-.336.49-.03.213-.49.184.49.52.03-.398.367.123.46-.429-.276zM8.798 11.159h2.234V9.935L4.025 5.957l7.007-3.977V.83a11.218 11.218 0 0 0-9.165 6.36l.017-.009 6.914 3.978z" fill="#FFF"/><path d="M2.187 6.57h.003l1.988.642 6.854 3.916v-.826L5.127 6.967c.03.03-1.622-.704-1.622-.704l.215-1.377L10.882.841c-.731.072-1.441.216-2.124.422L4.482 3.679A11.266 11.266 0 0 0 2.187 6.57" fill="red"/><path d="M3.505 11.159V7.763h7.527V4.09H4.05a11.176 11.176 0 0 0-3.23 7.068h2.685z" fill="#FFF"/><path d="M1.027 11.159h1.866l-.03-4.161h8.169V4.825h-7.65A11.171 11.171 0 0 0 1.038 9.63l-.011 1.529z" fill="red"/></g></symbol><symbol viewBox="0 0 24 24" id="icon-de"><title>de</title><g fill="none" fill-rule="evenodd"><path d="M12 .112C18.565.112 23.888 5.435 23.888 12c0 6.565-5.323 11.888-11.888 11.888C5.435 23.888.112 18.565.112 12 .112 5.435 5.435.112 12 .112" fill="#9E9E9E"/><path d="M12 .785C18.194.785 23.215 5.806 23.215 12S18.194 23.215 12 23.215.785 18.194.785 12 5.806.785 12 .785" fill="red"/><path d="M12 .785c-4.879 0-9.028 3.117-10.571 7.467h21.142C21.028 3.902 16.879.785 12 .785" fill="#000"/><path d="M12 23.215c4.881 0 9.032-3.12 10.573-7.472H1.427C2.968 20.096 7.12 23.215 12 23.215" fill="#FC0"/></g></symbol><symbol viewBox="0 0 24 24" id="icon-en-us"><title>en-us</title><g fill="none" fill-rule="evenodd"><path d="M12 .084c6.565 0 11.888 5.322 11.888 11.888 0 6.565-5.323 11.888-11.888 11.888C5.435 23.86.112 18.537.112 11.972.112 5.406 5.435.084 12 .084" fill="#9E9E9E"/><path d="M.785 12c0 6.194 5.021 11.215 11.215 11.215S23.215 18.194 23.215 12 18.194.785 12 .785.785 5.806.785 12z" fill="#FFF"/><path d="M6.011 2.512h11.955A11.056 11.056 0 0 0 12 .785c-2.198 0-4.24.628-5.989 1.727zM3.903 4.262c-.516.516-.965 1.099-1.368 1.727h18.908a12.714 12.714 0 0 0-1.346-1.727H3.903zM1.615 7.783a11.93 11.93 0 0 0-.56 1.727h21.868a11.037 11.037 0 0 0-.538-1.727H1.615zM.807 11.193c0 .269-.022.538-.022.807 0 .314.022.606.045.92h22.34c.023-.292.045-.606.045-.92 0-.27-.022-.538-.022-.807H.807zM1.077 14.58c.157.605.336 1.166.56 1.727H22.34c.224-.561.426-1.122.56-1.728H1.078zM2.602 18.123c.404.606.875 1.19 1.39 1.727h16.015c.516-.538.987-1.099 1.391-1.727H2.602zM6.056 21.51a11.215 11.215 0 0 0 11.888 0H6.056z" fill="#B12334"/><path d="M.785 12c0 .314.022.606.045.92H12V.785C5.81.785.785 5.809.785 12z" fill="#3C3B6F"/><path d="M7.693 1.637l-.022.18h-.359c-.022.022-.067.022-.112.045l.359.314-.18.538.427-.314.426.314-.18-.538.404-.36h-.493l-.09-.246c-.067.023-.112.045-.18.067zM10.542 1.817h-.493l.403.359-.18.538.427-.314.449.314-.202-.538.426-.36h-.493l-.18-.47zM4.845 4.217h-.516l.426.381-.18.516.427-.314.448.314-.201-.516.426-.381h-.516l-.157-.449zM7.828 3.768l-.157.449h-.493l.403.381-.18.516.427-.314.449.314-.18-.516.404-.381h-.494l-.157-.449zM10.542 4.217h-.493l.403.381-.18.516.427-.314.449.314-.202-.516.426-.381h-.493l-.18-.449zM6.258 3.006h-.494l.404.38-.18.517.427-.314.449.314-.202-.516.426-.381h-.516l-.157-.449zM9.241 2.557l-.157.449h-.493l.403.38-.179.517.449-.314.426.314-.18-.516.404-.381h-.493l-.157-.449zM1.862 7.222l-.112.337.426-.314.426.314-.18-.538.404-.36h-.493l-.068-.224c-.134.247-.291.516-.403.785zM4.845 6.662h-.516l.426.359-.18.538.427-.314.448.314-.201-.538.426-.36h-.516l-.157-.47zM7.828 6.19l-.157.472h-.493l.403.359-.18.538.427-.314.449.314-.18-.538.404-.36h-.494l-.157-.47zM10.542 6.662h-.493l.403.359-.18.538.427-.314.449.314-.202-.538.426-.36h-.493l-.18-.47zM3.432 5.45h-.516l.426.36-.18.538.427-.314.426.314-.18-.539.427-.359h-.516l-.157-.47zM6.258 5.45h-.494l.404.36-.18.538.427-.314.449.314-.202-.539.426-.359h-.516l-.157-.47zM9.241 4.98l-.157.47h-.493l.403.36-.179.538.449-.314.426.314-.18-.539.404-.359h-.493l-.157-.47zM2.019 9.04h-.516l.426.358-.202.538.449-.314.426.314-.18-.538.427-.359h-.516l-.157-.47v.022-.023zM4.845 9.04h-.516l.426.358-.18.538.427-.314.448.314-.201-.538.426-.359h-.516l-.157-.47v.022-.023zM7.828 8.59v-.022l-.157.471h-.493l.403.36-.18.537.427-.314.449.314-.18-.538.404-.359h-.494l-.157-.47zM10.542 9.04h-.493l.403.358-.18.538.427-.314.449.314-.202-.538.426-.359h-.493l-.18-.47v.022-.023zM3.432 7.828h-.516l.426.359-.18.538.427-.314.426.314-.18-.538.427-.359h-.516l-.157-.471v.022-.022zM6.258 7.828h-.494l.404.359-.18.538.427-.314.449.314-.202-.538.426-.359h-.516l-.157-.471v.022-.022zM9.264 7.38l-.023-.023-.157.471h-.493l.403.359-.179.538.449-.314.426.314-.18-.538.404-.359h-.493l-.157-.471zM2.019 11.484h-.516l.426.359-.202.538.449-.314.426.314-.18-.538.427-.359h-.516l-.157-.47zM4.845 11.484h-.516l.426.359-.18.538.427-.314.448.314-.201-.538.426-.359h-.516l-.157-.47zM7.828 11.013l-.157.471h-.493l.403.359-.18.538.427-.314.449.314-.18-.538.404-.359h-.494l-.157-.47zM10.542 11.484h-.493l.403.359-.18.538.427-.314.449.314-.202-.538.426-.359h-.493l-.18-.47zM3.432 10.273h-.516l.426.359-.18.538.427-.314.426.314-.18-.538.427-.36h-.516l-.157-.47zM6.258 10.273h-.494l.404.359-.18.538.427-.314.449.314-.202-.538.426-.36h-.516l-.157-.47zM9.241 9.802l-.157.47h-.493l.403.36-.179.538.449-.314.426.314-.18-.538.404-.36h-.493l-.157-.47z" fill="#FFF"/></g></symbol><symbol viewBox="0 0 24 24" id="icon-es-la"><title>es-la</title><g fill="none" fill-rule="evenodd"><path d="M12 .112C18.565.112 23.888 5.435 23.888 12c0 6.565-5.323 11.888-11.888 11.888C5.435 23.888.112 18.565.112 12 .112 5.435 5.435.112 12 .112" fill="#9E9E9E"/><path d="M12 .785C18.194.785 23.215 5.806 23.215 12S18.194 23.215 12 23.215.785 18.194.785 12 5.806.785 12 .785" fill="#007934"/><path d="M12 23.215v-7.46H1.432c1.544 4.347 5.692 7.46 10.568 7.46" fill="#3E4095"/><path d="M22.568 15.756H12v7.459c4.876 0 9.024-3.113 10.568-7.46" fill="#D52B1E"/><path d="M23.214 11.981H.785v.02c0 1.317.23 2.58.647 3.755h21.136c.418-1.175.647-2.438.647-3.756v-.019" fill="#FCD116"/><path d="M9.81 5.508c.026-.026.434-.23.536-.128-.077.051-.051.051.051.077l.026-.026c.025.051.331.128.408.179.025 0 .101.102.101.127.077-.025.103 0 .077.077-.025.025-.051.076-.102.102.077 0 .561.025.587-.077.025-.076-.204-.102-.255-.102 0-.025 0-.025.025-.025.026-.051-.23-.102-.255-.102 0-.026-.025-.026.026-.026-.051-.05-.358-.127-.408-.23a.607.607 0 0 1-.23-.05c-.128 0-.28 0-.382.05-.077.026-.102.128-.204.154 0 .025 0 .025 0 0" fill="#FFF"/><path d="M5.654 4.717c-.026-.05 0-.102-.026-.153-.025 0-.025.026 0 .051-.05-.127-.076-.306-.127-.408-.026 0-.128-.178-.128-.28 0-.102.051-.204.077-.306.077.076.127.05.178.102.026.025.077.025.026.05-.026.077 0 .154 0 .256 0 .076 0 .127.025.076.026.153.077.23.204.28-.076.103.128.281.128.307-.051.025-.026.127 0 .153.05-.026.076.025.153.076-.128.026.05.077.05.128-.025 0 .129.382.256.535-.026.153-.127.153-.077.28.051.205.332.332.485.409.102.05.178.127.28.178.128.051.256.128.383.179.153.05.536-.051.56-.077.18.102.256.306.409.408.153.102.331.128.484.179-.025-.026.205-.077.179.05-.025.026-.025-.025-.051-.025 0 .077.23.332.23.408.025.077.178.408.102.128.102.05.331.484.382.382.153-.05.28.077.306.077.025.127.051.153.178.076-.076-.102-.05-.178.052-.204.05-.127.306.077.331.102-.204-.076-.051.179.051.28.026.052-.026.18-.026.23V8.9c-.05.102-.229.383-.203.46-.077.025-.153.152-.205.152-.076.026-.127.23-.101.306-.204.051-.102.536-.128.689-.026.102.076.255.026.28 0 .102.28.28.331.383.102.153.179.331.255.51.077.153.153.28.23.433.076.153.05.23.127.357.23.306.663.332.918.638.153.204.357.74.179.969-.026.076.025.23.05.331v.714c0 .077.026.332.052.46.05.254.127.433.102.713 0 .102-.051.485-.102.46-.026.101.153.356.178.484.026.127-.051.255.102.331.051.026.128-.025.204-.025v.025c-.025 0-.051.026-.051.051.051 0 .102.026.102.102-.025-.05-.05-.05-.076-.025.025.051.05.076.05.153v.153c.026.076.103.076.128.153-.025.025-.05.025-.076.05 0 .077.025.103.102.103-.051-.026-.077 0-.128 0 .051.076.077.153.051.204 0-.051 0-.102-.025-.128.025 0-.077.102-.077.077.051-.026.051-.153 0-.153.026.076 0 .102-.128.076.077.051.052.102-.025.128 0 .025.025.051.051.051 0-.026-.026-.051-.026-.026.052-.025.154 0 .179 0 .153.026-.025.128.102.153-.05 0 .127.052-.05 0-.026.052.101.102.127.026a.2.2 0 0 0 .102.102c-.052-.026-.128-.026-.179-.026.026.077.051.102.127.077-.05.05-.025.127.052.178-.026-.025 0-.076 0-.076 0 .025.025.076.05.102h-.076c0 .025.051.05.077.077-.051 0-.051 0-.077.025.026 0 .179.076.102.051l.051.05c0-.025.026-.05.026-.05 0 .025 0 .05.025.076-.051-.025-.127-.076-.178-.102-.026.026 0 .051.025.051h-.051c.051.051.28.128.23.153v.026c.102.051.127.051.23.025 0-.05-.052-.076-.103-.05 0-.026.153.101.153.153 0-.077-.204-.052-.255-.052.051.052.102.128.204.102v-.025c.051 0-.025.051-.025.051.102.076.127.025.102-.051 0 0 .204.025.178 0-.025.025-.127.025-.153.025-.076.051.051.128.077.128 0-.128.178-.153.102 0-.026-.051-.051-.077-.102-.026.05.051.178.128.23.077-.077-.153.127-.306.229-.255-.128-.128-.204-.204-.179-.357 0-.051.204-.383.204-.46 0-.152-.153-.127-.255-.178-.178-.102-.153-.357.077-.331.025-.128-.128-.306.05-.383-.101.026-.127 0-.127-.05.077-.052.128.025.204.025.026-.153-.153-.077-.255-.153-.05-.051-.102-.23-.05-.204.152.025.33.127.356-.051.026-.102-.05-.23-.102-.306.204.102.612 0 .74-.179.178-.28-.204-.408-.255-.637.153-.051.306.127.484.076.153-.05.153-.153.23-.306.05-.127.153-.23.229-.357.077-.127.102-.28.179-.433.05-.077.102-.102.127-.179.026-.102-.025-.178-.025-.255 0-.102-.026-.127 0-.255.076-.23.382-.357.56-.433-.05-.077.128-.077.154-.051-.102.025.382-.179.408-.179v-.102c.05-.102.102-.204.127-.306.051-.178.102-.382.128-.535.025-.179-.026-.357 0-.536v.026c0-.026.025-.102-.026-.102 0-.051.051-.128.051-.179.102.051.077.077.153-.076 0-.026.077-.255.051-.153.051-.051.23-.255.23-.332.153-.127.153-.382.127-.586-.05-.357-.23-.23-.459-.408-.102-.077-.178-.204-.306-.255-.127-.051-.28-.051-.408-.077-.153-.025-.459-.05-.484-.102.05-.05 0-.102 0-.102-.102-.05-.46-.255-.46-.178-.076-.026-.637-.102-.586-.179.026-.025.153-.178.153-.178 0-.077-.05-.077-.05-.128-.026-.05-.077-.102-.103-.204-.025-.076-.05-.357-.127-.23 0-.229-.026-.101-.051-.05.025-.077-.051-.077-.051-.077.025-.076-.23-.23-.306-.102.102-.153-.28-.153-.28-.076-.052-.051-.205-.102-.205.025.026-.102-.178-.382-.255-.153.051-.153 0-.331-.153-.357-.076-.102-.23 0-.306-.05.077 0 .102-.077.153-.154-.076-.05-.102-.102-.153-.076.026.05 0 .05-.05-.026-.026.077-.026 0-.077-.05 0 .025-.536-.052-.587-.052-.102-.025-.357.051-.357-.076-.026-.102-.127-.077-.178-.102-.051-.051-.051-.051-.103-.128a.556.556 0 0 0-.28.255c-.025.077.153.204.026.28-.051.052-.051.026-.077-.025-.102-.102 0-.102.026-.204 0-.076-.026-.178-.026-.23 0 0 .28-.229.026-.127-.051.026-.128.102-.179.153-.077.051-.408.128-.459.255.127-.05-.102.179-.102.204-.076.077-.127.102-.102.23-.077-.051-.127-.23-.255-.28-.23-.077-.561.076-.535.076-.077 0-.051-.026-.077-.051-.076-.051-.179-.204-.23-.332-.025-.05.128-.56.128-.586 0-.051.026-.23-.051-.23.077.026-.076.051-.076-.025.025-.026.025.025.05.025-.076-.153-.28-.076-.408-.076-.127 0-.331-.051-.382 0-.026 0 .102-.536.179-.587 0 .051 0 .077.025.102.026-.051.128-.204.051-.178 0-.026.332-.46.102-.434.025 0-.332-.025-.459.102-.127.128-.255.383-.255.434.026.05-.23.025-.255.05-.077.026-.179.077-.28.077-.052 0-.052-.127-.179-.102.05.051-.026 0-.026-.025-.025-.026-.229-.485-.203-.612.05.05 0-.128.05-.255.051-.179.153-.332.204-.51-.28-.026-.28-.128-.356-.357 0-.23-.052-.408-.128-.485a.271.271 0 0 0-.204.026c-.026.025-.051.076-.102.102-.077.025-.127 0-.179-.051-.102-.128-.05-.307-.255-.408a.418.418 0 0 0-.255-.026c0 .102-.255.102-.306.102-.127 0-.714-.153-.663-.28-.127 0-.484-.026-.356.153 0 .076 0 .204.025.28 0 .153-.025.026.051.179.05.102.178.178.05.306 0 0 .026.025.026.05.077 0-.357-.101-.152-.025.05.051.178.306.254.179 0 .05.102.204.102.255.026.076-.05.076 0 .204.052.102.23.127.23.306.204-.051.025-.306-.026-.23-.025-.05-.025-.204-.05-.255" fill="#FFF"/></g></symbol><symbol viewBox="0 0 24 24" id="icon-es"><title>es</title><g fill="none" fill-rule="evenodd"><path d="M12 .112C18.565.112 23.888 5.435 23.888 12c0 6.565-5.323 11.888-11.888 11.888C5.435 23.888.112 18.565.112 12 .112 5.435 5.435.112 12 .112" fill="#9E9E9E"/><path d="M12 .785C18.194.785 23.215 5.806 23.215 12S18.194 23.215 12 23.215.785 18.194.785 12 5.806.785 12 .785" fill="#FFC400"/><path d="M12 23.215c4.143 0 7.758-2.248 9.7-5.59H2.3a11.208 11.208 0 0 0 9.7 5.59M12 .785c-4.145 0-7.763 2.25-9.704 5.595h19.408A11.207 11.207 0 0 0 12 .785" fill="#C60B1E"/><path d="M12.284 13.192c-.032.16-.482.16-.482.16s-.803.065-1.028.225l.064-.417c.225-.16 1.029-.16 1.029-.16s.481 0 .578-.194l-.16.386zM3.673 13.192c.032.16.482.16.482.16s.803.065 1.028.225l-.064-.417C4.894 13 4.091 13 4.091 13s-.482 0-.578-.194l.16.386z" fill="#AD1519"/><path d="M12.252 15.827c-.096 0-.128-.033-.193-.033-.032-.032-.096-.032-.192-.032h-.097c-.032 0-.064.032-.064.032-.032.033-.097.033-.193.033s-.128-.033-.193-.033c-.032-.032-.096-.032-.193-.032-.096 0-.128.032-.192.032 0 .033-.065.033-.16.033v.546c.095 0 .16-.032.192-.032.032-.032.096-.032.16-.032.097 0 .129.032.193.032.032.032.097.032.193.032s.16-.032.193-.032c.032-.032.096-.032.16-.032.097 0 .13.032.161.032.032.032.097.032.193.032V15.955l.032-.128zM5.183 15.827c-.096 0-.128-.033-.192-.033-.033-.032-.097-.032-.193-.032-.097 0-.16.032-.193.032-.032.033-.064.033-.16.033-.097 0-.161-.033-.193-.033-.033 0-.033-.032-.065-.032h-.096c-.096 0-.129.032-.193.032-.064.033-.096.033-.193.033v.546c.097 0 .161-.032.193-.032.032-.032.097-.032.16-.032.097 0 .13.032.161.032.033.032.097.032.193.032.097 0 .129-.032.193-.032.032-.032.096-.032.193-.032.096 0 .128.032.16.032.032.032.097.032.193.032V15.955l.032-.128z" fill="#0044AD"/><path d="M12.316 14.477c-.064-.16-.482-.29-.707-.386-.257-.096-.674-.289-.835-.514l.064-.417c-.032.128.547.417.804.546.257.128.706.257.739.385l-.065.386zM3.641 14.477c.064-.16.482-.29.707-.386.257-.096.675-.289.835-.514l-.064-.417c.032.128-.546.417-.803.546-.257.128-.707.257-.74.385l.065.386z" fill="#AD1519"/><path d="M7.979 13.481H5.6v1.607c0 .481.257.867.835 1.092.386.16.9.321 1.543.321.674 0 1.156-.16 1.542-.321.578-.257.835-.61.835-1.092V13.48H7.98z" fill="#8E9090"/><path d="M9.168 13.481h-1.19v1.574c0 .225.065.45.193.643.129.193.322.321.611.45.129.032.225.064.353.064.129 0 .258-.032.354-.064.321-.129.482-.257.61-.45.129-.193.193-.386.193-.643v-1.574H9.168z" fill="#AD1519"/><path d="M6.79 13.481H5.6v1.574c0 .225.064.45.193.643.128.193.321.321.61.45.129.032.225.064.354.064.128 0 .257-.032.353-.064.321-.129.482-.257.61-.45.13-.193.194-.386.194-.643v-1.574H6.79z" fill="#CA0"/><path fill="#8E9090" d="M4.059 15.248h.77v-3.791h-.77zM11.127 15.248h.772v-3.791h-.772z"/><path d="M12.284 13.192c0-.193-.482-.386-.9-.418-.256-.032-.835 0-1.06.129-.193.128-.321-.354-.032-.482.321-.129.932-.129 1.189-.097.386.065.964.225.932.482l-.129.386z" fill="#AD1519"/><path fill="#8E9090" d="M7.979 13.48h2.378v-2.634H7.979z"/><path fill="#CA0" d="M12.06 10.878H11v.29h.063v.257h.9v-.258h.096zM4.958 10.878H3.93v.29h.064v.257h.9v-.258h.064z"/><path d="M3.673 13.192c0-.193.482-.386.9-.418.257-.032.835 0 1.06.129.193.128.322-.354.032-.482-.321-.129-.932-.129-1.189-.097-.385.065-.963.225-.931.482l.128.386z" fill="#AD1519"/><path fill="#CA0" d="M4.894 15.505v-.225h-.9v.225H3.93v.29h1.028v-.29z"/><path d="M9.682 12.935s0 .032 0 0c0 .032 0 0 0 0zm.385-1.735c-.064.032-.193.064-.225.032-.192 0-.032.771-.032.835-.096.322-.321.386-.417-.096.096.128 0-.354.224-.129-.064-.225-.064-.835-.514-.578.032 0 0 .353 0 .353.065.257-.675-.225-.707-.225-.096 0 .129.322.065.354.45.064.257.128.353.225-.128.16-.386.032-.353.257 0 .16.257-.032.321.064.096-.128.129-.096.257-.16.064.128.129.225.257.257-.128.032-.193.385-.257.385-.032-.032-.096-.064-.128-.128.032 0-.161.16-.129.128-.064.097.29.16.386.129.192-.065-.033-.29.225-.29-.033.13.16.29.16.225 0 .033-.064.386.032.354-.032 0 .193-.065.16-.032.065-.097 0-.579-.031-.579-.032.033.193-.224.225-.32.096-.322-.193-.547.16-.836-.225-.033-.032-.097-.032-.225 0 0 0 .128 0 0z" fill="#ED72AA"/><path fill="#AD1519" d="M5.601 13.48h2.378v-2.634H5.6z"/><path fill="#CA0" d="M11.963 15.505v-.225h-.868v.225H11v.29h1.06v-.29zM4.701 10.332s-.192.321-.128.321c-.097 0-.064-.45-.097-.546-.064.097 0 .546-.096.546.032 0-.193-.578-.29-.32-.031.096.29.288.065.353 0 .225.129.192.321.192.193 0 .322.032.322-.192-.129 0-.065-.065-.065-.161 0 .032.193-.386-.032-.193-.16.16.097-.064 0 0"/><path d="M7.979 8.758c1.277 0 2.313.374 2.313.835 0 .461-1.036.836-2.313.836-1.278 0-2.314-.375-2.314-.836 0-.461 1.036-.835 2.314-.835" fill="#AD1519"/><path d="M9.553 10.075c-.032-.096-.064-.128-.064-.128-.932-.322.257-.643-.129-1.286.643-.064.964.16.771.707l.13.193c-.13.353-.387.514-.708.514m-3.438-.032c-.096-.064-.418-.482-.418-.482l.129-.193c-.193-.546.128-.77.771-.707-.418.675.803.932-.128 1.286-.033.192-.161.225-.354.096m1.157-1.639c.225-.064.514.097.514.097.032.192-.032.385-.129.546l.225.128c-.257.9-.61.932-.996.065l.097-.161c-.322-.257-.225-.482.289-.675.225-.064-.257.064 0 0m.803.803L8.3 9.08a.672.672 0 0 1-.129-.546c.643-.16.997.032.804.61l.096.16c-.385.869-.739.74-.996-.096m2.217.611c.29-.29.29-.675.29-.675-.258-.578-.675-.803-1.286-.675a1.265 1.265 0 0 0-1.253-.192v-.514h.128v-.097h-.128V7.57h-.097v.096h-.128v.097h.128v.514a1.264 1.264 0 0 0-1.252.192c-.611-.128-1.061.097-1.286.675.064.547.386.9.932 1.093h.096a.14.14 0 0 0-.096.032l.16.45c1.029.225 2.025.225 3.021-.032l.16-.418s-.031 0-.096-.032h.065c.032-.032.385-.129.642-.418.29-.29-.257.29 0 0M11.031 10.59c0-.13.032-.193.193-.193-.096.128.16.192-.032.289 0 .032-.16-.097-.16-.097m.32-.225c.065 0 .13.033.13.033 0 .032.031.16.031.16-.096.193-.16.193-.193-.032-.096-.096-.064-.128.032-.16m.193.16s0-.096.032-.16c.129-.033.225 0 .161.128-.064.225-.128.225-.193.032m.257-.128c.16 0 .225.064.193.192-.064.097-.096.129-.16.065-.13 0 0-.225-.033-.257m.225.256c.064-.064.064-.128.064-.128-.128-.128-.353-.257-.546-.193v-.128h.032v-.032h-.032v-.033h-.032v.033h-.032v.032h.032v.128c-.193-.064-.418.065-.546.193.032.128.096.193.225.225h-.032l.032.096c.225.032.417.032.642 0l.033-.096h-.033c.097 0 .129-.032.193-.097M7.4 12.806v-1.028h-.16v-.193l.096-.193h-.385l.096.193v.193h-.16v-.45h.096v-.16h-.386v.16h.096v.45h-.128v-.193l.064-.193h-.353l.096.193v.193H6.18v1.028h-.097v.354h1.414v-.354zM9.746 15.345a.777.777 0 0 1-.354.257c-.032 0-.064 0-.096.032v-.804h.546v.161a.649.649 0 0 1-.096.354zm-1.157 0a.649.649 0 0 1-.096-.354v-.16h.546v.803c-.032 0-.064 0-.096-.032-.161-.065-.257-.161-.354-.257zm-.096-1.286h.546v.514h-.546v-.514zm1.35.322v.192h-.547v-.514h.546v.322zm-.676-.579h-.899v1.189c0 .193.032.354.16.482a.8.8 0 0 0 .482.321c.097.033.161.033.29.033.096 0 .192 0 .289-.033.225-.096.385-.192.482-.32a.789.789 0 0 0 .16-.483v-1.189h-.964z" fill="#CA0"/><path d="M7.979 12.613c.426 0 .77.389.77.868 0 .48-.344.868-.77.868-.426 0-.771-.389-.771-.868 0-.48.345-.868.77-.868" fill="#0044AD"/></g></symbol><symbol viewBox="0 0 24 24" id="icon-eu"><title>eu</title><g fill="none" fill-rule="evenodd"><path d="M12 .112C18.565.112 23.888 5.435 23.888 12c0 6.565-5.323 11.888-11.888 11.888C5.435 23.888.112 18.565.112 12 .112 5.435 5.435.112 12 .112" fill="#9E9E9E"/><path d="M12 .785C18.194.785 23.215 5.806 23.215 12S18.194 23.215 12 23.215.785 18.194.785 12 5.806.785 12 .785" fill="#039"/><path fill="#FC0" d="M8.793 5.476l.247.74h.794l-.63.466.22.74-.631-.466-.63.466.246-.74-.63-.466h.767zM12 4.626l.247.74h.767l-.63.466.247.74L12 6.106l-.63.466.246-.74-.63-.466h.767zM15.207 5.476l.247.74h.767l-.603.466.22.74-.63-.466-.631.466.246-.74-.63-.466h.767zM17.537 7.806l.247.74h.795l-.63.466.246.74-.658-.438-.63.438.246-.74-.63-.466h.795zM18.414 11.04l.247.74h.768l-.63.44.246.74-.63-.44-.631.44.22-.74-.631-.44h.795zM17.537 14.22l.247.74h.795l-.63.466.246.74-.658-.466-.63.467.246-.74-.63-.466h.795zM15.207 16.55l.247.74h.767l-.63.466.247.74-.63-.465-.631.466.219-.74-.63-.466h.794zM12 17.428l.247.74h.767l-.63.466.247.74-.631-.466-.63.466.246-.74-.63-.466h.767zM8.793 16.578l.247.74h.767l-.63.438.246.74-.63-.438-.63.439.246-.74-.63-.439h.767zM6.463 14.22l.22.74h.794l-.63.439.246.74-.63-.439-.63.44.219-.741-.63-.438h.794zM5.613 11.013l.22.74h.794l-.63.466.247.74-.63-.466-.659.466.247-.74-.63-.466h.794zM6.463 7.833l.247.74h.767l-.63.44.246.74-.63-.44-.63.44.219-.74-.603-.44h.767z"/></g></symbol><symbol viewBox="0 0 24 24" id="icon-fr"><title>fr</title><g fill="none" fill-rule="evenodd"><path d="M12 .112C18.565.112 23.888 5.435 23.888 12c0 6.565-5.323 11.888-11.888 11.888C5.435 23.888.112 18.565.112 12 .112 5.435 5.435.112 12 .112" fill="#9E9E9E"/><path d="M12 .785C18.194.785 23.215 5.806 23.215 12S18.194 23.215 12 23.215.785 18.194.785 12 5.806.785 12 .785" fill="#FFF"/><path d="M8.262 22.574V1.426C3.906 2.966.785 7.117.785 12s3.121 9.034 7.477 10.574" fill="#0055A4"/><path d="M23.215 12c0-4.883-3.121-9.034-7.477-10.574v21.148c4.356-1.54 7.477-5.691 7.477-10.574" fill="#EF4135"/></g></symbol><symbol viewBox="0 0 24 24" id="icon-hr"><title>hr</title><g fill="none" fill-rule="evenodd"><path d="M12 .084c6.565 0 11.888 5.322 11.888 11.888 0 6.565-5.323 11.888-11.888 11.888C5.435 23.86.112 18.537.112 11.972.112 5.406 5.435.084 12 .084" fill="#9E9E9E"/><path d="M12 .785C18.194.785 23.215 5.806 23.215 12S18.194 23.215 12 23.215.785 18.194.785 12 5.806.785 12 .785" fill="#FFF"/><path d="M12 .785c-4.881 0-9.032 3.12-10.573 7.473h21.146C21.033 3.905 16.881.785 12 .785" fill="#ED1C24"/><path d="M12 23.215c4.87 0 9.013-3.104 10.562-7.441H1.438C2.988 20.11 7.13 23.215 12 23.215" fill="#0D499C"/><path fill="#FFF" d="M12.964 14.092h1.963v-1.998h-1.963z"/><path fill="#ED1C24" d="M12.964 16.056h1.963v-1.999h-1.963z"/><path fill="#FFF" d="M14.927 12.094h1.792v-1.998h-1.792z"/><path d="M16.719 10.096V8.718c0-.242 0-.448-.035-.69h-1.757v2.068h1.792zM12.964 12.094h1.963v-1.998h-1.963z" fill="#ED1C24"/><path fill="#FFF" d="M11 16.056h1.964v-1.999H11zM9.036 14.092H11v-1.998H9.036z"/><path fill="#ED1C24" d="M11 14.092h1.964v-1.998H11z"/><path fill="#FFF" d="M11 12.094h1.964v-1.998H11z"/><path fill="#ED1C24" d="M9.036 12.094H11v-1.998H9.036z"/><path fill="#FFF" d="M12.964 10.095h1.963V8.03h-1.963z"/><path fill="#ED1C24" d="M9.036 16.056H11v-1.999H9.036z"/><path d="M12.964 16.056v1.963c.723-.172 1.412-.482 1.963-.93v-1.033h-1.963z" fill="#FFF"/><path d="M14.927 17.055c.345-.276.69-.62.93-1.034h-.93v1.034z" fill="red"/><path d="M11 16.056v1.963a4.922 4.922 0 0 0 1.998 0v-1.963H11z" fill="#ED1C24"/><path d="M9.036 16.056v1.033c.551.448 1.24.792 1.964.93v-1.963H9.036z" fill="#FFF"/><path d="M16.719 12.094h-1.792v1.998h1.723c.034-.241.069-.482.069-.758v-1.24zM8.106 16.056c.276.378.586.723.93 1.033v-1.033h-.93z" fill="#ED1C24"/><path d="M14.927 16.056h.93c.414-.586.69-1.24.793-1.999h-1.723v1.999zM7.245 12.094h1.791v-1.998H7.245zM9.036 10.095H11V8.03H9.036z" fill="#FFF"/><path d="M9.036 8.029H7.28c-.034.206-.034.448-.034.689v1.378h1.791V8.029" fill="#ED1C24"/><path d="M9.036 14.057H7.314c.103.724.379 1.413.792 1.998h.93v-1.998z" fill="#FFF"/><path d="M9.036 12.094H7.245v1.24c0 .241.034.517.069.758h1.722v-1.998zM11 10.095h1.964V8.03H11z" fill="#ED1C24"/><path d="M7.348 8.098c-.034.206-.034.413-.034.62v4.616c0 .241.034.482.069.723a4.64 4.64 0 0 0 .792 1.964c.276.379.586.723.93 1 .551.447 1.24.792 1.93.93.62.137 1.308.137 1.928 0 .69-.138 1.379-.483 1.93-.93.344-.277.689-.621.93-1a4.644 4.644 0 0 0 .792-1.964c.035-.24.07-.482.07-.723V8.718c0-.207 0-.414-.035-.62H7.348zM12 18.157c-.345 0-.655-.034-1-.103-.723-.138-1.412-.483-1.997-.93a5.464 5.464 0 0 1-.965-1.034 4.607 4.607 0 0 1-.792-1.998 5.655 5.655 0 0 1-.07-.758V8.718c0-.242 0-.448.035-.69v-.034h9.474v.035c.035.24.035.447.035.689v4.616c0 .241-.035.517-.07.758a4.607 4.607 0 0 1-.792 1.998c-.275.379-.585.723-.964 1.034a4.441 4.441 0 0 1-1.998.93 3.557 3.557 0 0 1-.896.103z" fill="#ED1C24"/><path d="M6.797 4.756l-.793 1.343L7.21 8.304c1.654-.448 4.513-1.516 9.577 0 .138-.24 1.24-2.205 1.24-2.205l-.86-1.343-1.516.55-1.068-1.067-1.378.758-1.275-.896-1.171.862-1.413-.724-1.033 1.102-1.516-.585z" fill="#FFF"/><path fill="#00AEEF" d="M16.753 8.098L17.89 6.03l-.792-1.172-1.482.517-.723 2.24z"/><path d="M14.893 7.615s-1.413-.24-1.93-.275c.035-.104.207-2.274.207-2.274l1.344-.724 1.068 1.034-.69 2.24z" fill="#0D499C"/><path d="M13.928 5.824c.104 0 .138-.035.207-.104 0 0-.172.138-.241.07.034-.035.138-.035.069-.07-.138-.103-.242-.137-.414-.103.103.103.07.345 0 .345.103 0 .241.137.207.137-.207.07-.104.448-.241.62.172.035.275-.034.31-.24.138.034-.138.378.034.378.138 0 .207-.344.517-.344-.344.62.138-.035.207 0 .068.034.068.276-.07.31.276.103.449-.655.38-.861-.104.034-.827.103-.965-.138" fill="#FFE512"/><path fill="#00AEEF" d="M11.964 4.205l-1.205.86.24 2.275h1.999l.207-2.274z"/><path d="M11.551 5.548c.138-.31-.103-.034-.103-.034-.035-.07-.104-.207-.104-.104-.034.173-.069.07-.172 0-.069-.034-.069.035.07.138 0 0-.208.172-.07.241-.034 0-.069.586.172.31.07.104.207.173.207 0l.103.104.035-.138c.138.103-.07-.482-.138-.517M12.653 5.548c.138-.31-.103-.034-.103-.034-.034-.07-.103-.207-.103-.104-.035.173-.07.07-.172 0-.07-.034-.07.035.068.138 0 0-.206.172-.068.241-.035 0-.07.586.172.31.069.104.206.173.206 0l.104.104.034-.138c.138.103-.034-.482-.138-.517M12.102 6.444c.138-.31-.103-.035-.103-.035-.034-.069-.104-.206-.104-.103-.034.172-.068.069-.172 0-.069-.034-.069.034.07.138 0 0-.208.172-.07.241-.034 0-.069.586.172.31.07.103.207.172.207 0l.104.103.034-.137c.138.103-.034-.448-.138-.517" fill="#FFE512"/><path d="M9.38 4.342L8.383 5.41l.689 2.136C9.243 7.546 11 7.34 11 7.34l-.241-2.309-1.378-.689z" fill="#0D499C"/><path fill="#00AEEF" d="M6.831 4.86l-.723 1.17 1.171 2.068 1.792-.517-.69-2.136z"/><path d="M8.382 5.445s.758-.379 2.377-.379c0 .069.069.586.069.586s-1.62 0-2.274.31l-.172-.517M8.726 6.547s.655-.413 2.136-.413c0 .069.069.62.069.62s-1.412 0-1.998.344l-.207-.55" fill="#ED1C24"/><path d="M15.444 5.927c.517.104 1.653.379 2.136.62 0 .035-.138.207-.138.207-.413-.138-1.654-.551-2.101-.586l.103-.24zM15.1 6.995c.516.104 1.446.31 1.963.551 0 .035-.103.207-.103.207-.414-.138-1.447-.482-1.93-.517l.07-.24z" fill="#FFF"/><path d="M15.375 6.168c.448.07 1.24.276 2.136.586 0 .034-.448.792-.448.792s-.448-.241-1.964-.55l.276-.828z" fill="#ED1C24"/><path d="M16.925 6.926c-.137-.034-.275-.034-.379-.069l-.31-.103c-.069 0-.172-.035-.24-.035-.035-.034-.104-.103-.173-.103-.31 0 0 .138 0 .172-.034 0-.138-.034-.172 0-.035.035.206.035.206.035 0 .069-.103.034-.138.034.035.104.552-.069.655.104 0 0-.172.034-.138.034.104.103.173-.034.276 0 .138.035.103.172.172.172.104.035-.034-.24-.034-.206-.07 0 .31.103.275-.035-.034 0 0 .104 0 0" fill="#000"/><path fill="#FFE512" d="M16.822 5.41l.241-.137-.034.24.275.104-.275.103.034.276-.241-.172-.241.172.034-.276-.241-.103.241-.103-.034-.241zM7.383 5.79l.24-.173-.034.276.276.103-.276.103.035.241-.241-.137-.242.137.035-.24-.276-.104.276-.103-.035-.276z"/><path d="M8.416 6.444c-.31.31-.517.689-1.55.482.62.861 1.688.345 1.55-.482" fill="#FFF"/></g></symbol><symbol viewBox="0 0 24 24" id="icon-it"><title>it</title><g fill="none" fill-rule="evenodd"><path d="M12 .112C18.565.112 23.888 5.435 23.888 12c0 6.565-5.323 11.888-11.888 11.888C5.435 23.888.112 18.565.112 12 .112 5.435 5.435.112 12 .112" fill="#9E9E9E"/><path d="M12 .785C18.194.785 23.215 5.806 23.215 12S18.194 23.215 12 23.215.785 18.194.785 12 5.806.785 12 .785" fill="#F1F2F1"/><path d="M8.262 22.574V1.426C3.906 2.966.785 7.117.785 12s3.121 9.034 7.477 10.574" fill="#009246"/><path d="M23.215 12c0-4.883-3.121-9.034-7.477-10.574v21.148c4.356-1.54 7.477-5.691 7.477-10.574" fill="#CE2B37"/></g></symbol><symbol viewBox="0 0 24 24" id="icon-ja"><title>ja</title><g fill="none" fill-rule="evenodd"><path d="M12 .112C18.565.112 23.888 5.435 23.888 12c0 6.565-5.323 11.888-11.888 11.888C5.435 23.888.112 18.565.112 12 .112 5.435 5.435.112 12 .112" fill="#9E9E9E"/><path d="M12 .785C18.194.785 23.215 5.806 23.215 12S18.194 23.215 12 23.215.785 18.194.785 12 5.806.785 12 .785" fill="#FFF"/><path d="M12 6.393a5.608 5.608 0 1 1 0 11.215 5.608 5.608 0 0 1 0-11.215" fill="#CF102D"/></g></symbol><symbol viewBox="0 0 24 24" id="icon-nl"><title>nl</title><g fill="none" fill-rule="evenodd"><path d="M12 .112C18.565.112 23.888 5.435 23.888 12c0 6.565-5.323 11.888-11.888 11.888C5.435 23.888.112 18.565.112 12 .112 5.435 5.435.112 12 .112" fill="#9E9E9E"/><path d="M12 .785C18.194.785 23.215 5.806 23.215 12S18.194 23.215 12 23.215.785 18.194.785 12 5.806.785 12 .785" fill="#FFF"/><path d="M12 .785c-4.869 0-9.011 3.103-10.562 7.439h21.124C21.01 3.888 16.869.785 12 .785" fill="#AE1C28"/><path d="M12 23.215c4.869 0 9.011-3.103 10.562-7.439H1.438C2.99 20.112 7.131 23.215 12 23.215" fill="#21468B"/></g></symbol><symbol viewBox="0 0 24 24" id="icon-pt-br"><title>pt-br</title><g fill="none" fill-rule="evenodd"><path d="M12 0c6.627 0 12 5.373 12 12s-5.373 12-12 12S0 18.627 0 12 5.373 0 12 0" fill="#9E9E9E"/><path d="M12 .68C18.252.68 23.32 5.747 23.32 12c0 6.252-5.068 11.32-11.32 11.32C5.748 23.32.68 18.253.68 12 .68 5.748 5.747.68 12 .68" fill="#00953B"/><path d="M23.184 13.76a11.41 11.41 0 0 0-.017-3.617L12.045 3.247.822 10.207a11.398 11.398 0 0 0-.016 3.49l11.24 6.943 11.138-6.88z" fill="#FEE123"/><path d="M12.242 5.999a5.961 5.961 0 1 1 0 11.922 5.961 5.961 0 0 1 0-11.922" fill="#1226AA"/><path d="M13.028 9.83c-2.064-.785-4.127-1.08-5.896-.949-.196.36-.393.72-.524 1.146 1.769-.294 3.93-.065 6.06.754 2.162.819 3.93 2.129 5.077 3.537.163-.36.294-.753.36-1.179-1.212-1.31-2.98-2.49-5.077-3.308" fill="#FFF"/><path d="M8.05 9.241a.25.25 0 0 0-.164.066.25.25 0 0 0-.066.164c0 .065.033.13.098.196a.251.251 0 0 0 .164.066c.065 0 .13-.033.164-.066a.25.25 0 0 0 .065-.164.25.25 0 0 0-.065-.163c-.066-.066-.131-.099-.197-.099m0-.13c.098 0 .197.032.262.098a.372.372 0 0 1 .098.262.371.371 0 0 1-.098.262.372.372 0 0 1-.262.098.372.372 0 0 1-.262-.098.371.371 0 0 1-.098-.262c0-.066 0-.131.033-.197a.256.256 0 0 1 .13-.13c.066-.034.132-.034.197-.034M9.392 9.307l-.033.458h.196c.034 0 .067-.032.067-.065.032-.033.032-.066.032-.131 0-.066 0-.131-.032-.197a.251.251 0 0 0-.164-.065h-.066zm-.13-.131l.163.033c.098 0 .164.032.23.065.032.033.097.066.097.131a.415.415 0 0 1 .033.197c0 .065-.033.098-.033.163l-.098.099c-.032.032-.065.032-.098.065h-.197l-.163-.033.065-.72zM10.047 9.241l.393.066-.033.13-.261-.032-.033.131.262.033-.033.13-.262-.032-.033.197.262.032-.032.131-.393-.065zM10.67 9.372l.13.033.066.524.262-.458.131.032-.033.72-.13-.032.032-.458-.262.393h-.098l-.066-.459-.164.426-.13-.033zM12.57 10.158h.032c.033 0 .066.033.066.033h.032l.033-.033v-.065s-.033-.033-.065-.033h-.033l-.066.098zm-.033-.294l.13.033c.066.032.132.065.164.065.033.033.033.065.066.098v.131c-.033.033-.033.066-.066.099-.032.032-.065.032-.13.032-.033 0-.066 0-.132-.032l-.098.294-.131-.032.197-.688zM13.126 10.388h.033c.033 0 .065.033.098.033s.033-.033.033-.033v-.033s0-.033-.033-.033c0 0-.033-.032-.065-.032h-.033l-.033.098zm0-.295l.131.065c.066.033.131.066.164.099s.033.065.033.098v.131c-.033.033-.033.065-.066.098-.032.033-.065.033-.13.033l.032.36-.131-.065-.033-.328-.164.197-.13-.066.294-.622zM13.945 10.552a.208.208 0 0 0-.196 0 .256.256 0 0 0-.132.13.21.21 0 0 0 0 .197c.033.066.066.098.099.098.065.033.13.033.164 0a.256.256 0 0 0 .13-.13.208.208 0 0 0 0-.197c.033 0 0-.066-.065-.098m.065-.099a.295.295 0 0 1 .197.197.453.453 0 0 1 0 .295.295.295 0 0 1-.197.196.453.453 0 0 1-.294 0c-.099-.033-.164-.131-.197-.23a.456.456 0 0 1 0-.294.578.578 0 0 1 .131-.164c.066-.033.099-.065.197-.065.033.032.098.032.163.065M15.059 11.141l-.131.033c-.033-.098-.066-.131-.131-.197-.066-.032-.131-.032-.197-.032a.255.255 0 0 0-.13.13c-.034.066-.034.132-.034.197.033.066.066.131.131.164h.099c.032 0 .065-.033.098-.033l-.164-.098.066-.098.327.163v.033a.256.256 0 0 1-.13.131c-.066.033-.1.066-.165.066s-.13 0-.163-.033c-.066-.033-.131-.066-.164-.131a.464.464 0 0 1-.066-.197c0-.065 0-.13.033-.196.033-.098.098-.131.197-.164a.397.397 0 0 1 .327.033c.066.033.098.065.131.098l.066.131M15.288 11.469l.033.033c.032.032.065.032.098.032s.033 0 .066-.032v-.066s-.033-.033-.066-.033l-.033-.033-.098.099zm.033-.295l.13.065c.066.033.099.066.132.099.033.032.033.065.033.098s0 .066-.033.13l-.098.1c-.033 0-.066.032-.132 0l-.032.36-.131-.066.033-.328-.164.263-.131-.132.393-.59zM15.845 11.501l.327.23-.065.098-.197-.131-.065.098.196.131-.065.099-.197-.132-.098.164.197.131-.066.099-.327-.23zM16.565 12.157h-.13c0-.066 0-.099-.033-.132h-.066v.033c0 .033 0 .066.033.131 0 .066.033.099.033.131v.098c0 .033-.033.066-.033.066-.033.033-.066.066-.131.066-.066 0-.098 0-.164-.066l-.098-.098c0-.033-.033-.098 0-.164h.13c0 .066 0 .131.034.131.032 0 .032.033.065.033s.033 0 .033-.033v-.065c0-.033 0-.066-.033-.099-.033-.098-.033-.164-.033-.196 0-.033 0-.066.033-.098.033-.033.066-.066.131-.066.066 0 .098 0 .131.033s.066.033.066.065a.639.639 0 0 1 .032.23M17.024 12.517h-.131c0-.066 0-.098-.033-.131l-.033-.033h-.032v.033c0 .033 0 .065.032.13 0 .066.033.1.033.132v.098c0 .033-.033.066-.033.066a.248.248 0 0 1-.13.065c-.066 0-.099 0-.164-.065-.033-.033-.066-.066-.066-.099v-.163l.131.032c0 .066 0 .131.033.164.033 0 .033.033.065.033.033 0 .033 0 .033-.033 0 0 0-.033.033-.033v-.098c-.033-.098-.033-.164-.033-.196 0-.033.033-.066.033-.099.033-.033.065-.065.13-.065.067 0 .1 0 .132.065.033.033.033.066.065.099-.065 0-.065.032-.065.098M17.417 12.91a.25.25 0 0 0-.164-.066.25.25 0 0 0-.164.066c-.065.065-.065.131-.065.196 0 .066.033.099.065.132a.251.251 0 0 0 .164.065c.066 0 .131-.033.164-.065a.25.25 0 0 0 .065-.164.25.25 0 0 0-.065-.164m.098-.098a.372.372 0 0 1 .099.262.373.373 0 0 1-.099.262c-.065.065-.163.098-.262.13a.372.372 0 0 1-.262-.098c-.065-.065-.13-.163-.13-.262 0-.098.032-.196.098-.262a.18.18 0 0 1 .163-.098.208.208 0 0 1 .197 0c.065-.033.13 0 .196.066" fill="#00953B"/></g></symbol><symbol viewBox="0 0 24 24" id="icon-tr"><title>tr</title><g fill="none" fill-rule="evenodd"><path d="M12 .112C18.565.112 23.888 5.435 23.888 12c0 6.565-5.323 11.888-11.888 11.888C5.435 23.888.112 18.565.112 12 .112 5.435 5.435.112 12 .112" fill="#9E9E9E"/><path d="M12 .785C18.194.785 23.215 5.806 23.215 12S18.194 23.215 12 23.215.785 18.194.785 12 5.806.785 12 .785" fill="#E30A17"/><path d="M11.421 16.581a4.597 4.597 0 0 1-4.597-4.597c0-2.54 2.058-4.597 4.63-4.597 1.414 0 2.7.642 3.568 1.671a5.78 5.78 0 0 0-4.951-2.797 5.75 5.75 0 0 0-5.755 5.755c0 3.183 2.572 5.723 5.755 5.723a5.74 5.74 0 0 0 4.951-2.797c-.9.996-2.154 1.64-3.6 1.64" fill="#FFF"/><path fill="#FFF" d="M16.437 14.652l1.286-1.671 1.929.675-1.19-1.672 1.222-1.64-1.93.579-1.189-1.64-.128 2.058-1.93.61 1.994.644"/></g></symbol><symbol viewBox="0 0 24 24" id="icon-zh-cn"><title>zh-cn</title><g fill="none" fill-rule="evenodd"><path d="M12 .084c6.565 0 11.888 5.322 11.888 11.888 0 6.565-5.323 11.888-11.888 11.888C5.435 23.86.112 18.537.112 11.972.112 5.406 5.435.084 12 .084" fill="#9E9E9E"/><path d="M12 .785C18.194.785 23.215 5.806 23.215 12S18.194 23.215 12 23.215.785 18.194.785 12 5.806.785 12 .785" fill="#FC0204"/><path fill="#FCFE04" d="M8.225 4.071l1.213 3.687h3.88L10.165 9.99l1.213 3.687-3.153-2.28-3.105 2.28L6.284 9.99 3.18 7.76h3.88zM15.453 3.247l.242.824h.873l-.727.485.29.825-.678-.534-.728.534.291-.825-.679-.485h.825zM18.606 6.497l.29.825h.825l-.679.484.243.825-.68-.485-.678.485.29-.825-.727-.484h.873zM18.606 10.863l.29.824h.825l-.679.485.243.825-.68-.485-.678.485.29-.825-.727-.485h.873zM15.453 14.307l.242.825h.873l-.727.485.29.824-.678-.533-.728.533.291-.824-.679-.485h.825z"/></g></symbol></svg>