<svg xmlns="http://www.w3.org/2000/svg"><symbol viewBox="0 0 122.4 72.2" id="icon-AmericanFlag"><title>AmericanFlag</title><style>.st0-enus{fill:#fff}.st2-enus{fill:#b12334}</style><path class="st0-enus" d="M.7.6h121v71H.7z"/><path d="M121.2 1.1v70H1.2v-70h120m1-1H.2v72h122V.1z" fill="#53565a"/><path class="st2-enus" d="M1 1.2h120.2v5.4H1zM1 11.9h120.2v5.4H1zM1 23h120.2v5.4H1zM1 33.5h120.2v5.4H1zM1 44.1h120.2v5.4H1zM1 55.1h120.2v5.4H1zM1 65.7h120.2v5.4H1z"/><path fill="#3c3b6f" d="M1 1.2h53V39H1z"/><path class="st0-enus" d="M7.6 4.3H6l-.5-1.5v.1-.1L5 4.3H3.4l1.3 1.1-.6 1.7 1.4-1 1.4 1-.6-1.7zM16.4 4.3h-1.6l-.5-1.5v.1-.1l-.5 1.5h-1.6l1.3 1.1-.6 1.7 1.4-1 1.4 1-.6-1.7zM25.4 4.3h-1.6l-.5-1.5v.1-.1l-.5 1.5h-1.6l1.3 1.1-.6 1.7 1.4-1 1.4 1-.6-1.7zM34.2 4.3h-1.5l-.5-1.5v.1-.1l-.5 1.5h-1.6l1.3 1.1-.6 1.7 1.4-1 1.3 1-.6-1.7zM43.1 4.3h-1.6L41 2.8v.1-.1l-.5 1.5h-1.6l1.3 1.1-.5 1.7 1.3-1 1.4 1-.6-1.7zM52.1 4.3h-1.6L50 2.8v.1-.1l-.5 1.5h-1.6l1.3 1.1-.6 1.7 1.4-1 1.3 1-.5-1.7zM7.6 11.8H6l-.5-1.4-.5 1.4H3.4L4.7 13l-.6 1.6 1.4-.9 1.4.9-.6-1.6zM16.4 11.8h-1.6l-.5-1.4-.5 1.4h-1.6l1.3 1.2-.6 1.6 1.4-.9 1.4.9-.6-1.6zM25.4 11.8h-1.6l-.5-1.4-.5 1.4h-1.6l1.3 1.2-.6 1.6 1.4-.9 1.4.9-.6-1.6zM34.2 11.8h-1.5l-.5-1.4-.5 1.4h-1.6l1.3 1.2-.6 1.6 1.4-.9 1.3.9-.6-1.6zM43.1 11.8h-1.6l-.5-1.4-.5 1.4h-1.6l1.3 1.2-.5 1.6 1.3-.9 1.4.9-.6-1.6zM52.1 11.8h-1.6l-.5-1.4-.5 1.4h-1.6l1.3 1.2-.6 1.6 1.4-.9 1.3.9-.5-1.6zM12 8h-1.6l-.5-1.4L9.4 8H7.8l1.3 1.2-.5 1.7 1.3-1 1.4 1-.6-1.7zM20.8 8h-1.6l-.5-1.4-.5 1.4h-1.6l1.3 1.2-.5 1.7 1.3-1 1.4 1-.6-1.7zM29.8 8h-1.6l-.5-1.4-.5 1.4h-1.6l1.3 1.2-.5 1.7 1.3-1 1.4 1-.6-1.7zM38.7 8h-1.6l-.5-1.4-.5 1.4h-1.6l1.3 1.2-.6 1.7 1.4-1 1.3 1-.5-1.7zM47.5 8h-1.6l-.5-1.4-.5 1.4h-1.5l1.3 1.2-.6 1.7 1.3-1 1.4 1-.6-1.7zM7.6 19.4H6L5.5 18 5 19.4H3.4l1.3 1.2-.6 1.7 1.4-1 1.4 1-.6-1.7zM16.4 19.4h-1.6l-.5-1.4-.5 1.4h-1.6l1.3 1.2-.6 1.7 1.4-1 1.4 1-.6-1.7zM25.4 19.4h-1.6l-.5-1.4-.5 1.4h-1.6l1.3 1.2-.6 1.7 1.4-1 1.4 1-.6-1.7zM34.2 19.4h-1.5l-.5-1.4-.5 1.4h-1.6l1.3 1.2-.6 1.7 1.4-1 1.3 1-.6-1.7zM43.1 19.4h-1.6L41 18l-.5 1.4h-1.6l1.3 1.2-.5 1.7 1.3-1 1.4 1-.6-1.7zM52.1 19.4h-1.6L50 18l-.5 1.4h-1.6l1.3 1.2-.6 1.7 1.4-1 1.3 1-.5-1.7zM12 15.7h-1.6l-.5-1.5-.5 1.5H7.8l1.3 1.1-.5 1.7 1.3-1 1.4 1-.6-1.7zM20.8 15.7h-1.6l-.5-1.5-.5 1.5h-1.6l1.3 1.1-.5 1.7 1.3-1 1.4 1-.6-1.7zM29.8 15.7h-1.6l-.5-1.5-.5 1.5h-1.6l1.3 1.1-.5 1.7 1.3-1 1.4 1-.6-1.7zM38.7 15.7h-1.6l-.5-1.5-.5 1.5h-1.6l1.3 1.1-.6 1.7 1.4-1 1.3 1-.5-1.7zM47.5 15.7h-1.6l-.5-1.5-.5 1.5h-1.5l1.3 1.1-.6 1.7 1.3-1 1.4 1-.6-1.7zM7.6 26.9H6l-.5-1.4-.5 1.4H3.4L4.7 28l-.6 1.7 1.4-1 1.4 1-.6-1.7zM16.4 26.9h-1.6l-.5-1.4-.5 1.4h-1.6l1.3 1.1-.6 1.7 1.4-1 1.4 1-.6-1.7zM25.4 26.9h-1.6l-.5-1.4-.5 1.4h-1.6l1.3 1.1-.6 1.7 1.4-1 1.4 1-.6-1.7zM34.2 26.9h-1.5l-.5-1.4-.5 1.4h-1.6l1.3 1.1-.6 1.7 1.4-1 1.3 1-.6-1.7zM43.1 26.9h-1.6l-.5-1.4-.5 1.4h-1.6l1.3 1.1-.5 1.7 1.3-1 1.4 1-.6-1.7zM52.1 26.9h-1.6l-.5-1.4-.5 1.4h-1.6l1.3 1.1-.6 1.7 1.4-1 1.3 1-.5-1.7zM12 23.1h-1.6l-.5-1.4-.5 1.4H7.8l1.3 1.2-.5 1.6 1.3-1 1.4 1-.6-1.6zM20.8 23.1h-1.6l-.5-1.4-.5 1.4h-1.6l1.3 1.2-.5 1.6 1.3-1 1.4 1-.6-1.6zM29.8 23.1h-1.6l-.5-1.4-.5 1.4h-1.6l1.3 1.2-.5 1.6 1.3-1 1.4 1-.6-1.6zM38.7 23.1h-1.6l-.5-1.4-.5 1.4h-1.6l1.3 1.2-.6 1.6 1.4-1 1.3 1-.5-1.6zM47.5 23.1h-1.6l-.5-1.4-.5 1.4h-1.5l1.3 1.2-.6 1.6 1.3-1 1.4 1-.6-1.6zM7.6 34.5H6l-.5-1.4-.5 1.4H3.4l1.3 1.2-.6 1.6 1.4-1 1.4 1-.6-1.6zM16.4 34.5h-1.6l-.5-1.4-.5 1.4h-1.6l1.3 1.2-.6 1.6 1.4-1 1.4 1-.6-1.6zM25.4 34.5h-1.6l-.5-1.4-.5 1.4h-1.6l1.3 1.2-.6 1.6 1.4-1 1.4 1-.6-1.6zM34.2 34.5h-1.5l-.5-1.4-.5 1.4h-1.6l1.3 1.2-.6 1.6 1.4-1 1.3 1-.6-1.6zM43.1 34.5h-1.6l-.5-1.4-.5 1.4h-1.6l1.3 1.2-.5 1.6 1.3-1 1.4 1-.6-1.6zM52.1 34.5h-1.6l-.5-1.4-.5 1.4h-1.6l1.3 1.2-.6 1.6 1.4-1 1.3 1-.5-1.6zM12 30.7h-1.6l-.5-1.4-.5 1.4H7.8l1.3 1.2-.5 1.6 1.3-.9 1.4.9-.6-1.6zM20.8 30.7h-1.6l-.5-1.4-.5 1.4h-1.6l1.3 1.2-.5 1.6 1.3-.9 1.4.9-.6-1.6zM29.8 30.7h-1.6l-.5-1.4-.5 1.4h-1.6l1.3 1.2-.5 1.6 1.3-.9 1.4.9-.6-1.6zM38.7 30.7h-1.6l-.5-1.4-.5 1.4h-1.6l1.3 1.2-.6 1.6 1.4-.9 1.3.9-.5-1.6zM47.5 30.7h-1.6l-.5-1.4-.5 1.4h-1.5l1.3 1.2-.6 1.6 1.3-.9 1.4.9-.6-1.6z"/></symbol><symbol viewBox="0 0 122.4 72.2" id="icon-AustralianFlag"><title>AustralianFlag</title><style>.st0-au{fill:#fff}.st2-au{fill:#00008b}.st3-au{fill:red}</style><path class="st0-au" d="M.7.6h121v71H.7z"/><path d="M121.2 1.1v70H1.2v-70h120m1-1H.2v72h122V.1z" fill="#53565a"/><path class="st2-au" d="M121.2 71V1.1H1.2l.1 70z"/><path class="st0-au" d="M34.6 56.2l.7 5.9-4.1-4.3-4.1 4.3.7-5.9-5.9-.6 5.1-3.1-3.2-5 5.6 2.1 1.8-5.7 1.9 5.7 5.7-2-3.4 4.8 5.1 3.3zM93.3 16.7l.4 2.6-1.8-2-1.8 2 .5-2.6-2.7-.2 2.3-1.4-1.5-2.1 2.4.8.9-2.4.8 2.4 2.4-.8-1.4 2.1 2.2 1.4zM93.3 58.2l.4 2.6-1.8-2-1.8 2 .4-2.6-2.6-.3 2.2-1.3-1.4-2.2 2.4.9.8-2.4.9 2.4 2.4-.8-1.5 2.1 2.2 1.4zM77.1 32.6l.4 2.6-1.8-2-1.7 2 .4-2.6-2.7-.2L74 31l-1.5-2.1 2.5.8.8-2.4.8 2.4 2.4-.8-1.4 2.1 2.2 1.4zM107.6 28.3l.4 2.6-1.8-2-1.7 2 .4-2.6-2.7-.2 2.3-1.4-1.5-2.1 2.5.8.8-2.4.8 2.4 2.4-.8-1.4 2.1 2.2 1.4zM97 37.2l.4-1.6-1.3-1.1 1.6-.1.7-1.6.6 1.6 1.7.1-1.3 1.2.4 1.5-1.4-.9z"/><path class="st2-au" d="M61.2 35.1v-34h-60v34z"/><path class="st0-au" d="M1.2 31l23.3-13L1.2 5V1.1h7.4l22.9 13 22.9-13h6.8v4l-22.9 13 22.9 13v4h-7.3l-22.6-13-22.8 13H1.2z"/><path class="st3-au" d="M1.2 3.7l19.6 11c.1-.1 5.7 2.4 5.7 2.4s-1.4 4.4-1.1 4.4L1.8 35.1h4.6l22.1-12.8c-.4-.1 3.8-2.2 3.8-2.2l6.5 2.1L61.2 35v-2.7L41.9 21.4c.1.1-5.3-2.3-5.3-2.3l.7-4.5L61.2 1.1h-4.5L34.4 13.7c0 .1-3.2 2.4-3.2 2.4l-7.4-2.4L1.2 1.1v2.6z"/><path class="st0-au" d="M26.5 12.1v-11h10.1V12h24.6v12H36.6v11.1H26.5V24H1.2V12.1z"/><path class="st3-au" d="M34.5 14.4h26.7v7.1H34.5l.1 13.6h-6.1l.1-13.6H1.2v-7.1h27.3V1.1h6.1l-.1 13.3"/></symbol><symbol viewBox="0 0 122.4 72.2" id="icon-BrazilianFlag"><title>BrazilianFlag</title><style>.st0-br{fill:#fff}.st2-br{fill:#00953b}</style><path class="st0-br" d="M.7.6h121v71H.7z"/><path d="M121.2 1.1v70H1.2v-70h120m1-1H.2v72h122V.1z" fill="#53565a"/><path class="st2-br" d="M1.2 1.1h120v70H1.2z"/><path fill="#fee123" d="M61.2 63.1L18.3 36.6 61.2 10l42.9 26.6z"/><circle cx="61.8" cy="36.6" r="18.2" fill="#1226aa"/><path class="st0-br" d="M46.8 32.6h.5l-.3.3.1.5-.4-.2-.4.2.1-.4-.4-.3.5-.1.1-.4zM66.9 29.7l.4.1-.3.3.1.4-.4-.2-.4.2.1-.4-.3-.3.4-.1.2-.4zM45.7 41.4h.2l-.2.1.1.2h-.2l-.2.1v-.2l-.1-.2h.2l.1-.2zM50 38.8h.2l-.1.2v.2l-.1-.1-.2.1V39l-.1-.2h.2l.1-.2zM61.3 37.9h.3l-.2.3.1.2-.3-.1-.3.2.1-.3-.2-.2.3-.1.1-.2zM59.9 40.1h.2l-.2.2.1.3-.3-.1-.2.2v-.3l-.2-.2.3-.1.1-.3zM63.2 39.9h.2l-.2.3.1.2-.3-.1-.2.2v-.3l-.2-.2.3-.1.1-.2zM55.6 45.9h.3l-.2.2v.3l-.2-.1-.3.2.1-.3-.2-.2.3-.1.1-.3zM61.1 41.5h.2l-.1.1v.2H61l-.2.1.1-.2-.2-.2h.2l.1-.2zM65.2 45h.3l-.2.2.1.3-.3-.1-.2.1v-.2l-.1-.2.2-.1.1-.2zM61.3 49.1h.3l-.2.2.1.3-.3-.1-.2.1v-.2l-.1-.2h.2l.1-.3zM68 45.3h.2l-.1.2v.3l-.2-.2-.3.2.1-.3-.2-.1.3-.1.1-.3zM74.4 45.6h.3l-.2.2v.2l-.2-.1-.2.1v-.2l-.1-.2h.2l.1-.2zM74.8 44.3h.3l-.2.2.1.2-.2-.1-.3.1.1-.2-.2-.2h.2l.1-.3zM77 42.5h.2l-.1.2v.2l-.2-.1-.2.1v-.2l-.2-.2h.3l.1-.2zM71.4 49.4h.3l-.2.2v.2l-.2-.1-.2.1v-.2l-.1-.2h.2l.1-.2zM71.4 45.6l.4.1-.3.3.1.5-.4-.2-.4.2.1-.4-.3-.3.4-.1.2-.4zM71.3 47.7l.4.1-.3.3.1.5-.4-.2-.4.2.1-.4-.3-.3.4-.1.2-.4zM73.1 45.9l.4.1-.3.3.1.4-.4-.2-.3.2v-.4l-.3-.3.4-.1.2-.4zM54.8 36l.4.1-.3.3.1.4-.4-.2-.3.2v-.4l-.2-.2.3-.1.2-.4zM74.8 42.6l.5.1-.3.3.1.4-.4-.2-.4.2.1-.4-.4-.3h.5l.1-.4zM52 41.4l.4.1-.2.3v.4l-.3-.2-.4.3v-.5l-.3-.3h.4l.2-.4zM51.4 43.8l.4.1-.3.3.1.4-.4-.2-.3.2v-.4l-.3-.3.4-.1.2-.4zM48.4 39.7h.4l-.3.3.1.5-.4-.2-.4.2.1-.4-.3-.3.4-.1.2-.4zM62 43.2l.5.1-.3.3.1.4-.4-.2-.4.2.1-.4-.4-.3.5-.1.1-.3zM66.9 48.2l.4.1-.3.3.1.4-.4-.2-.4.2.1-.4-.3-.3h.4l.2-.4z"/><path class="st0-br" d="M64.2 30.1c-6.3-2.4-12.6-3.3-18-2.9-.6 1.1-1.2 2.2-1.6 3.5 5.4-.9 12-.2 18.5 2.3 6.6 2.5 12 6.5 15.5 10.8.5-1.1.9-2.3 1.1-3.6-3.7-4-9.1-7.6-15.5-10.1z"/><g><path class="st2-br" d="M49 27.9c.3 0 .6.1.8.3.2.2.3.5.3.8 0 .3-.1.6-.3.8-.2.2-.5.3-.8.3-.3 0-.6-.1-.8-.3-.2-.2-.3-.5-.3-.8 0-.2 0-.4.1-.6.1-.2.2-.3.4-.4.2-.1.4-.1.6-.1zm0 .4c-.2 0-.4.1-.5.2-.1.1-.2.3-.2.5s.1.4.3.6c.1.1.3.2.5.2s.4-.1.5-.2.2-.3.2-.5-.1-.4-.2-.5c-.2-.2-.4-.3-.6-.3zM50.8 28h.4c.2 0 .4 0 .5.1.1 0 .2.1.2.2.1.1.1.2.1.4 0 .1 0 .3-.1.4-.1.1-.2.2-.3.2l.5 1h-.5l-.4-.9v.9h-.4V28zm.4.8h.4c.1 0 .1-.1.1-.2v-.1l-.1-.1H51.3l-.1.4zM52.7 28.1l.5.1c.3 0 .5.1.7.2.1.1.3.2.3.4.1.2.1.4.1.6 0 .2-.1.3-.1.5l-.3.3c-.1.1-.2.1-.3.2H53l-.5-.1.2-2.2zm.4.4l-.1 1.4H53.6c.1 0 .2-.1.2-.2.1-.1.1-.2.1-.4s0-.4-.1-.6c-.1-.1-.3-.2-.5-.2h-.2zM55.1 28.3l1.2.2-.1.4-.8-.1-.1.4.8.1-.1.4-.8-.1-.1.6.8.1-.1.4-1.2-.2.5-2.2zM57 28.7l.4.1.2 1.6.8-1.4.4.1-.1 2.2-.4-.1.1-1.4-.8 1.2h-.3l-.2-1.4-.5 1.3-.4-.1.8-2.1zM60.3 30.3l.7.2v.3l-.5-.1-.1.2.5.1-.1.2-.5-.1-.1.3.5.1-.1.2-.7-.2.4-1.2zM62.7 30.2l.4.1c.2.1.4.2.5.2.1.1.1.2.2.3v.4c-.1.1-.1.2-.2.3-.1.1-.2.1-.4.1-.1 0-.2 0-.4-.1l-.3.9-.4-.1.6-2.1zm.1.9h.1c.1 0 .2.1.2.1h.1l.1-.1v-.2s-.1-.1-.2-.1H63l-.2.3zM64.5 30.9l.4.2c.2.1.4.2.5.3.1.1.1.2.1.3v.4c-.1.1-.1.2-.2.3-.1.1-.2.1-.4.1l.1 1.1-.4-.2-.1-1-.5.6-.4-.2.9-1.9zm0 .9h.1c.1 0 .2.1.3.1.1 0 .1-.1.1-.1v-.1s0-.1-.1-.1c0 0-.1-.1-.2-.1h-.1l-.1.3zM67.2 32c.3.1.5.3.6.6.1.3.1.6 0 .9-.1.3-.3.5-.6.6-.3.1-.6.1-.9 0-.3-.1-.5-.4-.6-.7-.1-.3-.1-.6 0-.9.1-.2.2-.3.4-.5.2-.1.3-.2.6-.2.1.1.3.1.5.2zm-.2.3c-.2-.1-.4-.1-.6 0-.2.1-.3.2-.4.4-.1.2-.1.4 0 .6.1.2.2.3.3.3.2.1.4.1.5 0 .2-.1.3-.2.4-.4.1-.2.1-.4 0-.6.1 0 0-.2-.2-.3zM70.4 34.1l-.4.1c-.1-.3-.2-.4-.4-.6-.2-.1-.4-.1-.6-.1-.2.1-.3.2-.4.4-.1.2-.1.4-.1.6.1.2.2.4.4.5h.3c.1 0 .2-.1.3-.1l-.5-.3.2-.3 1 .5v.1c-.1.2-.2.3-.4.4-.2.1-.3.2-.5.2s-.4 0-.5-.1c-.2-.1-.4-.2-.5-.4-.1-.2-.2-.4-.2-.6 0-.2 0-.4.1-.6.1-.3.3-.4.6-.5.3-.1.6-.1 1 .1.2.1.3.2.4.3l.2.4zM71.2 34.2l.4.2c.2.1.3.2.4.3.1.1.1.2.1.3 0 .1 0 .2-.1.4l-.3.3c-.1 0-.2.1-.4 0l-.1 1.1-.4-.2.1-1-.5.8-.4-.4 1.2-1.8zm-.1.9l.1.1c.1.1.2.1.3.1.1 0 .1 0 .2-.1v-.1-.1s-.1-.1-.2-.1l-.1-.1-.3.3zM72.8 35.2l1 .7-.2.3-.6-.4-.2.3.6.4-.2.3-.6-.4-.3.5.6.4-.2.3-1-.7 1.1-1.7zM75 37.2h-.4c0-.2 0-.3-.1-.4h-.1-.1v.1c0 .1 0 .2.1.4 0 .2.1.3.1.4v.3c0 .1-.1.2-.1.2-.1.1-.2.2-.4.2s-.3 0-.5-.2l-.3-.3c0-.1-.1-.3 0-.5h.4c0 .2 0 .4.1.4s.1.1.2.1.1 0 .1-.1v-.2c0-.1 0-.2-.1-.3-.1-.3-.1-.5-.1-.6 0-.1 0-.2.1-.3.1-.1.2-.2.4-.2s.3 0 .4.1c.1.1.2.1.2.2.1.3.1.5.1.7zM76.4 38.3H76c0-.2 0-.3-.1-.4l-.1-.1h-.1v.1c0 .1 0 .2.1.4 0 .2.1.3.1.4v.3c0 .1-.1.2-.1.2-.1.1-.3.2-.4.2-.2 0-.3 0-.5-.2-.1-.1-.2-.2-.2-.3v-.5l.4.1c0 .2 0 .4.1.5.1 0 .1.1.2.1s.1 0 .1-.1c0 0 0-.1.1-.1v-.3c-.1-.3-.1-.5-.1-.6 0-.1.1-.2.1-.3.1-.1.2-.2.4-.2s.3 0 .4.2c.1.1.1.2.2.3-.2 0-.2.1-.2.3zM77.9 39.2c.2.2.3.5.3.8 0 .3-.1.6-.3.8-.2.2-.5.3-.8.4-.3 0-.6-.1-.8-.3-.2-.2-.4-.5-.4-.8 0-.3.1-.6.3-.8.1-.2.3-.3.5-.3.2-.1.4-.1.6 0 .2-.1.4 0 .6.2zm-.3.3c-.1-.1-.3-.2-.5-.2s-.4.1-.5.2c-.2.2-.2.4-.2.6 0 .2.1.3.2.4.1.1.3.2.5.2s.4-.1.5-.2c.1-.1.2-.3.2-.5s-.1-.4-.2-.5z"/></g></symbol><symbol viewBox="0 0 122.4 72.2" id="icon-ChineseFlag"><title>ChineseFlag</title><style>.st3-cn{fill-rule:evenodd;clip-rule:evenodd;fill:#fcfe04}</style><path fill="#fff" d="M.7.6h121v71H.7z"/><path d="M121.2 1.1v70H1.2v-70h120m1-1H.2v72h122V.1z" fill="#53565a"/><path fill-rule="evenodd" clip-rule="evenodd" fill="#fc0204" d="M1.2 1.1h120v70H1.2z"/><path class="st3-cn" d="M20.8 10.4l2.5 7.6h8l-6.5 4.6 2.5 7.6-6.5-4.7-6.4 4.7 2.4-7.6-6.4-4.6h8zM35.7 8.7l.5 1.7H38l-1.5 1 .6 1.7-1.4-1.1-1.5 1.1.6-1.7-1.4-1h1.7zM42.2 15.4l.6 1.7h1.7l-1.4 1 .5 1.7-1.4-1-1.4 1 .6-1.7-1.5-1h1.8zM42.2 24.4l.6 1.7h1.7l-1.4 1 .5 1.7-1.4-1-1.4 1 .6-1.7-1.5-1h1.8zM35.7 31.5l.5 1.7H38l-1.5 1 .6 1.7-1.4-1.1-1.5 1.1.6-1.7-1.4-1h1.7z"/></symbol><symbol viewBox="0 0 122.4 72.2" id="icon-CroatianFlag"><title>CroatianFlag</title><style>.st0-cr{fill:#fff}.st2-cr{fill:#ed1c24}.st3-cr{fill:#0d499c}.st5-cr{fill:#00aeef}.st6-cr{fill:#ffe512}.st7-cr{fill:#930e03}</style><g id="CroatianFlag-Layer_1"><path class="st0-cr" d="M.7.6h121v71H.7z"/><path d="M121.2 1.1v70H1.2v-70h120m1-1H.2v72h122V.1z" fill="#53565a"/><path class="st2-cr" d="M1.2 1.1h120v23.4H1.2z"/><path class="st3-cr" d="M1.2 47.8h120v23.4H1.2z"/><path class="st0-cr" d="M64 36.2h5.7V42H64z"/><path class="st2-cr" d="M64 41.9h5.7v5.8H64z"/><path class="st0-cr" d="M69.7 30.4h5.2v5.8h-5.2z"/><path class="st2-cr" d="M74.9 30.4v-4c0-.7 0-1.3-.1-2h-5.1v6h5.2zM64 30.4h5.7v5.8H64z"/><path class="st0-cr" d="M58.3 41.9H64v5.8h-5.7z"/><path class="st0-cr" d="M52.6 36.2h5.7V42h-5.7z"/><path class="st2-cr" d="M58.3 36.2H64V42h-5.7z"/><path class="st0-cr" d="M58.3 30.4H64v5.8h-5.7z"/><path class="st2-cr" d="M52.6 30.4h5.7v5.8h-5.7z"/><path class="st0-cr" d="M64 24.4h5.7v6H64z"/><path class="st2-cr" d="M52.6 41.9h5.7v5.8h-5.7z"/><path class="st0-cr" d="M64 47.7v5.7c2.1-.5 4.1-1.4 5.7-2.7v-3H64z"/><path d="M69.7 50.6c1-.8 2-1.8 2.7-3h-2.7v3z" fill="red"/><path class="st2-cr" d="M58.3 47.7v5.7c.9.2 1.9.3 2.9.3s1.9-.1 2.9-.3v-5.7h-5.8z"/><path class="st0-cr" d="M52.6 47.7v3c1.6 1.3 3.6 2.3 5.7 2.7v-5.7h-5.7z"/><path class="st2-cr" d="M74.9 36.2h-5.2V42h5c.1-.7.2-1.4.2-2.2v-3.6zM49.9 47.7c.8 1.1 1.7 2.1 2.7 3v-3h-2.7z"/><path class="st0-cr" d="M69.7 47.7h2.7c1.2-1.7 2-3.6 2.3-5.8h-5v5.8zM47.4 30.4h5.2v5.8h-5.2zM52.6 24.4h5.7v6h-5.7z"/><path class="st2-cr" d="M52.6 24.4h-5.1c-.1.6-.1 1.3-.1 2v4h5.2v-6z"/><path class="st0-cr" d="M52.6 41.9h-5c.3 2.1 1.1 4.1 2.3 5.8h2.7v-5.8z"/><path class="st2-cr" d="M52.6 36.2h-5.2v3.6c0 .7.1 1.5.2 2.2h5v-5.8zM58.3 24.4H64v6h-5.7z"/><path class="st2-cr" d="M61.2 53.8c-1 0-1.9-.1-2.9-.3-2.1-.4-4.1-1.4-5.8-2.7-1.1-.9-2-1.9-2.8-3-1.2-1.7-2-3.7-2.3-5.8-.1-.7-.2-1.5-.2-2.2V26.4c0-.7 0-1.3.1-2v-.1h27.5v.1c.1.7.1 1.3.1 2v13.4c0 .7-.1 1.5-.2 2.2-.3 2.1-1.1 4.1-2.3 5.8-.8 1.1-1.7 2.1-2.8 3-1.7 1.4-3.7 2.3-5.8 2.7-.7.2-1.7.3-2.6.3zM47.7 24.6c-.1.6-.1 1.2-.1 1.8v13.4c0 .7.1 1.4.2 2.1.3 2 1.1 4 2.3 5.7.8 1.1 1.7 2.1 2.7 2.9 1.6 1.3 3.6 2.3 5.6 2.7 1.8.4 3.8.4 5.6 0 2-.4 4-1.4 5.6-2.7 1-.8 2-1.8 2.7-2.9 1.2-1.7 2-3.7 2.3-5.7.1-.7.2-1.4.2-2.1V26.4c0-.6 0-1.2-.1-1.8h-27z"/><path class="st0-cr" d="M46.1 14.9l-2.3 3.9 3.5 6.4c4.8-1.3 13.1-4.4 27.8 0 .4-.7 3.6-6.4 3.6-6.4l-2.5-3.9-4.4 1.6-3.1-3.1-4 2.2L61 13l-3.4 2.5-4.1-2.1-3 3.2-4.4-1.7z"/><path class="st5-cr" d="M75 24.6l3.3-6-2.3-3.4-4.3 1.5-2.1 6.5z"/><path class="st3-cr" d="M69.6 23.2s-4.1-.7-5.6-.8c.1-.3.6-6.6.6-6.6l3.9-2.1 3.1 3-2 6.5z"/><path class="st6-cr" d="M66.8 18c.3 0 .4-.1.6-.3 0 0-.5.4-.7.2.1-.1.4-.1.2-.2-.4-.3-.7-.4-1.2-.3.3.3.2 1 0 1 .3 0 .7.4.6.4-.6.2-.3 1.3-.7 1.8.5.1.8-.1.9-.7.4.1-.4 1.1.1 1.1.4 0 .6-1 1.5-1-1 1.8.4-.1.6 0 .2.1.2.8-.2.9.8.3 1.3-1.9 1.1-2.5-.3.1-2.4.3-2.8-.4z"/><path class="st7-cr" d="M65.5 20.4c-.1.1-.2.2-.1.4.1 0 .4-.1.4-.1s.1-.2 0-.3c.1.1-.3 0-.3 0zM66.4 20.8h.4c0 .1-.1.3-.2.3h-.3c-.1-.1 0-.3.1-.3zM67.6 20.5s-.2.2-.1.3c.1 0 .4-.1.4-.1s.1-.1 0-.2h-.3zM68.5 20.8s-.3.1-.2.3h.5s.2-.1.1-.2c-.2-.1-.4-.1-.4-.1zM68.7 17.2c-.1 0-.9.1-1.3-.1-.3 0-1.4 0-1.1.3.3.1.4.3.7.3.2 0 .9.2 1.2.3.3 0 .7-.1.9-.2-.2 0-.8.1-1-.1-.1 0-.7-.1-.2-.2.4-.1.7-.1.8-.3z"/><path class="st5-cr" d="M61.1 13.3l-3.5 2.5.7 6.6h5.8l.6-6.6z"/><path class="st6-cr" d="M59.9 17.2c.4-.9-.3-.1-.3-.1-.1-.2-.3-.6-.3-.3-.1.5-.2.2-.5 0-.2-.1-.2.1.2.4 0 0-.6.5-.2.7-.1 0-.2 1.7.5.9.2.3.6.5.6 0l.3.3.1-.4c.4.3-.2-1.4-.4-1.5zM63.1 17.2c.4-.9-.3-.1-.3-.1-.1-.2-.3-.6-.3-.3-.1.5-.2.2-.5 0-.2-.1-.2.1.2.4 0 0-.6.5-.2.7-.1 0-.2 1.7.5.9.2.3.6.5.6 0l.3.3.1-.4c.4.3-.1-1.4-.4-1.5zM61.5 19.8c.4-.9-.3-.1-.3-.1-.1-.2-.3-.6-.3-.3-.1.5-.2.2-.5 0-.2-.1-.2.1.2.4 0 0-.6.5-.2.7-.1 0-.2 1.7.5.9.2.3.6.5.6 0l.3.3.1-.4c.4.3-.1-1.3-.4-1.5z"/><path class="st3-cr" d="M53.6 13.7l-2.9 3.1 2 6.2c.5 0 5.6-.6 5.6-.6l-.7-6.7-4-2z"/><path class="st5-cr" d="M46.2 15.2l-2.1 3.4 3.4 6 5.2-1.5-2-6.2z"/><path class="st2-cr" d="M50.7 16.9s2.2-1.1 6.9-1.1c0 .2.2 1.7.2 1.7s-4.7 0-6.6.9l-.5-1.5zM51.7 20.1s1.9-1.2 6.2-1.2c0 .2.2 1.8.2 1.8s-4.1 0-5.8 1l-.6-1.6z"/><path class="st0-cr" d="M71.2 18.3c1.5.3 4.8 1.1 6.2 1.8 0 .1-.4.6-.4.6-1.2-.4-4.8-1.6-6.1-1.7l.3-.7zM70.2 21.4c1.5.3 4.2.9 5.7 1.6 0 .1-.3.6-.3.6-1.2-.4-4.2-1.4-5.6-1.5l.2-.7z"/><path class="st2-cr" d="M71 19c1.3.2 3.6.8 6.2 1.7 0 .1-1.3 2.3-1.3 2.3s-1.3-.7-5.7-1.6L71 19z"/><path d="M75.5 21.2c-.4-.1-.8-.1-1.1-.2l-.9-.3c-.2 0-.5-.1-.7-.1-.1-.1-.3-.3-.5-.3-.9 0 0 .4 0 .5-.1 0-.4-.1-.5 0-.1.1.6.1.6.1 0 .2-.3.1-.4.1.1.3 1.6-.2 1.9.3 0 0-.5.1-.4.1.3.3.5-.1.8 0 .4.1.3.5.5.5.3.1-.1-.7-.1-.6-.2 0 .9.3.8-.1-.1 0 0 .3 0 0z"/><path class="st6-cr" d="M75.2 16.8l.7-.4-.1.7.8.3-.8.3.1.8-.7-.5-.7.5.1-.8-.7-.3.7-.3-.1-.7zM47.8 17.9l.7-.5-.1.8.8.3-.8.3.1.7-.7-.4-.7.4.1-.7-.8-.3.8-.3-.1-.8z"/><path class="st0-cr" d="M50.8 19.8c-.9.9-1.5 2-4.5 1.4 1.8 2.5 4.9 1 4.5-1.4z"/></g></symbol><symbol viewBox="0 0 122.4 72.2" id="icon-EuropeanFlag"><title>EuropeanFlag</title><style>.st3-eu{fill:#fc0}</style><path fill="#fff" d="M.7.6h121v71H.7z"/><path d="M121.2 1.1v70H1.2v-70h120m1-1H.2v72h122V.1z" fill="#53565a"/><path fill="#039" d="M1.2 1.1h120v70H1.2z"/><g><path class="st3-eu" d="M49.5 11.8l.9 2.7h2.9L51 16.2l.8 2.7-2.3-1.7-2.3 1.7.9-2.7-2.3-1.7h2.8zM61.2 8.7l.9 2.7h2.8l-2.3 1.7.9 2.7-2.3-1.7-2.3 1.7.9-2.7-2.3-1.7h2.8zM72.9 11.8l.9 2.7h2.8l-2.2 1.7.8 2.7-2.3-1.7-2.3 1.7.9-2.7-2.3-1.7H72zM81.4 20.3l.9 2.7h2.9l-2.3 1.7.9 2.7-2.4-1.6-2.3 1.6.9-2.7-2.3-1.7h2.9zM84.6 32.1l.9 2.7h2.8L86 36.4l.9 2.7-2.3-1.6-2.3 1.6.8-2.7-2.3-1.6h2.9zM81.4 43.7l.9 2.7h2.9l-2.3 1.7.9 2.7-2.4-1.7-2.3 1.7.9-2.7-2.3-1.7h2.9zM72.9 52.2l.9 2.7h2.8l-2.3 1.7.9 2.7-2.3-1.7-2.3 1.7.8-2.7-2.3-1.7H72zM61.2 55.4l.9 2.7h2.8l-2.3 1.7.9 2.7-2.3-1.7-2.3 1.7.9-2.7-2.3-1.7h2.8zM49.5 52.3l.9 2.7h2.8l-2.3 1.6.9 2.7-2.3-1.6-2.3 1.6.9-2.7-2.3-1.6h2.8zM41 43.7l.8 2.7h2.9L42.4 48l.9 2.7-2.3-1.6-2.3 1.6.8-2.7-2.3-1.6h2.9zM37.9 32l.8 2.7h2.9l-2.3 1.7.9 2.7-2.3-1.7-2.4 1.7.9-2.7-2.3-1.7H37zM41 20.4l.9 2.7h2.8l-2.3 1.6.9 2.7-2.3-1.6-2.3 1.6.8-2.7-2.2-1.6h2.8z"/></g></symbol><symbol viewBox="0 0 122.4 72.2" id="icon-FrenchFlag"><title>FrenchFlag</title><style>.st0-fr{fill:#fff}</style><path class="st0-fr" d="M.7.6h121v71H.7z"/><path d="M121.2 1.1v70H1.2v-70h120m1-1H.2v72h122V.1z" fill="#53565a"/><path fill="#0055a4" d="M1.2 1.1h40v70h-40z"/><path class="st0-fr" d="M41.2 1.1h40v70h-40z"/><g><path fill="#ef4135" d="M81.2 1.1h40v70h-40z"/></g></symbol><symbol viewBox="0 0 122.4 72.2" id="icon-GermanFlag"><title>GermanFlag</title><path fill="#fff" d="M.7.6h121v71H.7z"/><path d="M121.2 1.1v70H1.2v-70h120m1-1H.2v72h122V.1z" fill="#53565a"/><path d="M1.2 1.1h120v23.4H1.2z"/><path fill="red" d="M1.2 24.5h120v23.4H1.2z"/><path fill="#fc0" d="M1.2 47.8h120v23.3H1.2z"/></symbol><symbol viewBox="0 0 122.4 72.2" id="icon-ItalianFlag"><title>ItalianFlag</title><path fill="#fff" d="M.7.6h121v71H.7z"/><path d="M121.2 1.1v70H1.2v-70h120m1-1H.2v72h122V.1z" fill="#53565a"/><path fill="#009246" d="M1.2 1.1h40v70h-40z"/><path fill="#f1f2f1" d="M41.2 1.1h40v70h-40z"/><g><path fill="#ce2b37" d="M81.2 1.1h40v70h-40z"/></g></symbol><symbol viewBox="0 0 122.4 72.2" id="icon-JapaneseFlag"><title>JapaneseFlag</title><path fill="#fff" d="M.7.6h121v71H.7z"/><path d="M121.2 1.1v70H1.2v-70h120m1-1H.2v72h122V.1z" fill="#53565a"/><circle cx="61.2" cy="36.1" r="21" fill="#cf102d"/></symbol><symbol viewBox="0 0 122.4 72.2" id="icon-LatinAmericaFlag"><title>LatinAmericaFlag</title><style>.st5-la{fill-rule:evenodd;clip-rule:evenodd;fill:#fff}</style><path fill="#007934" d="M.7.6h121v71H.7z"/><path d="M121.2 1.1v70H1.2v-70h120m1-1H.2v72h122V.1z" fill="#53565a"/><path fill="#3e4095" d="M1.2 47.8h60v23.3h-60z"/><path fill="#d52b1e" d="M61.2 47.8h60v23.3h-60z"/><path fill="#fcd116" d="M1.2 36.1h120v11.7H1.2z"/><g><path class="st5-la" d="M64.1 13.6c.1.4.8.4 1-.1-.2-.1-.3-.1-.3 0 0 0-.9-.2-.7.1zM36 3.6s0 .1 0 0zM57.9 13.8h.3c-.1-.4-1-.6-1.3-.3.3.4.7.5 1 .3zM60.6 13.1l.2.2c-.3.4-.9 0-1.3 0-.2.6 1.6.1 1.8.7.4-.7.8-.4 1.5-.6.3-.1.2.3.5 0 .2-.4-.4-.5-.7-.5 0-.1.1-.2.3-.1-.1-.1-.2 0-.3 0-.3-.4-1.9-.8-2.3-.3.3 0 .6.2.3.5M53.1 10.9c.1-.1 1.7-.9 2.1-.5-.3.2-.2.2.2.3l.1-.1c.1.2 1.3.5 1.6.7.1 0 .4.4.4.5.3-.1.4 0 .3.3-.1.1-.2.3-.4.4.3 0 2.2.1 2.3-.3.1-.3-.8-.4-1-.4 0-.1 0-.1.1-.1.1-.2-.9-.4-1-.4 0-.1-.1-.1.1-.1-.2-.2-1.4-.5-1.6-.9-.3 0-.7-.1-.9-.2-.5 0-1.1 0-1.5.2-.3.1-.4.5-.8.6 0 .1 0 .1 0 0z"/><path class="st5-la" d="M54.2 11.2c.1 0 .6-.3.1-.3 0 .1 0 .2-.1.3 0-.1 0-.1 0 0zM56.2 25.2s-.1-.1 0 0zM68.6 66.7c-.1-.1-.5-.3-.6-.3v.1c-.8-.3-.2-.1-.4 0 .2 0 .5.2.6.3-.1-.1 0-.2.1-.1s0 .1 0 .1c.2.3.2-.1.3-.1-.2-.2-.1 0 0 0zM71.5 67.9c-.2-.1-.5-.2-.4-.3-.2 0-.6 0-.9-.1.1.1.1.1 0 .2.2.1.4.2.6.2-.5-.3.7 0 .7 0-.1-.1 0 0 0 0zM69.1 67c.1.1.2.1.3.1.1-.3-.6-.3-.7-.3.1.2.3.2.3.2 0-.1 0 0 .1 0s-.1 0 0 0zM65.9 63.9c0-.3-.3-.9-.6-.9-.1.2 0 .3.1.4-.1 0-.1 0-.2.1l.2.2h-.1c0 .2.3.2.4.2-.2-.6 0-.1 0-.3v.2c-.1 0 0 .1.2.1zM64.8 62.5c.2.3.3.4.6.4-.1-.2-.3-.4-.4-.6-.1.2-.1.2-.2.2zM64.9 60c.4.2.5-.2 0-.2v.2zM64.2 59.1c.1-.3.2-.3-.2-.6 0-.1.1-.1.2-.1-.1-.1-.1-.1 0-.1-.1-.3-.2-.2-.5-.3.1.3.1 1.2.5 1.1zM64.6 59.9c.1-.1-.2-.3-.2-.2 0 .2-.1.1-.1.3h-.1c.3.2.4.5.7.5.2.1-.7-.6-.3-.6 0-.1 0 0 0 0zM71.7 67.7c.3-.2-.4-.3-.6-.2.2.1.4.2.6.2zM73.3 28.2c.4-.1.5-.4.4-.7-.2 0-.3.5-.4.7.2-.1 0-.1 0 0zM78.2 29.3c0-.4 0 .1 0 0z"/><path class="st5-la" d="M36.8 7.8c-.1-.2 0-.4-.1-.6-.1 0-.1.1 0 .2-.2-.5-.3-1.2-.5-1.6-.1 0-.5-.7-.5-1.1 0-.4.2-.8.3-1.2.3.3.5.2.7.4.1.1.3.1.1.2-.1.3 0 .6 0 1 0 .3 0 .5.1.3.1.6.3.9.8 1.1-.3.4.5 1.1.5 1.2-.2.1-.1.5 0 .6.2-.1.3.1.6.3-.5.1.2.3.2.5-.1 0 .5 1.5 1 2.1-.1.6-.5.6-.3 1.1.2.8 1.3 1.3 1.9 1.6.4.2.7.5 1.1.7.5.2 1 .5 1.5.7.6.2 2.1-.2 2.2-.3.7.4 1 1.2 1.6 1.6.6.4 1.3.5 1.9.7-.1-.1.8-.3.7.2-.1.1-.1-.1-.2-.1 0 .3.9 1.3.9 1.6.1.3.7 1.6.4.5.4.2 1.3 1.9 1.5 1.5.6-.2 1.1.3 1.2.3.1.5.2.6.7.3-.3-.4-.2-.7.2-.8.2-.5 1.2.3 1.3.4-.8-.3-.2.7.2 1.1.1.2-.1.7-.1.9v1c-.2.4-.9 1.5-.8 1.8-.3.1-.6.6-.8.6-.3.1-.5.9-.4 1.2-.8.2-.4 2.1-.5 2.7-.1.4.3 1 .1 1.1 0 .4 1.1 1.1 1.3 1.5.4.6.7 1.3 1 2 .3.6.6 1.1.9 1.7.3.6.2.9.5 1.4.9 1.2 2.6 1.3 3.6 2.5.6.8 1.4 2.9.7 3.8-.1.3.1.9.2 1.3v2.8c0 .3.1 1.3.2 1.8.2 1 .5 1.7.4 2.8 0 .4-.2 1.9-.4 1.8-.1.4.6 1.4.7 1.9.1.5-.2 1 .4 1.3.2.1.5-.1.8-.1v.1c-.1 0-.2.1-.2.2.2 0 .4.1.4.4-.1-.2-.2-.2-.3-.1.1.2.2.3.2.6v.6c.1.3.4.3.5.6-.1.1-.2.1-.3.2 0 .3.1.4.4.4-.2-.1-.3 0-.5 0 .2.3.3.6.2.8 0-.2 0-.4-.1-.5.1 0-.3.4-.3.3.2-.1.2-.6 0-.6.1.3 0 .4-.5.3.3.2.2.4-.1.5 0 .1.1.2.2.2 0-.1-.1-.2-.1-.1.2-.1.6 0 .7 0 .6.1-.1.5.4.6-.2 0 .5.2-.2 0-.1.2.4.4.5.1.1.2.2.3.4.4-.2-.1-.5-.1-.7-.1.1.3.2.4.5.3-.2.2-.1.5.2.7-.1-.1 0-.3 0-.3 0 .1.1.3.2.4h-.3c0 .1.2.2.3.3-.2 0-.2 0-.3.1.1 0 .7.3.4.2l.2.2c0-.1.1-.2.1-.2 0 .1 0 .2.1.3-.2-.1-.5-.3-.7-.4-.1.1 0 .2.1.2h-.2c.2.2 1.1.5.9.6v.1c.4.2.5.2.9.1 0-.2-.2-.3-.4-.2 0-.1.6.4.6.6 0-.3-.8-.2-1-.2.2.2.4.5.8.4v-.1c.2 0-.1.2-.1.2.4.3.5.1.4-.2 0 0 .8.1.7 0-.1.1-.5.1-.6.1-.3.2.2.5.3.5 0-.5.7-.6.4 0-.1-.2-.2-.3-.4-.1.2.2.7.5.9.3-.3-.6.5-1.2.9-1-.5-.5-.8-.8-.7-1.4 0-.2.8-1.5.8-1.8 0-.6-.6-.5-1-.7-.7-.4-.6-1.4.3-1.3.1-.5-.5-1.2.2-1.5-.4.1-.5 0-.5-.2.3-.2.5.1.8.1.1-.6-.6-.3-1-.6-.2-.2-.4-.9-.2-.8.6.1 1.3.5 1.4-.2.1-.4-.2-.9-.4-1.2.8.4 2.4 0 2.9-.7.7-1.1-.8-1.6-1-2.5.6-.2 1.2.5 1.9.3.6-.2.6-.6.9-1.2.2-.5.6-.9.9-1.4.3-.5.4-1.1.7-1.7.2-.3.4-.4.5-.7.1-.4-.1-.7-.1-1 0-.4-.1-.5 0-1 .3-.9 1.5-1.4 2.2-1.7-.2-.3.5-.3.6-.2-.4.1 1.5-.7 1.6-.7v-.4c.2-.4.4-.8.5-1.2.2-.7.4-1.5.5-2.1.1-.7-.1-1.4 0-2.1v.1c0-.1.1-.4-.1-.4 0-.2.2-.5.2-.7.4.2.3.3.6-.3 0-.1.3-1 .2-.6.2-.2.9-1 .9-1.3.6-.5.6-1.5.5-2.3-.2-1.4-.9-.9-1.8-1.6-.4-.3-.7-.8-1.2-1-.5-.2-1.1-.2-1.6-.3-.6-.1-1.8-.2-1.9-.4.2-.2 0-.4 0-.4-.4-.2-1.8-1-1.8-.7-.3-.1-2.5-.4-2.3-.7.1-.1.6-.7.6-.7 0-.3-.2-.3-.2-.5-.1-.2-.3-.4-.4-.8-.1-.3-.2-1.4-.5-.9 0-.9-.1-.4-.2-.2.1-.3-.2-.3-.2-.3.1-.3-.9-.9-1.2-.4.4-.6-1.1-.6-1.1-.3-.2-.2-.8-.4-.8.1.1-.4-.7-1.5-1-.6.2-.6 0-1.3-.6-1.4-.3-.4-.9 0-1.2-.2.3 0 .4-.3.6-.6-.3-.2-.4-.4-.6-.3.1.2 0 .2-.2-.1-.1.3-.1 0-.3-.2 0 .1-2.1-.2-2.3-.2-.4-.1-1.4.2-1.4-.3-.1-.4-.5-.3-.7-.4-.2-.2-.2-.2-.4-.5-.6.2-1 .8-1.1 1-.1.3.6.8.1 1.1-.2.2-.2.1-.3-.1-.4-.4 0-.4.1-.8 0-.3-.1-.7-.1-.9 0 0 1.1-.9.1-.5-.2.1-.5.4-.7.6-.3.2-1.6.5-1.8 1 .5-.2-.4.7-.4.8-.3.3-.5.4-.4.9-.3-.2-.5-.9-1-1.1-.9-.3-2.2.3-2.1.3-.3 0-.2-.1-.3-.2-.3-.2-.7-.8-.9-1.3-.1-.2.5-2.2.5-2.3 0-.2.1-.9-.2-.9.3.1-.3.2-.3-.1.1-.1.1.1.2.1-.3-.6-1.1-.3-1.6-.3s-1.3-.2-1.5 0c-.1 0 .4-2.1.7-2.3 0 .2 0 .3.1.4.1-.2.5-.8.2-.7 0-.1 1.3-1.8.4-1.7.1 0-1.3-.1-1.8.4s-1 1.5-1 1.7c.1.2-.9.1-1 .2-.3.1-.7.3-1.1.3-.2 0-.2-.5-.7-.4.2.2-.1 0-.1-.1-.1-.1-.9-1.9-.8-2.4.2.2 0-.5.2-1 .2-.7.6-1.3.8-2-1.1-.1-1.1-.5-1.4-1.4 0-.9-.2-1.6-.5-1.9-.3-.1-.6 0-.8.1-.1.1-.2.3-.4.4-.3.1-.5 0-.7-.2-.4-.5-.2-1.2-1-1.6-.2-.1-.7-.2-1-.1 0 .4-1 .4-1.2.4-.5 0-2.8-.6-2.6-1.1-.5 0-1.9-.1-1.4.6 0 .3 0 .8.1 1.1 0 .6-.1.1.2.7.2.4.7.7.2 1.2 0 0 .1.1.1.2.3 0-1.4-.4-.6-.1.2.2.7 1.2 1 .7 0 .2.4.8.4 1 .1.3-.2.3 0 .8.2.4.9.5.9 1.2.8-.2.1-1.2-.1-.9-.1-.2-.1-.8-.2-1M58 9.2h-.1c.1-.1 0-.1-.1 0 .1.1.1.2.1.3h.1v-.3zM57.8 9.1c.2-.1.1-.6-.1-.7 0 .1-.2.3-.2.5h-.1c.1.1.2.1.3.1 0 .1 0 .1.1.1.1-.1 0 0 0 0z"/><path class="st5-la" d="M72.6 67.2c-.5 0-2.4-.9-2.1-1.1-.3-.3-.4-.3-.7-.3-.3 0-.3.2-.6.1.3.2.2.3.8.5-.7.3.1.5.5.7-.2.1-.3 0-.5 0-.5 0-.5-.3-.6-.5-.1.1 0 .1 0 .1h-.1c.1.2.4.4.5.5-.3-.1-.5-.2-.8 0 .7.4 2.9.4 3.7.3.1-.2.1-.3-.1-.3-.6.1.1 0 0 0z"/></g></symbol><symbol viewBox="0 0 122.4 72.2" id="icon-NetherlandsFlag"><title>NetherlandsFlag</title><style>.st0-nl{fill:#fff}</style><path class="st0-nl" d="M.7.6h121v71H.7z"/><path d="M121.2 1.1v70H1.2v-70h120m1-1H.2v72h122V.1z" fill="#53565a"/><path fill="#ae1c28" d="M1.2 1.1h120v23.3H1.2z"/><path class="st0-nl" d="M1.2 24.5h120v23.3H1.2z"/><path fill="#21468b" d="M1.2 47.8h120v23.3H1.2z"/></symbol><symbol viewBox="0 0 122.4 72.2" id="icon-SpanishFlag"><title>SpanishFlag</title><style>.st3-es{fill:#c60b1e}.st4-es{fill:#ad1519}.st5-es{fill:#0044ad}.st6-es{fill:#8e9090}.st7-es{fill:#ca0}</style><g id="SpanishFlag-Layer_1"><path fill="#fff" d="M.7.6h121v71H.7z"/><path d="M121.2 1.1v70H1.2v-70h120m1-1H.2v72h122V.1z" fill="#53565a"/><path fill="#ffc400" d="M121.2 71.1H1.2v-70h120v35z"/><path class="st3-es" d="M1.2 53.6h120v17.5H1.2zM1.2 1.1h120v17.5H1.2z"/><path class="st4-es" d="M56.5 39.8c-.1.5-1.5.5-1.5.5s-2.5.2-3.2.7l.2-1.3c.7-.5 3.2-.5 3.2-.5s1.5 0 1.8-.6l-.5 1.2zM29.7 39.8c.1.5 1.5.5 1.5.5s2.5.2 3.2.7l-.2-1.3c-.7-.5-3.2-.5-3.2-.5s-1.5 0-1.8-.6l.5 1.2z"/><path class="st5-es" d="M56.4 48c-.3 0-.4-.1-.6-.1-.1-.1-.3-.1-.6-.1h-.3c-.1 0-.2.1-.2.1-.1.1-.3.1-.6.1s-.4-.1-.6-.1c-.1-.1-.3-.1-.6-.1s-.4.1-.6.1c0 .1-.2.1-.5.1V49.7c.3 0 .5-.1.6-.1.1-.1.3-.1.5-.1.3 0 .4.1.6.1.1.1.3.1.6.1s.5-.1.6-.1c.1-.1.3-.1.5-.1.3 0 .4.1.5.1.1.1.3.1.6.1v-1.3l.1-.4zM34.4 48c-.3 0-.4-.1-.6-.1-.1-.1-.3-.1-.6-.1s-.5.1-.6.1c-.1.1-.2.1-.5.1s-.5-.1-.6-.1c-.1 0-.1-.1-.2-.1H31c-.3 0-.4.1-.6.1-.2.1-.3.1-.6.1V49.7c.3 0 .5-.1.6-.1.1-.1.3-.1.5-.1.3 0 .4.1.5.1.1.1.3.1.6.1s.4-.1.6-.1c.1-.1.3-.1.6-.1s.4.1.5.1c.1.1.3.1.6.1v-1.3l.1-.4z"/><path class="st4-es" d="M56.6 43.8c-.2.2-.7.5-.6.9-.9-.9.2-1.5.7-1.9l-.1 1z"/><path class="st4-es" d="M56.6 43.8c-.2-.5-1.5-.9-2.2-1.2-.8-.3-2.1-.9-2.6-1.6l.2-1.3c-.1.4 1.7 1.3 2.5 1.7.8.4 2.2.8 2.3 1.2l-.2 1.2zM29.6 43.8c.2.2.7.5.6.9.9-.9-.2-1.5-.7-1.9l.1 1z"/><path class="st4-es" d="M29.6 43.8c.2-.5 1.5-.9 2.2-1.2.8-.3 2.1-.9 2.6-1.6l-.2-1.3c.1.4-1.7 1.3-2.5 1.7-.8.4-2.2.8-2.3 1.2l.2 1.2z"/><path class="st6-es" d="M43.1 40.7h-7.4v5c0 1.5.8 2.7 2.6 3.4 1.2.5 2.8 1 4.8 1 2.1 0 3.6-.5 4.8-1 1.8-.8 2.6-1.9 2.6-3.4v-5h-7.4z"/><path class="st4-es" d="M46.8 40.7h-3.7v4.9c0 .7.2 1.4.6 2 .4.6 1 1 1.9 1.4.4.1.7.2 1.1.2.4 0 .8-.1 1.1-.2 1-.4 1.5-.8 1.9-1.4.4-.6.6-1.2.6-2v-3.2-1.7h-3.5z"/><path class="st7-es" d="M44.1 41.9v.9h.2v-.9h-.1z"/><path d="M44.3 42.9H44v-1h.3v1zm-.2-.1h.2v-.9h-.2v.9z"/><path class="st7-es" d="M44.5 41.7h.8v-.2h-.8v.1z"/><path d="M45.3 41.8h-.8v-.3h.8v.3zm-.8-.1h.8v-.2h-.8v.2z"/><path class="st7-es" d="M39.4 40.7h-3.7v4.9c0 .7.2 1.4.6 2 .4.6 1 1 1.9 1.4.4.1.7.2 1.1.2.4 0 .8-.1 1.1-.2 1-.4 1.5-.8 1.9-1.4.4-.6.6-1.2.6-2v-3.2-1.7h-3.5z"/><path class="st4-es" d="M36.5 40.7v7.2c.2.2.5.4.8.6v-7.9h-.8zM38.2 40.7V49h.1c.2.1.5.1.7.1v-8.5h-.8zM39.8 40.7v8.5c.2 0 .5-.1.7-.1h.1v-8.3h-.8zM41.5 40.7v7.9c.3-.2.6-.4.8-.6v-7.2h-.8z"/><path class="st6-es" d="M30.9 34.4h2.4v11.8h-2.4zM52.9 34.4h2.4v11.8h-2.4z"/><path class="st4-es" d="M56.5 39.8c0-.6-1.5-1.2-2.8-1.3-.8-.1-2.6 0-3.3.4-.6.4-1-1.1-.1-1.5 1-.4 2.9-.4 3.7-.3 1.2.2 3 .7 2.9 1.5l-.4 1.2z"/><path class="st6-es" d="M43.1 32.5h7.4v8.2h-7.4z"/><path class="st7-es" d="M55.8 32.6h-3.3v.9h.2v.8h2.8v-.8h.3zM33.7 32.6h-3.2v.9h.2v.8h2.8v-.8h.2z"/><path class="st4-es" d="M29.7 39.8c0-.6 1.5-1.2 2.8-1.3.8-.1 2.6 0 3.3.4.6.4 1-1.1.1-1.5-1-.4-2.9-.4-3.7-.3-1.2.2-3 .7-2.9 1.5l.4 1.2z"/><path class="st7-es" d="M33.5 47v-.7h-2.8v.7h-.2v.9h3.2V47z"/><path d="M49.6 33.6c-.2.1-.6.2-.7.1-.6 0-.1 2.4-.1 2.6-.3 1-1 1.2-1.3-.3.3.4 0-1.1.7-.4-.2-.7-.2-2.6-1.6-1.8.1 0 0 1.1 0 1.1.2.8-2.1-.7-2.2-.7-.3 0 .4 1 .2 1.1 1.4.2.8.4 1.1.7-.4.5-1.2.1-1.1.8 0 .5.8-.1 1 .2.3-.4.4-.3.8-.5.2.4.4.7.8.8-.4.1-.6 1.2-.8 1.2-.1-.1-.3-.2-.4-.4.1 0-.5.5-.4.4-.2.3.9.5 1.2.4.6-.2-.1-.9.7-.9-.1.4.5.9.5.7 0 .1-.2 1.2.1 1.1-.1 0 .6-.2.5-.1.2-.3 0-1.8-.1-1.8-.1.1.6-.7.7-1 .3-1-.6-1.7.5-2.6-.7-.1-.1-.3-.1-.7 0 0 0 .4 0 0zm-4.6 1zm3.4 4.4s0 .1 0 0c0 .1 0 0 0 0z" fill="#ed72aa"/><path class="st4-es" d="M35.7 32.5h7.4v8.2h-7.4z"/><path class="st7-es" d="M55.5 47v-.7h-2.7v.7h-.3v.9h3.3V47z"/><ellipse class="st4-es" cx="32.1" cy="31.5" rx="1.7" ry=".7"/><path class="st7-es" d="M32.9 30.9s-.6 1-.4 1c-.3 0-.2-1.4-.3-1.7-.2.3 0 1.7-.3 1.7.1 0-.6-1.8-.9-1-.1.3.9.9.2 1.1 0 .7.4.6 1 .6s1 .1 1-.6c-.4 0-.2-.2-.2-.5 0 .1.6-1.2-.1-.6-.5.5.3-.2 0 0z"/><ellipse class="st4-es" cx="43.1" cy="28.6" rx="7.2" ry="2.6"/><path class="st7-es" d="M50.3 29.3c.9-.9.9-2.1.9-2.1-.8-1.8-2.1-2.5-4-2.1-1.2-.9-2.5-1.1-3.9-.6v-1.6h.4v-.3h-.4v-.3H43v.3h-.4v.3h.4v1.6c-1.4-.5-2.7-.3-3.9.6-1.9-.4-3.3.3-4 2.1.2 1.7 1.2 2.8 2.9 3.4h.3c-.2 0-.3.1-.3.1l.5 1.4c3.2.7 6.3.7 9.4-.1l.5-1.3s-.1 0-.3-.1h.2c.1-.1 1.2-.4 2-1.3.9-.9-.8.9 0 0zm-6.9-1.9l.7-.4c-.4-.5-.5-1.1-.4-1.7 2-.5 3.1.1 2.5 1.9l.3.5c-1.2 2.7-2.3 2.3-3.1-.3zm-2.5-2.5c.7-.2 1.6.3 1.6.3.1.6-.1 1.2-.4 1.7l.7.4c-.8 2.8-1.9 2.9-3.1.2l.3-.5c-1-.8-.7-1.5.9-2.1.7-.2-.8.2 0 0zM37.3 30c-.3-.2-1.3-1.5-1.3-1.5l.4-.6c-.6-1.7.4-2.4 2.4-2.2-1.3 2.1 2.5 2.9-.4 4-.1.6-.5.7-1.1.3zm10.7.1c-.1-.3-.2-.4-.2-.4-2.9-1 .8-2-.4-4 2-.2 3 .5 2.4 2.2l.4.6c-.4 1.1-1.2 1.6-2.2 1.6z"/><ellipse class="st4-es" cx="54.1" cy="31.8" rx="1.5" ry=".6"/><path class="st7-es" d="M55.7 31.9c.2-.2.2-.4.2-.4-.4-.4-1.1-.8-1.7-.6v-.4h.1v-.1h-.1v-.1h-.1v.1H54v.1h.1v.4c-.6-.2-1.3.2-1.7.6.1.4.3.6.7.7H53l.1.3c.7.1 1.3.1 2 0l.1-.3h-.1c.3 0 .4-.1.6-.3zm-.7-.8c.5 0 .7.2.6.6-.2.3-.3.4-.5.2-.4 0 0-.7-.1-.8zm-.8.4s0-.3.1-.5c.4-.1.7 0 .5.4-.2.7-.4.7-.6.1zm-.6-.5c.2 0 .4.1.4.1 0 .1.1.5.1.5-.3.6-.5.6-.6-.1-.3-.3-.2-.4.1-.5zm-1 .7c0-.4.1-.6.6-.6-.3.4.5.6-.1.9 0 .1-.5-.3-.5-.3zM41.3 38.6v-3.2h-.5v-.6l.3-.6h-1.2l.3.6v.6h-.5V34h.3v-.5h-1.2v.5h.3v1.4h-.4v-.6l.2-.6h-1.1l.3.6v.6h-.6v3.2h-.3v1.1h4.4v-1.1zM46.8 41.7H44v3.7c0 .6.1 1.1.5 1.5.3.4.7.8 1.5 1 .3.1.5.1.9.1.3 0 .6 0 .9-.1.7-.3 1.2-.6 1.5-1 .3-.4.5-.9.5-1.5V43v-1.3h-3zm2.1 1.8v.6h-1.7v-1.6h1.7v1zm-4.2-1h1.7v1.6h-1.7v-.6-1zm.3 4c-.2-.3-.3-.7-.3-1.1v-.5h1.7v2.5c-.1 0-.2 0-.3-.1-.5-.2-.8-.5-1.1-.8zm3.6 0c-.2.3-.6.6-1.1.8-.1 0-.2 0-.3.1v-2.5h1.7v.5c0 .4-.1.8-.3 1.1z"/><ellipse class="st5-es" cx="43.1" cy="40.7" rx="2.4" ry="2.7"/><path class="st7-es" d="M43.4 41.7c.2.2.3.1.2-.2-.1-.2-.2-.2-.4-.1.1-.3.1-.5-.1-.8-.2.2-.2.5-.1.8-.2-.2-.3-.1-.4.1-.1.6.4-.1.4.4-.3 0-.1.1-.1.4.8 0 .3-.6.5-.6 0 0-.1 0 0 0zM44.2 40.3c.2.2.3.1.2-.2-.1-.2-.2-.2-.4-.1.1-.3.1-.5-.1-.8-.2.2-.2.5-.1.8-.2-.2-.3-.1-.4.1-.1.6.4-.1.4.4-.3 0-.1.1-.1.4.8 0 .3-.6.5-.6 0 0-.1 0 0 0zM42.6 40.3c.2.2.3.1.2-.2-.1-.2-.2-.2-.4-.1.1-.3.1-.5-.1-.8-.2.2-.2.5-.1.8-.2-.2-.3-.1-.4.1-.1.6.4-.1.4.4-.3 0-.1.1-.1.4.8 0 .3-.6.5-.6.1 0-.1 0 0 0z"/></g></symbol><symbol viewBox="0 0 122.4 72.2" id="icon-TurkishFlag"><title>TurkishFlag</title><style>.st0-tr{fill:#fff}</style><path class="st0-tr" d="M.7.6h121v71H.7z"/><path d="M121.2 1.1v70H1.2v-70h120m1-1H.2v72h122V.1z" fill="#53565a"/><path fill="#e30a17" d="M1.2 1.1h120v70H1.2z"/><g><path class="st0-tr" d="M43.3 50.4C35.4 50.4 29 44 29 36.1s6.4-14.3 14.4-14.3c4.4 0 8.4 2 11.1 5.2-3.1-5.2-8.9-8.7-15.4-8.7-9.9 0-17.9 8-17.9 17.9 0 9.9 8 17.8 17.9 17.8 6.6 0 12.3-3.5 15.4-8.7-2.8 3.1-6.7 5.1-11.2 5.1z"/><path class="st0-tr" d="M58.9 44.4l4-5.2 6 2.1-3.7-5.2L69 31l-6 1.8-3.7-5.1-.4 6.4-6 1.9 6.2 2"/></g></symbol></svg>