<svg xmlns="http://www.w3.org/2000/svg"><symbol viewBox="0 0 24 24" id="icon-bond-etch"><title>bond-etch</title><g id="bond-etch-Icons-exports" fill="none" fill-rule="evenodd"><g id="bond-etch-bond-etch"><g id="bond-etch-Icon/Product/BondEtch/16x16/Hover"><path d="M12 0C5.383 0 0 5.383 0 12s5.383 12 12 12 12-5.383 12-12S18.617 0 12 0" id="bond-etch-outer" fill="#5F8FB4"/><path d="M15.81 5.444c-.054.01-1.254.246-2.598.818 1.606 1.125 2.453 2.553 2.453 4.147 0 2.17-1.19 3.274-2.67 4.335 1.332 1.025 2.515 2.339 2.515 4.763a.192.192 0 0 1-.193.191h-.777a.192.192 0 0 1-.192-.191c0-2.125-1.098-3.146-2.348-4.056-1.25.91-2.348 1.93-2.348 4.056a.192.192 0 0 1-.192.191h-.776a.192.192 0 0 1-.192-.191c0-2.424 1.183-3.738 2.515-4.763-1.48-1.061-2.67-2.166-2.67-4.335 0-1.596.847-3.023 2.452-4.147a14.245 14.245 0 0 0-2.6-.818.191.191 0 0 1-.152-.224l.142-.763a.192.192 0 0 1 .223-.154c.184.035 1.842.36 3.546 1.212l.053.027c.017-.01.033-.017.05-.026 1.75-.875 3.475-1.2 3.548-1.213a.194.194 0 0 1 .224.155l.14.763a.192.192 0 0 1-.153.223zm-6.314 4.965c0 1.826 1.097 2.63 2.504 3.619 1.407-.987 2.504-1.792 2.504-3.619 0-1.38-.843-2.57-2.504-3.542-1.66.973-2.504 2.163-2.504 3.542z" id="bond-etch-shape" fill="#FFF"/></g></g></g></symbol><symbol viewBox="0 0 24 24" id="icon-composites"><title>composites</title><g id="composites-Icons-exports" fill="none" fill-rule="evenodd"><g id="composites-composites"><g id="composites-Icon/Product/Composites/16x16/Hover"><path d="M12 0C5.383 0 0 5.383 0 12c0 6.616 5.383 12 12 12s12-5.384 12-12c0-6.617-5.383-12-12-12z" id="composites-outer" fill="#C6893F"/><path d="M16.824 14.654l-.962 3.958-.726 2.526s-.553 1.282-.902.09c-.348-1.192-.44-4.523-.553-5.53-.113-1.01-.697-1.736-.697-1.736l-1.976.028s-.576.743-.689 1.752c-.113 1.008-.204 4.34-.553 5.531-.348 1.192-.9-.09-.9-.09l-.728-2.525-.96-3.959s-1.69-2.036-1.638-4.868C5.59 7 7.136 6.126 7.136 6.126l.06-.055.095.038 2.138.564.012 3.562c-.116.353-.632 2.048-.673 4.438-.043 2.636.49 6.705.51 6.855v.007a.103.103 0 0 0 .113.089.103.103 0 0 0 .093-.11c-.001-.016-.114-1.632-.248-5.54-.132-3.866 1.112-5.677 1.125-5.695.006-.008.007-.02.01-.03h3.292c.19.305 1.214 2.115 1.094 5.645-.137 3.906-.25 5.522-.25 5.538a.103.103 0 0 0 .204.021c.006-.041.555-4.189.511-6.861-.038-2.295-.516-3.947-.658-4.388l.004-3.525 2.21-.57.088-.028s1.545.872 1.596 3.704c.051 2.833-1.638 4.87-1.638 4.87zM9.45 2.706l2.532.597 2.587-.552v3.912l-2.587-.213-2.537.198.005-3.942z" id="composites-shape" fill="#FFF"/></g></g></g></symbol><symbol viewBox="0 0 24 24" id="icon-crown-bridge"><title>crown-bridge</title><g id="crown-bridge-Icons-exports" fill="none" fill-rule="evenodd"><g id="crown-bridge-crown-bridge"><g id="crown-bridge-Icon/Product/CrownBridge/16x16/Hover"><path d="M12 0C5.373 0 0 5.373 0 12s5.373 12 12 12 12-5.373 12-12S18.627 0 12 0z" id="crown-bridge-outer" fill="#EED484"/><path d="M18.36 10.627c.001-.05.009-.096.009-.145l-.001-.117c-.055-2.84-1.67-3.786-1.74-3.823l-.229-.13-.252.074-1.494.42-2.565.638-2.297-.519-1.812-.518-.207-.059-.267.07-.106.043-.035.02c-.068.039-1.684.987-1.735 3.826l-.002.13c0 .03.006.059.006.09H2.688c.638-4.573 4.564-8.107 9.313-8.107 4.743 0 8.672 3.534 9.31 8.107h-2.95zm-2.074 5.989l-.856 3.516-.34 1.137s-.798.675-1.107-.386c-.31-1.059-.389-2.446-.49-3.34a3.282 3.282 0 0 0-.62-1.545l-1.76.027s-.51.657-.612 1.556c-.098.897-.184 2.284-.492 3.344C9.7 21.985 8.807 21 8.807 21l-.246-.825-.852-3.52s-1.504-1.81-1.457-4.329c.046-2.517 1.42-3.294 1.42-3.294l.068-.029.067.012 1.846.528V9.54l2.442.552 2.727-.68 1.422-.398.078-.023s1.373.775 1.422 3.291c.042 2.521-1.458 4.334-1.458 4.334z" id="crown-bridge-shape" fill="#FFF"/></g></g></g></symbol><symbol viewBox="0 0 24 24" id="icon-endodontics"><title>endodontics</title><g id="endodontics-Icons-exports" fill="none" fill-rule="evenodd"><g id="endodontics-endodontics"><g id="endodontics-Icon/Product/Endodontics/16x16/Hover"><path d="M12 0C5.383 0 0 5.383 0 12s5.383 12 12 12c6.616 0 12-5.383 12-12S18.616 0 12 0" id="endodontics-outer" fill="#115E67"/><path d="M16.824 14.655l-.962 3.957-.726 2.526s-.553 1.282-.902.09c-.348-1.192-.44-4.523-.553-5.53a3.703 3.703 0 0 0-.697-1.736l-1.977.028s-.575.743-.688 1.751c-.113 1.01-.203 4.34-.553 5.532-.348 1.192-.9-.09-.9-.09l-.728-2.526-.96-3.958s-1.69-2.036-1.639-4.868c.05-2.833 1.597-3.705 1.597-3.705l.059-.055.096.037 2.138.564.012 3.563c-.116.354-.632 2.049-.673 4.439-.044 2.635.49 6.704.51 6.854v.007a.105.105 0 0 0 .113.089.105.105 0 0 0 .093-.11c0-.016-.115-1.631-.249-5.54-.132-3.866 1.113-5.677 1.126-5.695.006-.008.007-.02.01-.03h3.292c.19.306 1.213 2.117 1.093 5.645-.136 3.906-.249 5.522-.25 5.538a.103.103 0 1 0 .206.015c.02-.15.554-4.219.51-6.855-.038-2.294-.516-3.947-.658-4.388l.004-3.525 2.21-.57.088-.029s1.545.873 1.597 3.705c.05 2.833-1.64 4.87-1.64 4.87" fill="#FFF"/></g></g></g></symbol><symbol viewBox="0 0 24 24" id="icon-equipment"><title>equipment</title><g id="equipment-Icons-exports" fill="none" fill-rule="evenodd"><g id="equipment-equipment"><g id="equipment-Icon/Product/Equipment/16x16/Hover"><path d="M23.323 8.031a11.918 11.918 0 0 0-6.123-6.84A11.918 11.918 0 0 0 8.033.681a11.916 11.916 0 0 0-6.842 6.122 11.92 11.92 0 0 0-.509 9.17c2.19 6.241 9.05 9.538 15.292 7.35 6.241-2.19 9.538-9.05 7.35-15.293z" id="equipment-outer" fill="#333F48"/><path d="M19.115 14.615a7.562 7.562 0 0 1-.63 1.31l-1.53-.44c-.224.32-.48.619-.764.89l.662 1.44c-.369.31-.77.583-1.204.821l-1.096-1.139a6.086 6.086 0 0 1-1.109.39l-.145 1.573a7.367 7.367 0 0 1-1.454.11l-.38-1.538a5.98 5.98 0 0 1-1.154-.216l-.92 1.3a7.64 7.64 0 0 1-1.31-.63l.44-1.53a6.04 6.04 0 0 1-.89-.765l-1.438.662a7.183 7.183 0 0 1-.821-1.204l1.137-1.096a5.632 5.632 0 0 1-.222-.544 5.478 5.478 0 0 1-.167-.565l-1.574-.146a7.574 7.574 0 0 1-.111-1.454l1.537-.38c.036-.393.11-.779.22-1.154l-1.3-.919c.168-.457.378-.896.63-1.31l1.53.44c.224-.32.48-.618.764-.891l-.662-1.44c.367-.308.77-.584 1.203-.82l1.096 1.138a5.883 5.883 0 0 1 1.11-.39l.144-1.572a7.436 7.436 0 0 1 1.455-.113l.38 1.538c.394.038.78.11 1.152.218l.92-1.298c.458.166.897.378 1.312.629l-.441 1.53c.32.226.618.48.891.765l1.437-.664c.31.37.586.773.824 1.206l-1.14 1.095c.082.176.158.357.224.546.066.187.12.376.167.564l1.573.145a7.4 7.4 0 0 1 .11 1.453l-1.537.383a6.045 6.045 0 0 1-.219 1.152l1.3.92zM11.22 9.768a2.366 2.366 0 0 0-1.45 3.019 2.363 2.363 0 0 0 3.015 1.449 2.363 2.363 0 0 0 1.452-3.016 2.364 2.364 0 0 0-3.017-1.452z" fill="#FFF"/></g></g></g></symbol><symbol viewBox="0 0 24 24" id="icon-finish"><title>finish</title><g id="finish-Icons-exports" fill="none" fill-rule="evenodd"><g id="finish-finish"><g id="finish-Icon/Product/Finish/16x16/Hover"><path d="M12 0C5.383 0 0 5.383 0 12s5.383 12 12 12 12-5.383 12-12S18.617 0 12 0" id="finish-outer" fill="#CB6015"/><path d="M19.313 12.367l-5.91.5 2.194 5.51a.148.148 0 0 1-.258.139l-3.388-4.867-3.676 4.654a.147.147 0 0 1-.249-.154l2.522-5.368-5.87-.855a.149.149 0 0 1-.126-.151.149.149 0 0 1 .136-.143l5.91-.5-2.193-5.509a.148.148 0 0 1 .067-.185.148.148 0 0 1 .192.046l3.386 4.868 3.674-4.655a.147.147 0 1 1 .25.155l-2.521 5.367 5.868.855a.148.148 0 0 1-.008.293" id="finish-shape" fill="#FFF"/></g></g></g></symbol><symbol viewBox="0 0 24 24" id="icon-impressions"><title>impressions</title><g id="impressions-Icons-exports" fill="none" fill-rule="evenodd"><g id="impressions-impressions"><g id="impressions-Icon/Product/Impressions/16x16/Hover"><path d="M12 0C5.383 0 0 5.383 0 12s5.383 12 12 12 12-5.383 12-12S18.617 0 12 0" id="impressions-outer" fill="#702F8A"/><path d="M19.17 17.574c-.24.077-.489.157-.733.271-.449.21-.947.322-1.441.322-1.188 0-2.017-.633-2.017-1.54 0-2.302-1.37-4.322-2.933-4.322-1.562 0-2.932 2.02-2.932 4.322 0 .867-.827 1.449-2.058 1.449-.637 0-1.29-.158-1.84-.446-.233-.122-.455-.195-.67-.267-.684-.226-1.275-.422-1.275-2.012 0-3.593 2.275-6.887 5.66-8.195.322-.124.698-.175 1.12-.161V4.571c0-.742.604-1.346 1.347-1.346h1.54c.743 0 1.348.604 1.348 1.346v2.437c.356.01.656.067.934.177 3.35 1.33 5.6 4.611 5.6 8.166 0 1.692-.802 1.95-1.65 2.223zm-7-11.498a.667.667 0 1 0-.667-.668c-.001.37.297.668.666.668z" id="impressions-shape" fill="#FFF"/></g></g></g></symbol><symbol viewBox="0 0 24 24" id="icon-orthodontics"><title>orthodontics</title><g id="orthodontics-Icons-exports" fill="none" fill-rule="evenodd"><g id="orthodontics-orthodontics"><g id="orthodontics-Icon/Product/Orthodontics/16x16/Hover"><path d="M12 0C5.382 0 0 5.383 0 12c0 6.616 5.383 12 12 12 6.616 0 12-5.384 12-12 0-6.617-5.384-12-12-12" id="orthodontics-outer" fill="#005EB8"/><path d="M18.149 16.872s-2.636 1.938-6.136 1.94l-.04-.002c-3.5-.002-6.136-1.954-6.136-1.954s-.082-1.71.02-3.76h3.795v.198c0 1.241.997 2.248 2.228 2.248a2.238 2.238 0 0 0 2.228-2.248v-.199h4.02c.103 2.057.021 3.777.021 3.777zM7.742 6.406c2.335-1.475 4.236-1.376 4.236-1.376h.017s1.913-.083 4.249 1.391c1.193.755 1.663 3.464 1.84 5.936h-3.976v-1.26c0-1.243-.997-2.25-2.228-2.25a2.238 2.238 0 0 0-2.228 2.25v1.26h-3.75c.175-2.476.645-5.196 1.84-5.95z" id="orthodontics-shape" fill="#FFF"/></g></g></g></symbol><symbol viewBox="0 0 24 24" id="icon-prepare"><title>prepare</title><g id="prepare-Icons-exports" fill="none" fill-rule="evenodd"><g id="prepare-prepare"><g id="prepare-Icon/Product/Prepare/16x16/Hover"><path d="M12 0C5.383 0 0 5.383 0 12s5.383 12 12 12c6.616 0 12-5.383 12-12S18.616 0 12 0" id="prepare-outer" fill="#7E5475"/><path d="M16.862 13.709l-.963 3.957-.725 2.526s-.553 1.282-.902.09-.44-4.523-.553-5.53c-.113-1.01-.698-1.736-.698-1.736l-1.976.028s-.575.743-.688 1.752c-.113 1.009-.204 4.34-.553 5.531-.348 1.192-.9-.09-.9-.09l-.728-2.525-.96-3.959s-1.69-2.036-1.64-4.868c.05-2.832 1.598-3.705 1.598-3.705l.059-.055.095.038 4.691 1.236 4.797-1.236.087-.029s1.546.873 1.597 3.705c.051 2.832-1.638 4.87-1.638 4.87" id="prepare-shape" fill="#FFF"/></g></g></g></symbol><symbol viewBox="0 0 24 24" id="icon-prevent-hygiene"><title>prevent-hygiene</title><g id="prevent-hygiene-Icons-exports" fill="none" fill-rule="evenodd"><g id="prevent-hygiene-prevent-hygiene"><g id="prevent-hygiene-Icon/Product/Prevent/16x16/Hover"><path d="M12 0C5.383 0 0 5.384 0 12c0 6.617 5.383 12 12 12s12-5.383 12-12c0-6.616-5.383-12-12-12" id="prevent-hygiene-outer" fill="#6FA287"/><path d="M12.002 20.72S5.47 16.938 5.47 12.952c0-1.186.261-2.014.72-7.339.639.356 1.532.579 2.52.579 1.264 0 2.363-.363 2.986-.906h.265c.62.543 1.721.906 2.982.906 1.173 0 2.208-.313 2.85-.79.47 5.468.735 6.349.735 7.55 0 3.986-6.527 7.768-6.527 7.768zm2.863-12.546l-.048.015-2.715.76-2.662-.76-.003.038-.084-.027s-.878.495-.909 2.1c-.026 1.605.93 2.759.93 2.759L9.92 15.3l.413 1.433s.311.725.51.052c.198-.677.25-2.565.312-3.137.064-.57.391-.992.391-.992l1.12-.016s.331.412.395.983c.065.57.117 2.46.313 3.135.197.674.51-.05.51-.05l.413-1.432.545-2.245s.957-1.153.928-2.757c-.03-1.606-.905-2.101-.905-2.101z" id="prevent-hygiene-shape" fill="#FFF"/></g></g></g></symbol><symbol viewBox="0 0 24 24" id="icon-tips-syringes"><title>tips-syringes</title><g id="tips-syringes-Icons-exports" fill="none" fill-rule="evenodd"><g id="tips-syringes-tips-syringes"><g id="tips-syringes-Icon/Product/Tips/16x16/Hover"><path d="M12 0C5.383 0 0 5.384 0 12.001c0 6.617 5.383 12 12 12s12-5.383 12-12-5.383-12-12-12z" id="tips-syringes-outer" fill="#63666A"/><path d="M16.025 16.67a.932.932 0 1 1-1.318-1.318l2.19-2.19H7.568c-.551 0-.998-.417-.998-.931 0-.515.447-.932.998-.932h9.329l-2.19-2.19a.932.932 0 1 1 1.318-1.319l4.44 4.44-4.44 4.44zm-1.745 1.758l-1.838 1.837a.528.528 0 1 1-.747-.747l.663-.662H8.842a.543.543 0 0 1-.555-.529c0-.29.25-.528.555-.528h3.516l-.663-.662a.526.526 0 0 1 0-.747.528.528 0 0 1 .747 0l1.838 1.836.1.101-.1.101zM5.277 6.233c0-.34.295-.615.659-.615h6.151l-1.444-1.444a.614.614 0 1 1 .87-.869l2.927 2.928-2.928 2.927a.615.615 0 0 1-.87-.869l1.445-1.444H5.936c-.364 0-.659-.274-.659-.614z" id="tips-syringes-shape" fill="#FFF"/></g></g></g></symbol><symbol viewBox="0 0 24 24" id="icon-tissue-management"><title>tissue-management</title><g id="tissue-management-Icons-exports" fill="none" fill-rule="evenodd"><g id="tissue-management-tissue-management"><g id="tissue-management-Icon/Product/TissueManagement/16x16/Hover"><path d="M12 0C5.383 0 0 5.383 0 12s5.383 12 12 12 12-5.383 12-12S18.617 0 12 0" id="tissue-management-outer" fill="#BE3A34"/><path d="M14.986 17.105c-.832.822-1.829 1.233-2.99 1.233-1.156 0-2.15-.411-2.981-1.233-.832-.822-1.247-1.807-1.247-2.955 0-1.039.465-2.078 1.397-3.118l.31-.342c.714-.805 1.245-1.552 1.594-2.244.35-.691.657-1.618.927-2.784.275 1.166.585 2.093.935 2.784.35.692.88 1.439 1.595 2.244l.31.342c.931 1.04 1.398 2.08 1.398 3.118 0 1.148-.416 2.133-1.248 2.955" id="tissue-management-shape" fill="#FFF"/></g></g></g></symbol><symbol viewBox="0 0 24 24" id="icon-tooth-whitening"><title>tooth-whitening</title><g id="tooth-whitening-Icons-exports" fill="none" fill-rule="evenodd"><g id="tooth-whitening-tooth-whitening"><g id="tooth-whitening-Icon/Product/Whitening/16x16/Hover"><path d="M11.998 0C5.382 0 0 5.383 0 11.998c0 6.617 5.382 11.999 11.998 11.999s11.999-5.382 11.999-11.999C23.997 5.383 18.614 0 11.998 0" id="tooth-whitening-outer" fill="#62B5E5"/><path d="M19.173 15.679l-.397.686a.104.104 0 0 1-.142.038l-2.02-1.167v2.328a.104.104 0 0 1-.104.104h-.785a.104.104 0 0 1-.103-.104v-2.897l-3.127-1.803v3.593l2.537 1.452a.103.103 0 0 1 .038.141l-.4.688a.103.103 0 0 1-.14.038l-2.035-1.157v2.323a.104.104 0 0 1-.104.104h-.785a.104.104 0 0 1-.103-.104V17.62l-2.02 1.156a.104.104 0 0 1-.141-.039l-.397-.687a.104.104 0 0 1 .038-.14l2.52-1.453v-3.592l-3.104 1.801v2.898a.104.104 0 0 1-.103.104h-.809a.104.104 0 0 1-.103-.104v-2.328l-2.021 1.167a.104.104 0 0 1-.142-.038l-.397-.686a.102.102 0 0 1-.01-.079.106.106 0 0 1 .047-.063l2.02-1.166-2.02-1.155a.104.104 0 0 1-.038-.141l.398-.699a.105.105 0 0 1 .063-.048.104.104 0 0 1 .078.01l2.523 1.452 3.117-1.792-3.117-1.79-2.523 1.441a.104.104 0 0 1-.141-.038l-.398-.688a.104.104 0 0 1 .039-.141l2.02-1.156-2.02-1.166a.104.104 0 0 1-.038-.142l.397-.687a.103.103 0 0 1 .141-.038L7.384 8.75V6.433c0-.057.046-.104.103-.104h.809c.057 0 .103.047.103.104v2.898l3.104 1.802V7.529L8.995 6.087a.103.103 0 0 1-.039-.14l.395-.698a.103.103 0 0 1 .142-.038l2.01 1.165V4.055c0-.057.046-.104.103-.104h.785c.057 0 .104.047.104.104v2.322l2.025-1.166a.103.103 0 0 1 .141.038l.4.697a.103.103 0 0 1-.039.141L12.495 7.53v3.604l3.127-1.802V6.433c0-.057.046-.104.103-.104h.785c.057 0 .103.047.103.104V8.75l2.012-1.157a.103.103 0 0 1 .14.037l.408.687a.103.103 0 0 1-.037.143l-2.011 1.166 2.01 1.156a.105.105 0 0 1 .049.062.102.102 0 0 1-.01.08l-.398.687a.104.104 0 0 1-.141.038l-2.519-1.442L12.998 12l3.118 1.791 2.508-1.452a.104.104 0 0 1 .142.038l.407.698a.102.102 0 0 1-.038.142l-2.01 1.155 2.01 1.166c.05.029.067.093.038.142" id="tooth-whitening-shape" fill="#FFF"/></g></g></g></symbol><symbol viewBox="0 0 24 24" id="icon-triodent"><title>triodent</title><g id="triodent-Icons-exports" fill="none" fill-rule="evenodd"><g id="triodent-triodent"><g id="triodent-Icon/Product/Triodent/16x16/Hover"><path d="M12 0C5.382 0 0 5.383 0 12c0 6.616 5.383 12 12 12 6.616 0 12-5.384 12-12 0-6.617-5.384-12-12-12" id="triodent-outer" fill="#9FC35C"/><path d="M19.182 17.543a1.317 1.317 0 1 1-.019-2.634 1.317 1.317 0 0 1 .02 2.634zm-3.123-4.387a1.317 1.317 0 1 1 2.635-.018 1.317 1.317 0 0 1-2.635.018zm-.403 4.364a1.317 1.317 0 1 1-.02-2.634 1.317 1.317 0 0 1 .02 2.634zm-3.123-4.385a1.317 1.317 0 1 1 2.634-.02 1.317 1.317 0 0 1-2.634.02zm-.423 4.408a1.317 1.317 0 1 1-.019-2.634 1.317 1.317 0 0 1 .019 2.634zM8.99 13.16a1.317 1.317 0 1 1 2.633-.019 1.317 1.317 0 0 1-2.634.019zm-.41 4.382a1.317 1.317 0 1 1-.019-2.634 1.317 1.317 0 0 1 .02 2.634zm-3.136-4.41a1.317 1.317 0 1 1 2.634-.018 1.317 1.317 0 0 1-2.634.019zm-.451 4.442a1.317 1.317 0 1 1-.019-2.635 1.317 1.317 0 0 1 .019 2.635zM8.5 8.756a1.317 1.317 0 1 1 .018 2.634 1.317 1.317 0 0 1-.018-2.634zm1.749-3.103a1.317 1.317 0 1 1 .018 2.634 1.317 1.317 0 0 1-.018-2.634zm1.74-3.037a1.317 1.317 0 1 1 .02 2.634 1.317 1.317 0 0 1-.02-2.634zm1.382 7.422a1.317 1.317 0 1 1-2.635.019 1.317 1.317 0 0 1 2.635-.019zm1.732-3.053a1.318 1.318 0 1 1-2.635.018 1.318 1.318 0 0 1 2.635-.018zm1.795 3.078a1.317 1.317 0 1 1-2.634.019 1.317 1.317 0 0 1 2.634-.02z" id="triodent-shape" fill="#FFF"/></g></g></g></symbol></svg>