<svg xmlns="http://www.w3.org/2000/svg"><symbol viewBox="0 0 24 24" id="icon-account-circle"><title>account-circle</title><g><path d="M13.5 17.5V15a.5.5 0 0 1 .342-.474c.107-.036.312-.161.528-.414.39-.454.63-1.135.63-2.112a.5.5 0 0 1 .5-.5c.16 0 .16-1 0-1a.5.5 0 0 1-.5-.5c0-.154.312-1.134.311-1.13.147-.516.24-.976.265-1.402.02-.318 0-.602-.061-.847-.374-1.495-5.156-1.495-5.53 0a.5.5 0 0 1-.583.37c-.453-.091-.647-.025-.743.143-.109.193-.135.555-.07 1.037.035.256.093.53.172.84.041.159.081.303.151.551.069.247.088.329.088.438a.5.5 0 0 1-.5.5c-.16 0-.16 1 0 1a.5.5 0 0 1 .5.5c0 .977.24 1.658.63 2.112.216.253.42.378.528.414A.5.5 0 0 1 10.5 15v2.5a.5.5 0 0 1-.323.468c-.28.106-.577.215-.942.348l-.683.248c-2.549.924-3.643 1.381-4.443 1.934a.5.5 0 0 1-.64-.06A11.963 11.963 0 0 1 0 12C0 5.372 5.372 0 12 0s12 5.372 12 12c0 3.196-1.257 6.195-3.458 8.426a.5.5 0 0 1-.642.059c-.438-.306-1.071-.622-1.946-.98-.802-.329-4.21-1.567-4.13-1.537a.5.5 0 0 1-.324-.468zm-4.63-2.737c-.49-.573-.8-1.364-.86-2.392-.805-.471-.838-2.108-.099-2.675a27.778 27.778 0 0 1-.118-.437 8.375 8.375 0 0 1-.194-.953c-.093-.68-.053-1.237.19-1.666.275-.482.758-.714 1.395-.683 1.18-2.074 6.712-1.934 7.301.422.088.352.115.736.09 1.15a7.539 7.539 0 0 1-.303 1.615c-.04.14-.111.373-.172.56.728.576.69 2.198-.11 2.667-.06 1.028-.37 1.82-.86 2.392a2.686 2.686 0 0 1-.63.549v1.837c.862.314 3.176 1.161 3.833 1.43.731.3 1.313.576 1.776.852A10.957 10.957 0 0 0 23 12c0-6.076-4.924-11-11-11S1 5.924 1 12c0 2.798 1.05 5.429 2.9 7.442.855-.518 2.003-.981 4.312-1.818a346.629 346.629 0 0 0 1.288-.47v-1.842a2.686 2.686 0 0 1-.63-.55z"/><path d="M3.47 20.439l.71-.704A10.963 10.963 0 0 0 12 23c2.982 0 5.775-1.193 7.83-3.276l.712.702A11.963 11.963 0 0 1 12 24c-3.248 0-6.29-1.297-8.53-3.561z"/></g></symbol><symbol viewBox="0 0 24 24" id="icon-arrow-down"><title>arrow-down</title><path d="M23.207 7.917a.5.5 0 0 1 .588.809l-11.5 8.357a.5.5 0 0 1-.588 0L.207 8.726a.5.5 0 1 1 .588-.809L12 16.06l11.206-8.143z"/></symbol><symbol viewBox="0 0 24 24" id="icon-arrow-left-double"><title>arrow-left-double</title><g><path d="M12.602 12l7.481 11.223a.5.5 0 0 1-.832.554l-7.666-11.5a.5.5 0 0 1 0-.554L19.25.223a.5.5 0 1 1 .832.554L12.602 12z"/><path d="M12.417 23.223a.5.5 0 1 1-.832.554l-7.667-11.5a.5.5 0 0 1 0-.554l7.667-11.5a.5.5 0 1 1 .832.554L4.935 12l7.482 11.223z"/></g></symbol><symbol viewBox="0 0 24 24" id="icon-arrow-left"><title>arrow-left</title><path d="M8 12l9.032 11.186a.5.5 0 0 1-.778.628l-9.286-11.5a.5.5 0 0 1 0-.628l9.286-11.5a.5.5 0 0 1 .778.628L8 12z"/></symbol><symbol viewBox="0 0 24 24" id="icon-arrow-right-double"><title>arrow-right-double</title><g><path d="M11.4 12L3.918.777A.5.5 0 0 1 4.75.223l7.667 11.5a.5.5 0 0 1 0 .554l-7.667 11.5a.5.5 0 0 1-.832-.554L11.4 12z"/><path d="M11.585.777a.5.5 0 1 1 .832-.554l7.666 11.5a.5.5 0 0 1 0 .554l-7.666 11.5a.5.5 0 0 1-.832-.554L19.066 12 11.585.777z"/></g></symbol><symbol viewBox="0 0 24 24" id="icon-arrow-right"><title>arrow-right</title><path d="M16 12L6.968.814a.5.5 0 1 1 .778-.628l9.286 11.5a.5.5 0 0 1 0 .628l-9.286 11.5a.5.5 0 0 1-.778-.628L16 12z"/></symbol><symbol viewBox="0 0 24 24" id="icon-arrow-up"><title>arrow-up</title><path d="M12.001 8L.815 17.032a.5.5 0 0 1-.628-.778l11.5-9.286a.5.5 0 0 1 .628 0l11.5 9.286a.5.5 0 0 1-.628.778L12 8z"/></symbol><symbol viewBox="0 0 24 24" id="icon-box-return"><title>box-return</title><g><path d="M1 15h5.5a.5.5 0 1 1 0 1h-6a.5.5 0 0 1-.5-.5v-11A.5.5 0 0 1 .5 4h14a.5.5 0 0 1 .5.5v2a.5.5 0 1 1-1 0V5H1v10z"/><path d="M13.293 4l-3-3H4.707l-3 3h11.586zM14.5 5H.5a.5.5 0 0 1-.354-.854l4-4A.5.5 0 0 1 4.5 0h6a.5.5 0 0 1 .354.146l4 4A.5.5 0 0 1 14.5 5z"/><path d="M7 .5a.5.5 0 0 1 1 0v4a.5.5 0 0 1-1 0v-4zM13.999 17.5a.5.5 0 0 1-.812.39l-5-4a.5.5 0 0 1 0-.78l5-4a.5.5 0 0 1 .812.39v1.51c4.308.16 7.132 2.414 8.709 6.04.566 1.303.928 2.693 1.13 4.081.07.486.115.938.14 1.344.016.246.021.425.021.525 0 .604-.872.69-.99.098a4.345 4.345 0 0 0-.072-.285 9.985 9.985 0 0 0-1.647-3.259c-1.624-2.118-3.995-3.426-7.291-3.545V17.5zm-1-2a.5.5 0 0 1 .5-.5c3.88 0 6.696 1.482 8.584 3.946.147.19.285.385.416.581a13.955 13.955 0 0 0-.709-2.078C20.302 14.027 17.66 12 13.5 12a.5.5 0 0 1-.5-.5v-.96l-3.7 2.96 3.7 2.96v-.96z"/></g></symbol><symbol viewBox="0 0 24 24" id="icon-credit-card"><title>credit-card</title><g><path d="M23 17.5v-10A1.5 1.5 0 0 0 21.5 6h-19A1.5 1.5 0 0 0 1 7.5v10A1.5 1.5 0 0 0 2.5 19h19a1.5 1.5 0 0 0 1.5-1.5zm1 0a2.5 2.5 0 0 1-2.5 2.5h-19A2.5 2.5 0 0 1 0 17.5v-10A2.5 2.5 0 0 1 2.5 5h19A2.5 2.5 0 0 1 24 7.5v10z"/><path d="M.5 10a.5.5 0 0 1 0-1h23a.5.5 0 1 1 0 1H.5zM20.5 12a.5.5 0 1 1 0 1h-3a.5.5 0 1 1 0-1h3zM11.5 12a.5.5 0 1 1 0 1h-8a.5.5 0 0 1 0-1h8zM6.5 14a.5.5 0 0 1 0 1h-3a.5.5 0 0 1 0-1h3z"/></g></symbol><symbol viewBox="0 0 24 24" id="icon-key"><title>key</title><g><path d="M5.5 20.5a2 2 0 1 1 0-4 2 2 0 0 1 0 4zm0-1a1 1 0 1 0 0-2 1 1 0 0 0 0 2z"/><path d="M20.146.146A.5.5 0 0 1 20.5 0h3a.5.5 0 0 1 .5.5v3a.5.5 0 0 1-.146.354L23 4.707V6a.5.5 0 0 1-.5.5h-1.293L21 6.707V8a.5.5 0 0 1-.5.5h-1.293L19 8.707V10a.5.5 0 0 1-.5.5h-1.293l-2.885 2.885a7.499 7.499 0 0 1-12.126 8.418 7.499 7.499 0 0 1 8.42-12.126l9.53-9.53zm.561.854l-9.635 9.637a.5.5 0 0 1-.584.09 6.499 6.499 0 0 0-7.585 10.368 6.499 6.499 0 0 0 10.37-7.582.5.5 0 0 1 .09-.584l3.283-3.283A.5.5 0 0 1 17 9.5h1v-1a.5.5 0 0 1 .146-.354l.5-.5A.5.5 0 0 1 19 7.5h1v-1a.5.5 0 0 1 .146-.354l.5-.5A.5.5 0 0 1 21 5.5h1v-1a.5.5 0 0 1 .146-.354L23 3.293V1h-2.293z"/></g></symbol><symbol viewBox="0 0 24 24" id="icon-lock-closed"><title>lock-closed</title><g><path d="M12 16a1 1 0 1 1 0-2 1 1 0 0 1 0 2z"/><path d="M11.5 15.5a.5.5 0 1 1 1 0v3a.5.5 0 1 1-1 0v-3z"/><path d="M4 10v13h16V10H4zm-.5-1h17a.5.5 0 0 1 .5.5v14a.5.5 0 0 1-.5.5h-17a.5.5 0 0 1-.5-.5v-14a.5.5 0 0 1 .5-.5z"/><path d="M17 9V6A5 5 0 1 0 7 6v3h10zM6 6a6 6 0 0 1 6-6 6 6 0 0 1 6 6v3.5a.5.5 0 0 1-.5.5h-11a.5.5 0 0 1-.5-.5V6z"/></g></symbol><symbol viewBox="0 0 24 24" id="icon-lock-open"><title>lock-open</title><g><path d="M12 16a1 1 0 1 1 0-2 1 1 0 0 1 0 2z"/><path d="M11.5 15.5a.5.5 0 1 1 1 0v3a.5.5 0 1 1-1 0v-3z"/><path d="M4 10v13h16V10H4zm-.5-1h17a.5.5 0 0 1 .5.5v14a.5.5 0 0 1-.5.5h-17a.5.5 0 0 1-.5-.5v-14a.5.5 0 0 1 .5-.5z"/><path d="M7 6a.5.5 0 0 1-1 0 6 6 0 1 1 12 0v3.5a.5.5 0 1 1-1 0V6A5 5 0 0 0 7 6z"/></g></symbol><symbol viewBox="0 0 24 24" id="icon-menu-arrow-down"><title>menu-arrow-down</title><path d="M12 14l-5-4h10z"/></symbol><symbol viewBox="0 0 24 24" id="icon-navigation-drawer"><title>navigation-drawer</title><g><path d="M23.5 3a.5.5 0 1 1 0 1H.5a.5.5 0 1 1 0-1h23zM23.5 9a.5.5 0 1 1 0 1H.5a.5.5 0 0 1 0-1h23zM23.5 15a.5.5 0 1 1 0 1H.5a.5.5 0 1 1 0-1h23zM23.5 21a.5.5 0 1 1 0 1H.5a.5.5 0 1 1 0-1h23z"/></g></symbol><symbol viewBox="0 0 24 24" id="icon-remove"><title>remove</title><g><path d="M23.146.146a.5.5 0 0 1 .708.708l-23 23a.5.5 0 0 1-.708-.708l23-23z"/><path d="M23.854 23.146a.5.5 0 0 1-.708.708l-23-23A.5.5 0 0 1 .854.146l23 23z"/></g></symbol><symbol viewBox="0 0 24 24" id="icon-report-problem-triangle"><title>report-problem-triangle</title><g><path d="M12 16.806a.5.5 0 1 1-1 0V9.153a.5.5 0 1 1 1 0v7.653z"/><path d="M11.5 2.618L1.309 23h20.382L11.5 2.618zM22.5 24H.5a.5.5 0 0 1-.447-.724l11-22a.5.5 0 0 1 .894 0l11 22A.5.5 0 0 1 22.5 24z"/><path d="M12.375 20a.875.875 0 1 1-1.75 0 .875.875 0 0 1 1.75 0z"/></g></symbol><symbol viewBox="0 0 24 24" id="icon-search"><title>search</title><g><path d="M8.5 17a8.5 8.5 0 1 1 0-17 8.5 8.5 0 0 1 0 17zm0-1a7.5 7.5 0 1 0 0-15 7.5 7.5 0 0 0 0 15z"/><path d="M13.802 14.51a.5.5 0 0 1 .708-.708l9.344 9.344a.5.5 0 0 1-.708.708l-9.344-9.344z"/></g></symbol><symbol viewBox="0 0 24 24" id="icon-shopping-cart-add"><title>shopping-cart-add</title><g><path d="M8 21a2 2 0 1 1 0-4 2 2 0 0 1 0 4zm0-1a1 1 0 1 0 0-2 1 1 0 0 0 0 2z"/><path d="M3.604 1H.5a.5.5 0 1 1 0-1H4a.5.5 0 0 1 .487.385L8.396 17H12a.5.5 0 1 1 0 1H8a.5.5 0 0 1-.487-.385L3.604 1z"/><path d="M5.412 7a.5.5 0 0 1 0-1H23.5a.5.5 0 0 1 .474.658l-1.516 4.547a.5.5 0 1 1-.948-.316L22.806 7H5.412zM7.294 15a.5.5 0 1 1 0-1h4.681a.5.5 0 1 1 0 1H7.294zM18.5 24a5.5 5.5 0 1 1 0-11 5.5 5.5 0 0 1 0 11zm0-1a4.5 4.5 0 1 0 0-9 4.5 4.5 0 0 0 0 9z"/><path d="M21 18a.5.5 0 1 1 0 1h-5a.5.5 0 1 1 0-1h5z"/><path d="M19 21a.5.5 0 1 1-1 0v-5a.5.5 0 1 1 1 0v5z"/></g></symbol><symbol viewBox="0 0 24 24" id="icon-shopping-cart-reorder"><title>shopping-cart-reorder</title><g><path d="M13.458 21.143a1.567 1.567 0 0 1-1.562-1.572c0-.867.698-1.571 1.562-1.571.864 0 1.563.704 1.563 1.571s-.699 1.572-1.563 1.572zm0-1c.31 0 .563-.255.563-.572a.567.567 0 0 0-.563-.571.567.567 0 0 0-.562.571c0 .317.253.572.562.572zM5.667 21.143a1.567 1.567 0 0 1-1.563-1.572c0-.867.699-1.571 1.563-1.571s1.562.704 1.562 1.571-.698 1.572-1.562 1.572zm0-1c.31 0 .562-.255.562-.572A.567.567 0 0 0 5.667 19a.567.567 0 0 0-.563.571c0 .317.253.572.563.572z"/><path d="M2.438 7H.354a.5.5 0 1 1 0-1h2.48a.5.5 0 0 1 .486.384L6.062 18h7.396a.5.5 0 1 1 0 1H5.667a.5.5 0 0 1-.487-.385L2.438 6.999z"/><path d="M3.833 11.031a.5.5 0 1 1 0-1h12.813a.5.5 0 0 1 .47.669l-2.124 5.929a.5.5 0 0 1-.471.33H5.333a.5.5 0 1 1 0-1h8.836l1.766-4.928H3.834z"/><g><path d="M18.553 12.486a.5.5 0 0 0 .013 1 5.5 5.5 0 0 0-.146-11 5.501 5.501 0 0 0-5.425 5.572.5.5 0 1 0 1-.014 4.501 4.501 0 0 1 4.438-4.557 4.501 4.501 0 0 1 .12 8.999z"/><path d="M12.452 5.375a.5.5 0 1 0-.854.52l1.468 2.416a.5.5 0 0 0 .687.168L16.17 7.01a.5.5 0 1 0-.52-.855l-1.989 1.209-1.209-1.99z"/></g></g></symbol><symbol viewBox="0 0 24 24" id="icon-shopping-cart"><title>shopping-cart</title><g><path d="M19 24a2 2 0 1 1 0-4 2 2 0 0 1 0 4zm0-1a1 1 0 1 0 0-2 1 1 0 0 0 0 2zM8 24a2 2 0 1 1 0-4 2 2 0 0 1 0 4zm0-1a1 1 0 1 0 0-2 1 1 0 0 0 0 2z"/><path d="M3.604 4H.5a.5.5 0 1 1 0-1H4a.5.5 0 0 1 .487.385L8.396 20H19a.5.5 0 1 1 0 1H8a.5.5 0 0 1-.487-.385L3.604 4z"/><path d="M5.412 10a.5.5 0 0 1 0-1H23.5a.5.5 0 0 1 .474.658l-3 9A.5.5 0 0 1 20.5 19H7.529a.5.5 0 1 1 0-1h12.61l2.667-8H5.412z"/></g></symbol><symbol viewBox="0 0 24 24" id="icon-synchronize-time"><title>synchronize-time</title><g><path d="M14 12h4.5a.5.5 0 1 1 0 1h-5a.5.5 0 0 1-.5-.5V7a.5.5 0 1 1 1 0v5zM4.054 12.673l3.07-3.508a.5.5 0 0 1 .752.658l-3.5 4a.5.5 0 0 1-.792-.052l-3-4.5a.5.5 0 0 1 .832-.554l2.638 3.956z"/><path d="M13.5 22a.5.5 0 1 1 0-1 9 9 0 1 0-9-9v1.494a.5.5 0 1 1-1 0V12c0-5.522 4.477-10 10-10s10 4.478 10 10c0 5.524-4.477 10-10 10z"/></g></symbol><symbol viewBox="0 0 24 24" id="icon-ultradent-rewards"><title>ultradent-rewards</title><g><path d="M4.767 8.608s.002 5.76 0 6.292c-.001.533.485 1.066.972 1.066h6.97c.487 0 .981-.533.981-1.066v-4.297c0-.266.223-.525.466-.525h1.854c.61 0 .61.945.011.945-.505 0-.863-.009-1.161-.009-.244 0-.474.268-.474.534v.855c0 .4.122.533.474.533h3.83c.365 0 .495-.134.495-.533V9.139c0-.531-.495-1.065-.983-1.065l-7.862.004c-.244 0-.475.264-.475.53v3.65c0 .737-.87.737-.87 0v-3.65c0-.266-.252-.53-.495-.53H5.252c-.243 0-.485.264-.485.53"/><path d="M18.698 15.966c.365 0 .487-.134.487-.533v-1.3c0-.398-.122-.532-.487-.532h-3.83c-.366 0-.473.134-.473.531v1.3c0 .4.121.534.473.534h3.83z"/><path d="M11.976 23.952C5.372 23.952 0 18.579 0 11.975 0 5.373 5.372 0 11.976 0c6.603 0 11.976 5.373 11.976 11.975 0 6.604-5.373 11.977-11.976 11.977zM12 .916C5.888.916.916 5.889.916 12c0 6.112 4.972 11.084 11.084 11.084 6.112 0 11.084-4.972 11.084-11.084C23.084 5.889 18.112.916 12 .916z"/></g></symbol></svg>