<?xml version="1.0" encoding="UTF-8"?><svg viewBox="0 0 131 120" xmlns="http://www.w3.org/2000/svg"><path d="M94.535 27.694l-6.553-11.35c-12.58-21.791-32.98-21.792-45.562 0L5.39 80.483c-12.581 21.79-2.383 39.457 22.78 39.457h74.064c25.161 0 35.362-17.665 22.78-39.457l-8.586-14.872c-5.06 14.14-18.672 31.354-37.918 36.567-19.5 5.282-33.848-3.342-33.848-3.342s-14.701-6.39-12.307-23.36 13.454-28.13 28.466-38.07c14.853-9.835 33.327-9.717 33.715-9.713zm5.562 9.754S82.999 33.42 71.568 41.12c-11.431 7.7-12.95 18.768-10.155 23.888 2.794 5.12 11.648 7.665 21.384 5.005 9.737-2.661 18.313-8.015 18.313-12.145 0-2.195-6.525-.86-9.34-.43-2.815.43-6.645.75-6.645-2.76 0-3.512 2.468-10.572 18.296-11.683" fill="#0078C2" fill-rule="evenodd"/></svg>