<?xml version="1.0" encoding="UTF-8"?><svg viewBox="0 0 126 120" xmlns="http://www.w3.org/2000/svg"><g fill="none" fill-rule="evenodd"><path d="M125.902 8.06V0H.984v93.294c21.366-.064 39.445-13.947 55.151-38.313 8.297-12.872 17.319-23.488 27.553-31.5 12.71-9.948 26.787-15.41 42.214-15.422z" fill="#EC2B1E"/><path d="M125.902 25.764V120H.984v-9c15.483-.035 29.608-5.378 42.32-15.119 10.364-7.942 19.477-18.53 27.712-31.307 15.97-24.775 33.859-38.787 54.886-38.81z" fill="#007AC4"/><path d="M125.953 8.059c-15.447 0-29.54 5.463-42.265 15.422-10.234 8.012-19.256 18.628-27.553 31.5C40.393 79.404 22.266 93.295.835 93.295V111c15.542 0 29.716-5.346 42.468-15.119 10.365-7.942 19.478-18.53 27.713-31.307 15.983-24.795 33.887-38.81 54.937-38.81V8.059z" fill="#FFF" fill-rule="nonzero"/></g></svg>