<?xml version="1.0" encoding="UTF-8" standalone="no"?>
<svg width="24px" height="24px" viewBox="0 0 24 24" version="1.1" xmlns="http://www.w3.org/2000/svg" xmlns:xlink="http://www.w3.org/1999/xlink">
    <!-- Generator: Sketch 40.1 (33804) - http://www.bohemiancoding.com/sketch -->
    <title>icon-reorder-24</title>
    <desc>Created with Sketch.</desc>
    <defs></defs>
    <g id="Page-1" stroke="none" stroke-width="1" fill="none" fill-rule="evenodd">
        <g id="icon-reorder-24" fill="#2B2927">
            <path d="M7.1099997,9.52999922 L5.69999946,8.1099997 C4.7999999,9.26999995 4.23999952,10.6099991 4.06999993,11.9999993 L6.08999978,11.9999993 C6.22999964,11.1299995 6.57999953,10.2799992 7.1099997,9.52999922 L7.1099997,9.52999922 Z M6.08999978,13.9999992 L4.06999993,13.9999992 C4.23999999,15.3899994 4.78999967,16.7299986 5.68999971,17.8899983 L7.09999947,16.4699984 C6.57999953,15.7199984 6.22999964,14.8799983 6.08999978,13.9999982 L6.08999978,13.9999992 L6.08999978,13.9999992 Z M7.09999995,19.3199985 C8.25999972,20.2199981 9.61000003,20.759999 10.9999993,20.9299991 L10.9999993,18.8999985 C10.1299995,18.7499989 9.2899994,18.4099988 8.53999945,17.8699979 L7.09999947,19.3199985 L7.09999995,19.3199985 L7.09999995,19.3199985 Z M12.9999992,5.06999993 L12.9999992,1.99999994 L8.44999929,6.54999986 L12.9999992,10.9999994 L12.9999992,7.08999978 C15.8399991,7.56999978 17.9999989,10.0300001 17.9999989,12.9999993 C17.9999989,15.9699984 15.8399991,18.4299993 12.9999992,18.9099987 L12.9999992,20.9299991 C16.9499997,20.4399993 19.9999988,17.0799989 19.9999988,12.9999993 C19.9999988,8.91999959 16.9499997,5.55999967 12.9999992,5.06999945 L12.9999992,5.06999993 L12.9999992,5.06999993 Z" id="Fill-2"></path>
        </g>
    </g>
</svg>