<?xml version="1.0" encoding="UTF-8" standalone="no"?><svg viewBox="0 0 24 24" xmlns="http://www.w3.org/2000/svg"><g fill="none" fill-rule="evenodd"><path d="M1.513 6.163A11.997 11.997 0 0 1 12 0c6.627 0 12 5.373 12 12s-5.373 12-12 12S0 18.627 0 12c0-.339.014-.675.042-1.007l2.046-.323C2.03 11.105 2 11.55 2 12c0 5.523 4.477 10 10 10s10-4.477 10-10S17.523 2 12 2a10 10 0 0 0-9.005 5.646L1.513 6.163z" fill="#E47425"/><path d="M1.73 2.319l4.951 4.95-5.879.929.929-5.88z" stroke="#E47425" fill="#E47425"/><g stroke="#9B9B9B"><path d="M12 13.407v3.477" stroke-dasharray="1,1"/><path d="M6.857 9.932l5.004 2.606 5.282-2.769"/><path d="M6 15.862V9.86L11.854 7 18 9.716v6.29L11.85 19 6 15.862z" stroke-width="2"/></g></g></svg>