<?xml version="1.0" encoding="UTF-8" standalone="no"?><svg viewBox="0 0 24 24" xmlns="http://www.w3.org/2000/svg"><g fill="#E47425" fill-rule="evenodd"><path d="M16.357 6.08c.197.077.353.2.469.366A.948.948 0 0 1 17 7l.001 11a.948.948 0 0 1-.174.554 1.005 1.005 0 0 1-.47.366 1.013 1.013 0 0 1-.392.071 1.06 1.06 0 0 1-.741-.286L12 14.491l-3.224 4.214a1.063 1.063 0 0 1-1.134.215 1.005 1.005 0 0 1-.469-.366A.948.948 0 0 1 7 18L6.999 7c0-.203.058-.387.174-.554.116-.167.272-.289.47-.366A.994.994 0 0 1 8.034 6h7.928c.138 0 .269.027.394.08z"/><path d="M24 12c0-6.627-5.373-12-12-12S0 5.373 0 12s5.373 12 12 12 12-5.373 12-12zM2 12C2 6.477 6.477 2 12 2s10 4.477 10 10-4.477 10-10 10S2 17.523 2 12z"/></g></svg>