<?xml version="1.0" encoding="utf-8"?><svg xmlns="http://www.w3.org/2000/svg" viewBox="3 3 18 18"><path d="M21 12c0-4.971-4.029-9-9-9s-9 4.029-9 9 4.029 9 9 9 9-4.029 9-9z"/><path fill="#FFF" d="M15.268 7.56a.747.747 0 0 1 .483.69l.001 8.25c0 .152-.044.291-.131.416s-.204.216-.352.274a.769.769 0 0 1-.295.053.795.795 0 0 1-.556-.215l-2.417-3.16-2.418 3.16a.796.796 0 0 1-.851.161.751.751 0 0 1-.352-.274.714.714 0 0 1-.13-.415l-.001-8.25a.747.747 0 0 1 .483-.69.743.743 0 0 1 .294-.06h5.946a.75.75 0 0 1 .296.06z"/></svg>