<?xml version="1.0" encoding="UTF-8" standalone="no"?><svg viewBox="0 0 24 24" xmlns="http://www.w3.org/2000/svg"><g fill="none" fill-rule="evenodd"><path d="M2 12C2 6.477 6.477 2 12 2s10 4.477 10 10-4.477 10-10 10S2 17.523 2 12z" fill="#FFF"/><path d="M17 14.482V7a.948.948 0 0 0-.174-.554 1.005 1.005 0 0 0-.47-.366.995.995 0 0 0-.393-.08H10.73L17 14.482zm-6.433 1.391l-1.79 2.341a1.063 1.063 0 0 1-1.135.215 1.005 1.005 0 0 1-.469-.366.948.948 0 0 1-.174-.554v-6.463l3.568 4.827z" fill="#DF030C"/><path d="M24 12c0-6.627-5.373-12-12-12S0 5.373 0 12s5.373 12 12 12 12-5.373 12-12zM2 12C2 6.477 6.477 2 12 2s10 4.477 10 10-4.477 10-10 10S2 17.523 2 12z" fill="#DF030C"/><path d="M15.734 19.597l1.702-1.258L7.579 5.002 5.876 6.261l9.858 13.336z" fill="#DF030C"/></g></svg>