<?xml version="1.0" encoding="UTF-8"?><svg width="1920" height="176" viewBox="0 0 1920 176" xmlns="http://www.w3.org/2000/svg"><defs><linearGradient x1="0%" y1="50%" y2="50%" id="a"><stop stop-color="#F6F6F6" offset="0%"/><stop stop-color="#E8E8E8" offset="32.111%"/><stop stop-color="#E8E8E8" offset="68.14%"/><stop stop-color="#F6F6F6" offset="100%"/></linearGradient></defs><path d="M1887.57 8.782c-1.845-1.659-8.374 0-9.813 1.216-1.439 1.217-7.562-1.437-8.374-1.437-.812 0-11.435 2.248-11.435 2.248s-1.439-2.027-1.623-3.465c-.222-1.437-2.029-2.653-3.689-2.874-1.623-.222-29.4 11.204-29.4 11.204l-2.03-2.248s-17.152 8.994-18.185 8.994c-1.033 0-3.283-3.06-4.095-3.06-.812 0-4.279 3.28-5.939 3.28-1.623 0-3.689-2.027-7.34-3.87-3.69-1.842-6.124.406-17.375 5.308-11.251 4.902-16.342 1.438-19.81-.626-3.467-2.028-5.127.405-6.935 1.437-1.844 1.032-41.278 18.171-43.344 19.388-2.029 1.216-6.935-.406-9.185.22-2.25.627-6.124 3.465-6.124 3.465l-4.095-1.032s-12.468 6.745-25.12 8.367c-12.69 1.622-18.593-3.28-19.404-3.28-.812 0-.406-3.28-1.439-4.091-1.032-.811-6.53.22-8.594-.811-2.03-1.032-21.875-15.923-25.564-18.171-3.69-2.249-7.784-4.276-7.784-4.276l-4.906-3.06s-2.877 1.033-4.095 1.438c-1.217.406-45.373-6.34-48.84-7.335-3.468-1.032-10.44-3.28-10.44-3.28l-23.498 9.62s-13.907-8.146-16.378-8.551c-2.435-.406-5.94 1.622-7.784 2.248-1.844.627-3.689.406-6.53.627-2.876.22-22.907 10.836-24.346 11.02-1.438.185-3.061-1.032-3.873-1.437-.811-.405-8.19 3.06-8.19 3.06s-6.16-6.746-7.561-8.183c-1.439-1.438-3.69-.222-5.718-.222-2.029 0-7.156-3.464-9-4.496-1.845-1.032-6.53-2.249-6.53-2.249s-4.095 3.87-5.312 4.497c-1.217.627-13.907 4.681-15.53 5.529-1.623.81-141.653 27.791-141.653 27.791s-20.842 8.588-28.22 11.647c-7.34 3.06-21.653 2.028-21.653 2.028s-1.845-2.654-3.062-3.465c-1.217-.811-11.841 1.216-17.153 2.654-5.312 1.437-29.216-.811-32.093-.627-2.877.221-57.805-25.506-59.65-27.349-1.844-1.843-8.779-4.718-11.029-5.123-2.25-.406-23.498-5.492-27.187-7.74-3.689-2.249-14.902-6.119-19.219-7.335-4.279-1.217-17.78-.811-22.686-1.622-4.906-.81-11.251-5.308-11.251-5.308s-16.932 7.15-19.404 7.74c-2.471.59-8.189 4.092-8.189 4.092s-31.466-1.253-39.213.405c-7.783 1.622-18.591 7.335-18.591 7.335L853.655 40.85l-2.878-1.622-4.5 2.027-1.623-2.248s-10.218 6.34-15.124 8.772c-4.907 2.433-37.811-2.248-42.312-2.027-4.5.221-11.03 5.529-11.656 5.308-.628-.222 0-2.875-2.25-3.686-2.25-.811-98.493 30.666-98.493 30.666s-3.468-2.654-10.219-4.902c-6.75-2.249-16.747-.627-34.712.81-17.964 1.401-61.124-17.544-61.124-17.544s-13.907 3.686-15.53 3.686c-1.623 0-5.128-2.249-6.53-3.06-1.401-.81-33.31-11.425-37.81-12.458-4.5-1.032-41.685 2.028-41.685 2.028s-73.777-25.912-76.654-26.538c-1.918-.418-6.21-1.106-12.874-2.064 0 0-4.685-.222-9.186.22-4.5.406-8.595-.626-13.095-1.437-4.5-.81-12.874.406-16.748.627-3.873.221-38.622 9.583-41.278 10.025-2.656.406-8.374.221-10.44.221-2.028 0-54.779 2.249-55.185 1.66-.406-.628-21.137-6.193-22.797-6.193-1.66 0-2.656 1.843-2.656 1.843s-1.439-1.217-2.656-1.217-24.715 5.898-30.433 7.962c-5.718 2.027-12.468 1.437-13.907.626-1.439-.81-3.689-2.248-4.685-2.432-.996-.184-4.906-.221-6.123-.221-1.218 0-2.03-.811-3.062-1.438-1.033-.626-37.627-15.738-40.873-16.734-3.283-1.032-7.156.406-8.78.811-6.971-.442-29.88 7.52-30.47 7.52-.59 0-5.311-1.843-5.311-1.843l-7.341 1.842-15.309-7.556-18.407.37-6.53-4.903-9.185 1.622L0 4.286V177h1920V2c-8.19 1.77-16.089 6.45-20.59 8.22-6.123 2.432-9.996.22-11.84-1.438z" fill="url(#a)" fill-rule="evenodd"/></svg>