<?xml version="1.0" encoding="UTF-8"?><svg width="1920" height="195" viewBox="0 0 1920 195" xmlns="http://www.w3.org/2000/svg"><path d="M1920 195H0V86c127.096-.016 203.544.128 229.342.432 51.912.38 275.626 16.178 275.892 15.152.228-.949 1.899-1.48 6.304-2.278 0 0 .456-1.177.797-1.405.76-.57 3.19-1.177 3.19-1.177s-.076-1.14 0-2.279c.076-1.101 2.925-2.696 5.697-2.62 3.114.076 5.316.721 5.316.721s-.304-9 0-12.152c.19-2.089 1.14-9.304 1.52-10.633.38-1.33 2.088-4.557 2.847-5.317.456-.493 1.14-.493 1.975-1.557-.455-.114-.342-.227-.342-.987-.038-1.709.038-4.101.038-4.937-.038-1.405.608-1.443.608-2.012 0-.57.342-5.507.835-6.077.494-.57-.949-2.43-1.025-3.227-.076-.494 3.532-11.203 3.532-11.773 0-.57 9.608-17.659 13.14-17.469.607.038-.494-2.088.645-2.278 1.14-.19 2.013-1.33 2.582-2.279.57-.95 1.14-4.595 1.14-5.24 0-1.14 1.253.493 1.329-1.595 0-1.026 6.721-2.013 16.14-2.013 6.075 0 36.19 8.24 37.215 9.038 1.026.798 2.697 3.342 2.735 4.481.152 4.292.227 5.127-.684 5.507-.456.152-.342.76-.342.76s-.038.683.532.683c.911 0 1.443 3.114 2.013 3.076 1.367-.114 4.633 5.05 4.747 5.354.076.266.076 1.102.038 1.937-.038 1.633.227 1.215.721 1.443 1.177.57 1.025 7.102 1.025 7.102s3.228 0 4.368 1.139c1.139 1.14 7.785 6.646 8.164 7.975.38 1.329.38 3.607 1.14 3.987.76.38 1.784 2.924 3.607 5.507.76 1.139 1.216 2.126 1.178 3.607 0 1.102-.304 1.216.57 2.393 1.1 1.519 6.531 15.912 7.404 17.393 1.102 1.784 1.633 3.038 2.013 5.354.532 3.418 1.595 3.798 2.013 5.62.531 2.09 1.291 7.444 1.443 8.203.152.76-.114 2.089-1.063 2.848-.57.456-2.279.684-2.393 1.102-.19-.19 1.025 1.253 2.127 1.974 2.088 1.405 8.278 19.558 8.316 21.077.152 4.253.304 4.48 1.937 4.785 1.557.304 6.684.873 8.583 2.012 1.898 1.14 5.696 2.849 6.455 3.988.76 1.14 5.127 6.076 5.127 6.076s57.76 20.165 247.715 20.165c205.371 0 314.55-19.747 317.969-20.507.493-8.43-.304-8.013 2.506-8.544.114-1.254-.114-.418 0-2.848.076-.836 11.24-16.976 13.216-18.419 1.1-.797 2.696-3.228 2.658-4.86.152-.646 5.354-4.14 6.456-4.216 2.05-.152 1.974.152 1.936-1.519-.075-1.177-.113-1.177 4.178-.683.645.228.455.19.683 1.443.114.57 4.102 1.67 4.292 2.544.151.646 2.088 12.304 2.544 15.494.19 1.291.076 3.494.038 5.203-.038 2.772 4.405 7.557 4.519 8.506.19 1.785.19 1.595 5.468 1.367 39.457-3.38 83.509-19.557 88.066-21.19 2.392-.873 1.633.266 1.633-5.317 0-1.67.114-1.519 1.253-1.974.873-.342 2.05-7.216 5.43-7.405 11.165-.494 11.127.493 11.051-6.494-.076-5.507-.228-5.393.114-7.14.152-.835 3.19-8.696 6.266-8.81 11.659-.38 15.836-.19 21.38.873 5.583 1.064 4.633 1.292 4.823 2.659.076.721.076.76 3.532 1.709 1.33.38.797 1.215.835 1.595 0 .038 4.216.645 4.216 3.303 0 7.558-.494 5.925 27.798 3.646 17.089-1.405 252.423-7.633 301.83-8.924 43.367-1.114 92.402-1.473 147.104-1.078v109zM550.5 62.28c0 .202-.86.582-2.581 1.14-.38.265 2.924 9.759 3.531 10.214.608.456 6.304 9.456 6.684 10.064.38.608-1.025 14.165-1.633 14.81-.797.874-1.291.722-1.747.722h-1.14s1.976 4.709 2.165 5.772c.19 1.064-.57 2.393-.57 2.393s.38.342.76.455c.38.114 4.633 1.937 11.659 4.482 7.025 2.544 17.165 3.493 20.772 3.303 3.608-.19 7.14-1.822 7.975-2.202.798-.38 1.216-7.785 1.33-8.545.113-.76.493-.797.873-1.063.38-.228 1.215-.304.835-.304-.38 0-.76-.304-1.139-.493-.38-.19-.494-1.026-.494-1.406v-2.088c0-1.026.266-1.14.646-1.52.38-.379.684-1.67.873-1.974.19-.342 3.076-19.595 3.152-20.849.076-1.253.646-2.202.95-2.582.342-.38.835-.95 1.215-1.443.38-.494.57-2.013.57-2.468 0-.418-.494-.114-.874-.114s-.911-1.064-1.215-1.52c-.304-.455-.987-1.708-1.253-2.354-.266-.607.228-3 .38-3.531.151-.532-.494-1.482-.684-1.785-.19-.304-.19-5.62-.38-6.456-.19-.798-1.329-.304-1.899-.874-.57-.57-4.063-5.772-5.202-6.911-1.14-1.14-.836-1.71-.836-2.393 0-.683-8.544-1.898-9.607-2.658-1.064-.76-.494-4.14-.57-4.633-.076-.494-1.291-1.177-1.595-1.253-.228-.038-5.469-.152-8.089-.152-2.316 0-1.899.456-1.975.608-.341.797-2.202 2.164-2.392 2.468-.19.342-1.253.342-2.279.456-1.025.114-1.025 2.468-.949 3.228.076.76-5.24 8.924-5.43 9.304-.19.38-1.482.76-2.051.949-.57.19-6.266 8.81-7.026 9.38-.76.57-.76 1.519-.76 1.823z" fill="#63666A" fill-rule="evenodd"/></svg>