<svg xmlns="http://www.w3.org/2000/svg" version="1.1" width="644" height="1024">
<rect x="0" y="0" width="644" height="1024" fill="#c1ea7d" />
<g transform="scale(4.000000) translate(0.5 0.5)">
<polygon fill="#fee6ff" fill-opacity="0.501961" points="176,261 88,62 -16,252" />
<polygon fill="#81e600" fill-opacity="0.501961" points="-16,3 161,-16 171,178" />
<polygon fill="#81ed00" fill-opacity="0.501961" points="-6,145 69,181 21,-16" />
<polygon fill="#fffdff" fill-opacity="0.501961" points="5,271 -16,161 176,199" />
<polygon fill="#f7d2ff" fill-opacity="0.501961" points="117,75 42,78 111,133" />
<polygon fill="#7eb62d" fill-opacity="0.501961" points="49,134 176,127 48,200" />
<polygon fill="#fffaff" fill-opacity="0.501961" points="157,159 -16,252 176,271" />
<polygon fill="#98fa00" fill-opacity="0.501961" points="41,149 -16,176 51,-16" />
<polygon fill="#ffffff" fill-opacity="0.501961" points="49,153 18,271 -16,173" />
<polygon fill="#90eb00" fill-opacity="0.501961" points="144,-16 176,170 116,153" />
<polygon fill="#97e600" fill-opacity="0.501961" points="-16,-4 32,92 142,-16" />
<polygon fill="#e0d7fe" fill-opacity="0.501961" points="46,77 117,76 44,139" />
<polygon fill="#ffffff" fill-opacity="0.501961" points="171,171 109,152 161,271" />
<polygon fill="#c2c9c4" fill-opacity="0.501961" points="111,80 123,196 48,199" />
<polygon fill="#7e7e8b" fill-opacity="0.501961" points="145,223 64,222 112,237" />
</g>
</svg>