<svg xmlns="http://www.w3.org/2000/svg" version="1.1" width="644" height="1024">
<rect x="0" y="0" width="644" height="1024" fill="#f3bfd9" />
<g transform="scale(4.000000) translate(0.5 0.5)">
<polygon fill="#f3ffff" fill-opacity="0.501961" points="176,271 -16,246 152,149" />
<polygon fill="#fc7ec0" fill-opacity="0.501961" points="160,-16 -16,3 176,185" />
<polygon fill="#feffff" fill-opacity="0.501961" points="9,151 141,271 -16,254" />
<polygon fill="#c5e1d6" fill-opacity="0.501961" points="40,76 114,77 120,239" />
<polygon fill="#fb85b7" fill-opacity="0.501961" points="25,10 69,167 -8,155" />
<polygon fill="#8d9b92" fill-opacity="0.501961" points="105,238 54,224 151,222" />
<polygon fill="#d782c1" fill-opacity="0.501961" points="170,127 44,135 49,200" />
<polygon fill="#ffffff" fill-opacity="0.501961" points="-16,173 45,154 34,271" />
<polygon fill="#ffffff" fill-opacity="0.501961" points="176,220 163,165 45,224" />
<polygon fill="#c2c4c4" fill-opacity="0.501961" points="117,135 44,199 118,198" />
<polygon fill="#ffffff" fill-opacity="0.501961" points="176,231 176,269 51,236" />
<polygon fill="#ff7fc7" fill-opacity="0.501961" points="176,171 117,153 120,25" />
<polygon fill="#e83bbd" fill-opacity="0.501961" points="53,187 70,132 47,132" />
<polygon fill="#fd79c8" fill-opacity="0.501961" points="24,87 -16,-16 62,69" />
<polygon fill="#d8ece1" fill-opacity="0.501961" points="47,77 121,75 45,139" />
</g>
</svg>