<svg xmlns="http://www.w3.org/2000/svg" version="1.1" width="644" height="1024">
<rect x="0" y="0" width="644" height="1024" fill="#f2cf87" />
<g transform="scale(4.000000) translate(0.5 0.5)">
<polygon fill="#e1f5ff" fill-opacity="0.501961" points="85,60 -16,255 176,254" />
<polygon fill="#ffa000" fill-opacity="0.501961" points="174,178 160,-16 -16,3" />
<polygon fill="#fdac00" fill-opacity="0.501961" points="67,176 21,-16 -9,148" />
<polygon fill="#fdffff" fill-opacity="0.501961" points="-16,243 157,271 176,150" />
<polygon fill="#c7eaff" fill-opacity="0.501961" points="114,135 116,75 37,78" />
<polygon fill="#ffffff" fill-opacity="0.501961" points="-16,173 49,153 20,271" />
<polygon fill="#c78f46" fill-opacity="0.501961" points="42,134 50,199 176,128" />
<polygon fill="#ffc000" fill-opacity="0.501961" points="43,150 -16,174 47,-16" />
<polygon fill="#ffab07" fill-opacity="0.501961" points="154,-16 176,173 116,151" />
<polygon fill="#feffff" fill-opacity="0.501961" points="4,271 -16,162 105,215" />
<polygon fill="#ffffff" fill-opacity="0.501961" points="158,271 174,171 111,153" />
<polygon fill="#7c7e8d" fill-opacity="0.501961" points="66,224 110,236 152,222" />
<polygon fill="#d2def8" fill-opacity="0.501961" points="45,81 119,76 47,134" />
<polygon fill="#ffffda" fill-opacity="0.501961" points="22,87 -2,25 5,93" />
<polygon fill="#b7c3c9" fill-opacity="0.501961" points="117,131 117,198 49,182" />
</g>
</svg>