<svg xmlns="http://www.w3.org/2000/svg" version="1.1" width="644" height="1024">
<rect x="0" y="0" width="644" height="1024" fill="#a5e1f4" />
<g transform="scale(4.000000) translate(0.5 0.5)">
<polygon fill="#fffff1" fill-opacity="0.501961" points="176,271 -16,246 146,146" />
<polygon fill="#40d2ff" fill-opacity="0.501961" points="160,-16 172,181 -16,3" />
<polygon fill="#fffff9" fill-opacity="0.501961" points="8,154 -16,254 176,261" />
<polygon fill="#edd0c6" fill-opacity="0.501961" points="42,78 122,241 114,74" />
<polygon fill="#4dd5ff" fill-opacity="0.501961" points="57,149 -16,171 27,-16" />
<polygon fill="#5bb9d6" fill-opacity="0.501961" points="166,132 43,131 51,199" />
<polygon fill="#928485" fill-opacity="0.501961" points="105,240 71,222 144,223" />
<polygon fill="#ffffff" fill-opacity="0.501961" points="-16,221 162,222 174,162" />
<polygon fill="#ffffff" fill-opacity="0.501961" points="-16,175 22,271 48,153" />
<polygon fill="#40d3ff" fill-opacity="0.501961" points="176,173 117,13 119,151" />
<polygon fill="#bdc3c3" fill-opacity="0.501961" points="117,132 39,197 116,201" />
<polygon fill="#f3dfd7" fill-opacity="0.501961" points="45,137 48,80 125,75" />
<polygon fill="#04a9dd" fill-opacity="0.501961" points="54,186 47,134 71,133" />
<polygon fill="#3cd0ff" fill-opacity="0.501961" points="21,76 69,75 -16,-13" />
<polygon fill="#f8ffff" fill-opacity="0.501961" points="4,96 -3,24 22,85" />
</g>
</svg>