<svg xmlns="http://www.w3.org/2000/svg" version="1.1" width="644" height="1024">
<rect x="0" y="0" width="644" height="1024" fill="#d5c8f5" />
<g transform="scale(4.000000) translate(0.5 0.5)">
<polygon fill="#fffff2" fill-opacity="0.501961" points="-16,244 176,271 152,153" />
<polygon fill="#b697ff" fill-opacity="0.501961" points="170,182 160,-16 -16,4" />
<polygon fill="#ffffff" fill-opacity="0.501961" points="107,261 -16,253 12,145" />
<polygon fill="#a894de" fill-opacity="0.501961" points="173,131 49,199 42,133" />
<polygon fill="#dde5cf" fill-opacity="0.501961" points="117,77 46,76 107,252" />
<polygon fill="#7c8175" fill-opacity="0.501961" points="76,222 117,236 143,223" />
<polygon fill="#ffffff" fill-opacity="0.501961" points="-16,227 171,217 -16,176" />
<polygon fill="#b491ff" fill-opacity="0.501961" points="41,154 -8,-16 48,47" />
<polygon fill="#ffffff" fill-opacity="0.501961" points="106,226 176,198 122,150" />
<polygon fill="#bfbacd" fill-opacity="0.501961" points="46,201 117,111 117,197" />
<polygon fill="#8f62ff" fill-opacity="0.501961" points="50,195 75,131 49,132" />
<polygon fill="#fffffe" fill-opacity="0.501961" points="39,271 -16,174 44,154" />
<polygon fill="#666a5e" fill-opacity="0.501961" points="95,231 77,222 79,234" />
<polygon fill="#c0a4ff" fill-opacity="0.501961" points="41,155 41,17 -16,169" />
<polygon fill="#ffffff" fill-opacity="0.501961" points="172,230 145,271 -3,241" />
</g>
</svg>