<?xml version="1.0" encoding="UTF-8"?><svg viewBox="0 0 104 112" xmlns="http://www.w3.org/2000/svg"><g fill="none" fill-rule="evenodd"><path d="M75.726 97.465A51.5 51.5 0 0 0 104 51.5C104 23.076 80.924 0 52.5 0S1 23.076 1 51.5a51.5 51.5 0 0 0 28.274 45.965l7.447-14.739A34.986 34.986 0 0 1 17.514 51.5c0-19.31 15.676-34.986 34.986-34.986 19.31 0 34.986 15.676 34.986 34.986A34.986 34.986 0 0 1 68.28 82.726l7.447 14.739z" fill="#535353"/><path d="M3.365 61.681A50.178 50.178 0 0 0 27.09 94.77l7.124-12.132a36.11 36.11 0 0 1-17.072-23.81L3.365 61.68z" fill="#F6F5F4"/><path d="M3.704 39.802a50.175 50.175 0 0 0-.565 20.716l13.84-2.529a36.104 36.104 0 0 1 .407-14.907l-13.682-3.28z" fill="#B46A1F"/><path d="M49.017 1.443c-21.421 1.49-39.52 16.446-45.02 37.202l13.599 3.605a36.11 36.11 0 0 1 32.398-26.772l-.977-14.035z" fill="#A7A9AC"/><path d="M87.073 87.867A50.178 50.178 0 0 0 102.678 51.5c0-27.694-22.484-50.178-50.178-50.178-.779 0-1.557.018-2.335.054l.655 14.054c.56-.026 1.12-.04 1.68-.04 19.93 0 36.11 16.18 36.11 36.11a36.11 36.11 0 0 1-11.23 26.17l9.693 10.197z" fill="#B4975A"/><path d="M77.997 94.718a50.174 50.174 0 0 0 8.233-6.068l-9.457-10.416a36.107 36.107 0 0 1-5.925 4.366l7.15 12.118z" fill="#696765"/><g><path stroke="#F8F8F8" fill="#535353" d="M22.799 87.375l7.062-15.016 6.157 4.986z"/><path d="M78.364 35.294C69.437 21.01 50.62 16.665 36.336 25.592c-14.286 8.926-18.63 27.742-9.703 42.028 8.926 14.285 27.743 18.629 42.028 9.702 14.285-8.926 18.629-27.742 9.703-42.028zm.848-.53c9.219 14.754 4.732 34.188-10.021 43.407-14.754 9.219-34.187 4.732-43.406-10.022-9.22-14.753-4.733-34.186 10.02-43.405 14.754-9.22 34.188-4.733 43.407 10.02z" fill="#8C8C8C" fill-rule="nonzero"/></g><g fill="#535353"><text font-family="SourceSansPro-Bold, Source Sans Pro" font-size="14" font-weight="bold" transform="translate(22 31)"><tspan x="6.186" y="33.864">$4,351</tspan></text><text font-family="SourceSansPro-Regular, Source Sans Pro" font-size="10" transform="translate(22 31)"><tspan x="17.815" y="10.5">Silver </tspan> <tspan x="2" y="19.5">Elite Member</tspan></text></g></g></svg>