<?xml version="1.0" encoding="UTF-8"?><svg viewBox="0 0 104 104" xmlns="http://www.w3.org/2000/svg"><g fill="#B39759" fill-rule="evenodd"><path d="M51.66 103.32C23.174 103.32 0 80.144 0 51.657 0 23.173 23.174 0 51.66 0c28.485 0 51.66 23.173 51.66 51.658 0 28.487-23.175 51.661-51.66 51.661zm0-100.402c-26.877 0-48.743 21.864-48.743 48.74 0 26.877 21.866 48.744 48.743 48.744 26.878 0 48.742-21.867 48.742-48.744 0-26.876-21.864-48.74-48.742-48.74z"/><path d="M34.457 72.126h-.884v-3.533c0-.533-.052-.974-.064-1.286-.04-.755-.65-1.404-1.558-1.404-.612 0-1.224.298-1.612.806-.495.636-.583 1.455-.583 2.495v2.922h-.884V65.23h.884v1.181c.609-.883 1.375-1.364 2.365-1.364 1.05 0 1.802.546 2.18 1.663.609-1.104 1.52-1.663 2.534-1.663 1.426 0 2.35 1.027 2.35 2.988v4.092H38.3v-3.768c0-.506-.065-.909-.077-1.168-.04-.612-.625-1.287-1.558-1.287-.86 0-1.613.518-1.96 1.404-.222.558-.249 1.169-.249 1.805v3.014zM41.654 68.749c.039 1.584 1.118 2.74 2.598 2.74 1.44 0 2.129-.818 2.638-1.65l.74.391c-.703 1.375-1.78 2.079-3.288 2.079-2.288 0-3.599-1.767-3.599-3.613 0-1.884 1.389-3.65 3.549-3.65 1.96 0 3.544 1.417 3.57 3.703h-6.208zm5.236-.78c-.364-1.43-1.392-2.066-2.586-2.066-1.235 0-2.16.663-2.561 2.066h5.147zM55.084 72.126H54.2v-3.533c0-.533-.052-.974-.063-1.286-.038-.755-.651-1.404-1.559-1.404-.611 0-1.22.298-1.612.806-.493.636-.585 1.455-.585 2.495v2.922h-.883V65.23h.883v1.181c.612-.883 1.378-1.364 2.366-1.364 1.052 0 1.803.546 2.184 1.663.61-1.104 1.52-1.663 2.53-1.663 1.432 0 2.355 1.027 2.355 2.988v4.092h-.886v-3.768c0-.506-.063-.909-.077-1.168-.039-.612-.624-1.287-1.555-1.287-.86 0-1.615.518-1.966 1.404-.221.558-.248 1.169-.248 1.805v3.014zM62.659 72.126h-.898v-9.562h.898v3.846c.753-.909 1.673-1.377 2.755-1.377 2.015 0 3.548 1.688 3.548 3.65 0 1.95-1.558 3.626-3.575 3.626-1.118 0-2.026-.495-2.728-1.456v1.273zm5.39-3.47c0-1.493-1.182-2.805-2.727-2.805-1.415 0-2.742 1.052-2.742 2.78 0 1.6 1.182 2.82 2.742 2.82 1.598 0 2.727-1.311 2.727-2.794zM71.144 68.749c.038 1.584 1.117 2.74 2.598 2.74 1.44 0 2.126-.818 2.636-1.65l.741.391c-.7 1.375-1.781 2.079-3.287 2.079-2.29 0-3.6-1.767-3.6-3.613 0-1.884 1.39-3.65 3.548-3.65 1.959 0 3.544 1.417 3.571 3.703h-6.207zm5.234-.78c-.365-1.43-1.39-2.066-2.586-2.066-1.234 0-2.158.663-2.559 2.066h5.145zM79.583 66.228c.523-.755 1.08-1.182 1.783-1.182.4 0 .609.131.791.233l-.469.753a1.053 1.053 0 0 0-.464-.128c-.652 0-1.235.559-1.497 1.506-.117.441-.144 1.156-.144 2.092v2.624h-.935V65.23h.935v.999zM21.442 57.484c0 2.995-.175 5.468-1.65 7.496-1.55 2.098-4.265 3.369-7.739 3.369-5.26 0-7.805-2.165-9.42-5.707h2.543c1.377 2.407 3.51 3.542 6.742 3.542 3.026 0 5.258-1.1 6.36-3.096.69-1.27.79-2.577.79-3.988v-1.374c-1.82 2.302-4.47 3.473-7.321 3.473-5.057 0-9.355-3.852-9.355-9.25 0-5.433 4.503-9.49 9.355-9.49 3.229 0 5.395 1.373 7.32 3.646v-3.167h2.375v14.546zm-16.643-5.4c0 3.649 2.58 6.948 7.39 6.948 3.99 0 6.982-2.851 6.982-7.116 0-4.402-3.263-7.187-7.048-7.187-4.09 0-7.324 3.13-7.324 7.355zM42.077 52.121c0 5.19-4.025 9.525-9.52 9.525-5.502 0-9.525-4.334-9.525-9.525 0-5.227 4.054-9.66 9.524-9.66 5.468 0 9.521 4.433 9.521 9.66zm-16.638.031c0 3.989 2.993 7.326 7.117 7.326 4.093 0 7.117-3.337 7.117-7.326 0-4.053-3.233-7.424-7.117-7.424-3.922 0-7.117 3.371-7.117 7.424zM43.503 61.2h2.37V31.01h-2.37zM64.027 58.071c-1.991 2.407-4.47 3.607-7.32 3.607-5.33 0-9.354-4.468-9.354-9.658 0-5.192 4.125-9.56 9.42-9.56 2.957 0 5.436 1.271 7.254 3.819V35.892h2.377v25.306h-2.377v-3.127zm-14.265-5.987c0 3.956 3.095 7.428 7.184 7.428 3.746 0 7.255-2.817 7.255-7.36 0-4.224-3.127-7.424-7.22-7.424-4.197 0-7.219 3.438-7.219 7.356z"/></g></svg>