<?xml version="1.0" encoding="UTF-8"?><svg viewBox="0 0 150 27" xmlns="http://www.w3.org/2000/svg"><g fill="none" fill-rule="evenodd"><path d="M123.56 15.798c-.593-2.342-2.267-3.383-4.22-3.383-2.017 0-3.525 1.085-4.182 3.383h8.403zm-8.551 1.274c.067 2.595 1.826 4.487 4.245 4.487 2.355 0 3.48-1.339 4.307-2.7l1.209.637c-1.144 2.253-2.908 3.402-5.368 3.402-3.734 0-5.879-2.89-5.879-5.91 0-3.08 2.272-5.973 5.796-5.973 3.205 0 5.791 2.317 5.833 6.057h-10.143zM127.107 22.602h1.461V3.407h-1.461zM130.84 22.602v-11.29h1.441v11.29h-1.441zm1.907-14.755c0 .656-.55 1.213-1.21 1.213-.658 0-1.186-.557-1.186-1.213 0-.68.551-1.192 1.186-1.192.66 0 1.21.531 1.21 1.192zM134.268 3.556v19.046h1.445V12.586h2.31V11.31h-2.31V3.556zM139.854 17.072c.064 2.595 1.827 4.487 4.245 4.487 2.356 0 3.48-1.339 4.307-2.7l1.21.637c-1.143 2.253-2.91 3.402-5.368 3.402-3.734 0-5.88-2.89-5.88-5.91 0-3.08 2.272-5.973 5.792-5.973 3.207 0 5.795 2.317 5.838 6.057h-10.144zm8.552-1.274c-.597-2.342-2.269-3.383-4.221-3.383-2.014 0-3.525 1.085-4.18 3.383h8.401z" fill="#AF662C"/><path d="M36.63 22.537c-2.569 0-4.083-1.256-4.503-3.733-.117-.71-.112-1.177-.106-1.825.002-.155.004-.32.004-.5V11.65h2.15v5.55c0 2.271.825 3.423 2.456 3.423 1.633 0 2.46-1.107 2.46-3.293v-5.68h2.148v4.87c0 1.954-.088 3.437-1.23 4.707-.798.893-1.87 1.31-3.378 1.31M43.46 22.263h2.148V3.746H43.46zM47.932 3.94v18.322h2.147v-8.867h1.675V11.65H50.08V3.94zM53.657 22.263V11.65h1.765v2.311s.34-.548.707-1.17c.367-.623 1.13-1.438 2.004-1.438.35 0 .601.063.809.142l-.642 1.786a1.972 1.972 0 0 0-.632-.12c-1.052 0-1.775 1.147-1.843 2.919-.022.623-.022 1.326-.022 1.947v4.235h-2.146zM64.392 22.558c-2.821 0-5.032-2.454-5.032-5.592 0-3.199 2.135-5.614 4.967-5.614 1.26 0 2.341.468 3.305 1.43l.577.578v-1.71h2.148v10.613h-2.148v-1.66l-.575.564c-.981.964-1.98 1.39-3.242 1.39zm.51-9.29c-1.955 0-3.374 1.547-3.374 3.677 0 2.143 1.419 3.697 3.374 3.697 1.989 0 3.432-1.563 3.432-3.718 0-2.118-1.443-3.656-3.432-3.656zM76.927 22.558c-2.82 0-5.029-2.454-5.029-5.592 0-3.199 2.135-5.614 4.966-5.614 1.26 0 2.34.468 3.303 1.43l.576.578V3.748h2.145v18.515h-2.145v-1.66l-.574.564c-.981.964-1.98 1.39-3.242 1.39zm.507-9.29c-1.953 0-3.37 1.547-3.37 3.677 0 2.143 1.417 3.697 3.37 3.697 1.992 0 3.437-1.563 3.437-3.718 0-2.118-1.445-3.656-3.437-3.656zM89.991 22.558c-3.273 0-5.558-2.308-5.558-5.613 0-2.71 1.933-5.593 5.518-5.593 3.322 0 5.642 2.38 5.642 5.787 0 .118-.004.207-.008.297h-9.154l.065.393c.295 1.789 1.635 2.901 3.495 2.901 1.182 0 2.053-.315 2.867-1.042l1.793.85c-1.107 1.396-2.562 2.02-4.66 2.02zm0-9.482c-1.573 0-2.763.834-3.347 2.345l-.179.46h7.074l-.125-.433c-.416-1.44-1.76-2.372-3.423-2.372zM104.242 22.263v-5c0-1.78 0-3.995-2.245-3.995-.907 0-1.686.441-2.196 1.241-.606.965-.605 2.032-.604 3.162v4.592h-2.145V11.65h2.145v1.534l.555-.469c1.15-.967 2.052-1.362 3.116-1.362 2.074 0 3.522 1.452 3.522 3.528v7.38h-2.148zM108.653 3.94v18.322h2.145v-8.867h1.676V11.65h-1.676V3.94z" fill="#231F20"/><path d="M7.078 10.3s.002 4.842 0 5.288c0 .449.407.897.816.897h5.847c.409 0 .824-.448.824-.897v-3.612c0-.223.187-.441.39-.441h1.556c.511 0 .511.794.01.794-.425 0-.725-.007-.975-.007-.204 0-.397.225-.397.448v.72c0 .335.102.448.397.448h3.213c.307 0 .415-.113.415-.448v-2.745c0-.446-.415-.894-.824-.894l-6.596.003c-.205 0-.399.222-.399.445v3.07c0 .618-.729.618-.729 0v-3.07c0-.223-.212-.445-.416-.445H7.485c-.204 0-.407.222-.407.445" fill="#AF662C"/><path d="M18.76 16.485c.306 0 .408-.113.408-.448v-1.094c0-.334-.102-.446-.408-.446h-3.214c-.306 0-.397.112-.397.446v1.094c0 .335.102.448.397.448h3.214z" fill="#AF662C"/><path d="M13.126 26.306C5.888 26.306 0 20.404 0 13.152 0 5.901 5.888 0 13.126 0c7.238 0 13.127 5.9 13.127 13.152 0 7.252-5.89 13.154-13.127 13.154zm0-25.53C6.316.775.774 6.327.774 13.151c0 6.826 5.541 12.377 12.352 12.377s12.352-5.551 12.352-12.377c0-6.824-5.54-12.377-12.352-12.377z" fill="#AF662C"/></g></svg>