<?xml version="1.0" encoding="UTF-8"?>
<svg width="144px" height="144px" viewBox="0 0 144 144" version="1.1" xmlns="http://www.w3.org/2000/svg" xmlns:xlink="http://www.w3.org/1999/xlink">
    <!-- Generator: Sketch 49.2 (51160) - http://www.bohemiancoding.com/sketch -->
    <title>Page 1</title>
    <desc>Created with Sketch.</desc>
    <defs>
        <path d="M0.539506849,42.4947945 C0.539506849,65.6077808 19.2979726,84.3662466 42.4109589,84.3662466 C65.5239452,84.3662466 84.282411,65.6077808 84.282411,42.4947945 C84.282411,19.3808219 65.5239452,0.623342466 42.4109589,0.623342466 C19.2979726,0.623342466 0.539506849,19.3808219 0.539506849,42.4947945 Z" id="path-1"></path>
        <path d="M0.325479452,7.07178082 L44.9605479,7.07178082 C38.5121096,2.96778082 30.8909589,0.623342466 22.6849315,0.623342466 C14.4779178,0.623342466 6.85775342,2.96778082 0.325479452,7.07178082 Z" id="path-3"></path>
        <path d="M5.27671233,0.781150685 C3.34947945,2.70739726 1.67473973,4.88515068 0.167671233,7.22958904 L70.7621918,7.22958904 C69.2551233,4.88515068 67.5803836,2.79123288 65.7379726,0.781150685 L5.27671233,0.781150685 Z" id="path-5"></path>
        <path d="M2.65216438,0.120328767 C1.81380822,2.21424658 1.06027397,4.392 0.558246575,6.56975342 L82.2072329,6.56975342 C81.7042192,4.30816438 81.0355068,2.21424658 80.1971507,0.120328767 L2.65216438,0.120328767 Z" id="path-7"></path>
        <path d="M0.623342466,0.0276164384 C0.623342466,1.03265753 0.539506849,2.03769863 0.539506849,3.04273973 C0.539506849,4.21545205 0.623342466,5.30334247 0.707178082,6.47605479 L84.1147397,6.47605479 C84.1985753,5.38717808 84.282411,4.21545205 84.282411,3.04273973 C84.282411,2.03769863 84.1985753,1.03265753 84.1985753,0.0276164384 L0.623342466,0.0276164384 Z" id="path-9"></path>
        <path d="M0.642082192,0.837369863 C1.22794521,3.0979726 1.89863014,5.19189041 2.7350137,7.28482192 L80.0304658,7.28482192 C80.8678356,5.19189041 81.6213699,3.0979726 82.1233973,0.837369863 L0.642082192,0.837369863 Z" id="path-11"></path>
        <path d="M0.419178082,0.260383562 C1.92624658,2.5219726 3.68482192,4.69873973 5.61106849,6.70882192 L65.4026301,6.70882192 C67.3288767,4.69873973 69.0874521,2.60482192 70.5945205,0.260383562 L0.419178082,0.260383562 Z" id="path-13"></path>
        <path d="M0.493150685,0.0838356164 C6.94158904,4.104 14.5617534,6.44843836 22.6849315,6.44843836 C30.8081096,6.44843836 38.428274,4.104 44.8767123,0.0838356164 L0.493150685,0.0838356164 Z" id="path-15"></path>
        <path d="M0.539506849,42.4947945 C0.539506849,43.6675068 0.623342466,44.7553973 0.707178082,45.9281096 L42.4109589,45.9281096 L42.4109589,0.623342466 C19.2979726,0.623342466 0.539506849,19.3808219 0.539506849,42.4947945 Z" id="path-17"></path>
        <path d="M2.6610411,0.846246575 L2.57819178,1.51693151 L1.23780822,1.51693151 C1.1539726,1.59978082 0.98630137,1.59978082 0.818630137,1.68460274 L2.1590137,2.85632877 L1.48832877,4.86641096 L3.08021918,3.69369863 L4.67112329,4.86641096 L4.00043836,2.85632877 L5.50849315,1.51693151 L3.66608219,1.51693151 L3.33172603,0.595726027 C3.08021918,0.679561644 2.91254795,0.76339726 2.6610411,0.846246575 Z" id="path-19"></path>
        <polygon id="path-21" points="2.4470137 2.50323288 0.605589041 2.50323288 2.11265753 3.84263014 1.4419726 5.85271233 3.03287671 4.68 4.70761644 5.85271233 3.95408219 3.84263014 5.5459726 2.50323288 3.70356164 2.50323288 3.03287671 0.744657534"></polygon>
        <polygon id="path-23" points="2.87506849 2.58608219 0.948821918 2.58608219 2.53972603 4.01030137 1.8700274 5.93654795 3.46093151 4.76383562 5.13665753 5.93654795 4.38213699 4.01030137 5.9730411 2.58608219 4.04778082 2.58608219 3.46093151 0.912328767"></polygon>
        <polygon id="path-25" points="3.16405479 0.912328767 2.57819178 2.58608219 0.734794521 2.58608219 2.24186301 4.01030137 1.57216438 5.93654795 3.16405479 4.76383562 4.83879452 5.93654795 4.16810959 4.01030137 5.67616438 2.58608219 3.83375342 2.58608219 3.24690411 0.912328767"></polygon>
        <polygon id="path-27" points="2.4470137 2.58608219 0.605589041 2.58608219 2.11265753 4.01030137 1.4419726 5.93654795 3.03287671 4.76383562 4.70761644 5.93654795 3.95408219 4.01030137 5.5459726 2.58608219 3.70356164 2.58608219 3.03287671 0.912328767"></polygon>
        <polygon id="path-29" points="2.2329863 2.01008219 0.390575342 2.01008219 1.89863014 3.43331507 1.22794521 5.35956164 2.81983562 4.18684932 4.49358904 5.35956164 3.74005479 3.43331507 5.33194521 2.01008219 3.40569863 2.01008219 2.81983562 0.334356164"></polygon>
        <polygon id="path-31" points="2.5209863 0.334356164 1.93512329 2.01008219 0.0927123288 2.01008219 1.60076712 3.43331507 0.930082192 5.35956164 2.60580822 4.18684932 4.19671233 5.35956164 3.5260274 3.43331507 5.03408219 2.01008219 3.19167123 2.01008219 2.60580822 0.334356164"></polygon>
        <path d="M0.614465753,2.95890411 L0.195287671,4.21545205 L1.78619178,3.04273973 L3.37808219,4.21545205 L2.70739726,2.20536986 L4.21446575,0.864986301 L2.3730411,0.864986301 L2.12153425,0.0276164384 C1.61950685,0.948821918 1.03265753,1.95386301 0.614465753,2.95890411 Z" id="path-33"></path>
        <polygon id="path-35" points="2.87506849 1.85128767 0.948821918 1.85128767 2.53972603 3.19167123 1.8700274 5.20175342 3.46093151 4.0290411 5.13665753 5.20175342 4.38213699 3.19167123 5.9730411 1.85128767 4.04778082 1.85128767 3.46093151 0.0927123288"></polygon>
        <polygon id="path-37" points="3.16405479 0.0927123288 2.57819178 1.85128767 0.734794521 1.85128767 2.24186301 3.19167123 1.57216438 5.20175342 3.16405479 4.0290411 4.83879452 5.20175342 4.16810959 3.19167123 5.67616438 1.85128767 3.83375342 1.85128767 3.24690411 0.0927123288"></polygon>
        <polygon id="path-39" points="2.4470137 1.85128767 0.605589041 1.85128767 2.11265753 3.19167123 1.4419726 5.20175342 3.03287671 4.0290411 4.70761644 5.20175342 3.95408219 3.19167123 5.5459726 1.85128767 3.70356164 1.85128767 3.03287671 0.0927123288"></polygon>
        <polygon id="path-41" points="2.53084932 2.26060274 0.605589041 2.26060274 2.19550685 3.6 1.52580822 5.61106849 3.11769863 4.43835616 4.70761644 5.61106849 4.03791781 3.6 5.62980822 2.26060274 3.70356164 2.26060274 3.11769863 0.502027397"></polygon>
        <polygon id="path-43" points="2.2329863 2.26060274 0.390575342 2.26060274 1.89863014 3.6 1.22794521 5.61106849 2.81983562 4.43835616 4.49358904 5.61106849 3.74005479 3.6 5.33194521 2.26060274 3.40569863 2.26060274 2.81983562 0.502027397"></polygon>
        <polygon id="path-45" points="2.5209863 0.502027397 1.93512329 2.26060274 0.0927123288 2.26060274 1.60076712 3.6 0.930082192 5.61106849 2.60580822 4.43835616 4.19671233 5.61106849 3.5260274 3.6 5.03408219 2.26060274 3.19167123 2.26060274 2.60580822 0.502027397"></polygon>
        <polygon id="path-47" points="2.18663014 1.85128767 0.260383562 1.85128767 1.85227397 3.19167123 1.09873973 5.20175342 2.77249315 4.0290411 4.36438356 5.20175342 3.69369863 3.19167123 5.28558904 1.85128767 3.35934247 1.85128767 2.77249315 0.0927123288"></polygon>
        <polygon id="path-49" points="2.87506849 1.85128767 0.948821918 1.85128767 2.53972603 3.19167123 1.8700274 5.20175342 3.46093151 4.0290411 5.13665753 5.20175342 4.38213699 3.19167123 5.9730411 1.85128767 4.04778082 1.85128767 3.46093151 0.0927123288"></polygon>
        <polygon id="path-51" points="3.16405479 0.177534247 3.16405479 0.0927123288 2.57819178 1.85128767 0.734794521 1.85128767 2.24186301 3.19167123 1.57216438 5.20175342 3.16405479 4.0290411 4.83879452 5.20175342 4.16810959 3.19167123 5.67616438 1.85128767 3.83375342 1.85128767 3.24690411 0.0927123288"></polygon>
        <polygon id="path-53" points="2.4470137 1.85128767 0.605589041 1.85128767 2.11265753 3.19167123 1.4419726 5.20175342 3.03287671 4.0290411 4.70761644 5.20175342 3.95408219 3.19167123 5.5459726 1.85128767 3.70356164 1.85128767 3.03287671 0.0927123288"></polygon>
        <polygon id="path-55" points="2.53084932 2.26060274 0.605589041 2.26060274 2.19550685 3.6 1.52580822 5.61106849 3.11769863 4.43835616 4.70761644 5.61106849 4.03791781 3.6 5.62980822 2.26060274 3.70356164 2.26060274 3.11769863 0.502027397"></polygon>
        <polygon id="path-57" points="2.2329863 2.26060274 0.390575342 2.26060274 1.89863014 3.6 1.22794521 5.61106849 2.81983562 4.43835616 4.49358904 5.61106849 3.74005479 3.6 5.33194521 2.26060274 3.40569863 2.26060274 2.81983562 0.502027397"></polygon>
        <polygon id="path-59" points="2.60580822 0.585863014 2.5209863 0.502027397 1.93512329 2.26060274 0.0927123288 2.26060274 1.60076712 3.6 0.930082192 5.61106849 2.60580822 4.43835616 4.19671233 5.61106849 3.5260274 3.6 5.03408219 2.26060274 3.19167123 2.26060274 2.60580822 0.502027397"></polygon>
        <polygon id="path-61" points="2.18663014 2.10279452 0.260383562 2.10279452 1.85227397 3.44317808 1.09873973 5.45227397 2.77249315 4.27956164 4.36438356 5.45227397 3.69369863 3.44317808 5.28558904 2.10279452 3.35934247 2.10279452 2.77249315 0.344219178"></polygon>
        <polygon id="path-63" points="2.87506849 2.10279452 0.948821918 2.10279452 2.53972603 3.44317808 1.8700274 5.45227397 3.46093151 4.27956164 5.13665753 5.45227397 4.38213699 3.44317808 5.9730411 2.10279452 4.04778082 2.10279452 3.46093151 0.344219178"></polygon>
        <polygon id="path-65" points="3.16405479 0.344219178 2.57819178 2.10279452 0.734794521 2.10279452 2.24186301 3.44317808 1.57216438 5.45227397 3.16405479 4.27956164 4.83879452 5.45227397 4.16810959 3.44317808 5.67616438 2.10279452 3.83375342 2.10279452 3.24690411 0.344219178"></polygon>
        <polygon id="path-67" points="2.4470137 2.10279452 0.605589041 2.10279452 2.11265753 3.44317808 1.4419726 5.45227397 3.03287671 4.27956164 4.70761644 5.45227397 3.95408219 3.44317808 5.5459726 2.10279452 3.70356164 2.10279452 3.03287671 0.344219178"></polygon>
        <polygon id="path-69" points="2.53084932 2.51210959 0.605589041 2.51210959 2.19550685 3.85249315 1.52580822 5.86257534 3.11769863 4.68986301 4.70761644 5.86257534 4.03791781 3.85249315 5.62980822 2.51210959 3.70356164 2.51210959 3.11769863 0.753534247"></polygon>
        <polygon id="path-71" points="2.2329863 2.51210959 0.390575342 2.51210959 1.89863014 3.85249315 1.22794521 5.86257534 2.81983562 4.68986301 4.49358904 5.86257534 3.74005479 3.85249315 5.33194521 2.51210959 3.40569863 2.51210959 2.81983562 0.753534247"></polygon>
        <polygon id="path-73" points="2.5209863 0.753534247 1.93512329 2.51210959 0.0927123288 2.51210959 1.60076712 3.85249315 0.930082192 5.86257534 2.60580822 4.68986301 4.19671233 5.86257534 3.5260274 3.85249315 5.03408219 2.51210959 3.19167123 2.51210959 2.60580822 0.753534247"></polygon>
    </defs>
    <g id="AboutUs" stroke="none" stroke-width="1" fill="none" fill-rule="evenodd">
        <g id="Desktop-Copy" transform="translate(-888.000000, -2212.000000)">
            <g id="MadeInUSA-Section" transform="translate(696.000000, 2212.000000)">
                <g id="Page-1" transform="translate(192.000000, 0.000000)">
                    <g id="Group-49">
                        <path d="M144,72 C144,111.764712 111.764712,144 72,144 C32.2352877,144 0,111.764712 0,72 C0,32.2352877 32.2352877,0 72,0 C111.764712,0 144,32.2352877 144,72" id="Fill-1" fill="#3C3B6F"></path>
                        <path d="M139.561644,72 C139.561644,109.312767 109.313753,139.561644 72,139.561644 C34.6872329,139.561644 4.43835616,109.312767 4.43835616,72 C4.43835616,34.6862466 34.6872329,4.43835616 72,4.43835616 C109.313753,4.43835616 139.561644,34.6862466 139.561644,72" id="Fill-3" fill="#FFFFFF"></path>
                        <path d="M72,27.1232877 C96.7847671,27.1232877 116.876712,47.2152329 116.876712,72 C116.876712,96.7847671 96.7847671,116.876712 72,116.876712 C47.2152329,116.876712 27.1232877,96.7847671 27.1232877,72 C27.1232877,47.2152329 47.2152329,27.1232877 72,27.1232877" id="Fill-5" fill="#3C3B6F"></path>
                        <path d="M23.5980493,81.8838247 L24.6632548,84.9896877 L19.5739397,89.1607562 L17.5707616,90.7161534 L17.5973918,90.7950575 L20.1331726,90.7940712 L26.6920767,90.9035507 L27.7572822,94.0104 L14.7755836,98.4625644 L13.8326795,95.7137425 L18.5915836,94.0824 C19.8658849,93.6464548 21.839474,93.2361534 23.1413918,92.9451945 L23.1137753,92.8643178 L19.7465425,92.8416329 L14.0181041,92.5575781 L13.6156932,91.3828932 L17.9702137,87.6635507 L20.6204055,85.5982356 L20.5937753,85.5173589 C19.3875288,86.0884274 17.5776658,86.9751123 16.3033644,87.4120438 L11.5454466,89.0443726 L10.6163507,86.335989 L23.5980493,81.8838247 Z" id="Fill-7" fill="#3C3B6F"></path>
                        <path d="M25.3713205,104.866323 L26.2333479,103.883967 C27.1594849,102.807912 28.308526,101.609556 29.286937,100.497995 L29.2395945,100.427967 C27.8577863,100.973392 26.3171836,101.548405 24.9698959,101.994214 L23.7320877,102.417337 L25.3713205,104.866323 Z M23.7113753,106.737337 L21.3689096,103.238926 L18.1900603,104.353447 L16.4334575,101.729885 L30.2387178,97.6821041 L32.2991014,100.760351 L23.2951562,111.980515 L21.468526,109.251419 L23.7113753,106.737337 Z" id="Fill-9" fill="#3C3B6F"></path>
                        <path d="M34.8913973,104.414597 L37.233863,106.564734 L35.2583014,114.01131 L34.2157808,117.170433 L34.2779178,117.226652 C35.1517808,116.057885 36.2751781,114.45909 37.3719452,113.264679 L40.6474521,109.697227 L42.8173151,111.690542 L33.5352329,121.804077 L31.1927671,119.65394 L33.1831233,112.19257 L34.2128219,109.078816 L34.1506849,109.022597 C33.2334247,110.238707 32.1810411,111.758597 31.0852603,112.953008 L27.7959452,116.537227 L25.6093151,114.529118 L34.8913973,104.414597 Z" id="Fill-11" fill="#3C3B6F"></path>
                        <path d="M44.2911452,112.744307 L47.0241863,114.195156 L43.4232,120.983868 C42.1607342,123.365786 42.4694466,124.577951 43.8275836,125.297951 C45.1857205,126.018937 46.4195836,125.624416 47.6820493,123.244471 L51.2840219,116.455759 L53.925337,117.856307 L50.4722959,124.366882 C48.3113096,128.439321 45.717337,129.328964 42.5749808,127.660142 C39.4316384,125.993293 38.6771178,123.328307 40.8371178,119.255868 L44.2911452,112.744307 Z" id="Fill-13" fill="#3C3B6F"></path>
                        <polygon id="Fill-15" fill="#3C3B6F" points="55.7308603 118.374115 64.1173808 120.586389 63.4516274 123.110334 58.0772712 121.693019 57.2665315 124.766334 61.8469151 125.976526 61.1801753 128.499485 56.5997918 127.291266 55.2416548 132.440745 52.2285041 131.647759"></polygon>
                        <path d="M69.8810301,129.002795 L69.6206466,127.722575 C69.3267288,126.332877 69.0663452,124.69463 68.7753863,123.242795 L68.6905644,123.237863 C68.2881534,124.668 67.8127562,126.243123 67.3531397,127.585479 L66.9398795,128.82526 L69.8810301,129.002795 Z M70.3653041,131.456712 L66.162674,131.202247 L65.1270575,134.407726 L61.9748384,134.216384 L67.1105096,120.781973 L70.8081534,121.004877 L74.2848658,134.962027 L71.0083726,134.763781 L70.3653041,131.456712 Z" id="Fill-17" fill="#3C3B6F"></path>
                        <path d="M80.9336219,119.921918 C82.6182247,119.659562 84.1608,120.270082 85.2230466,121.063068 L83.8343342,123.218137 C83.0502247,122.701315 82.3450192,122.407397 81.3883068,122.555342 C79.4955945,122.852219 78.276526,124.725205 78.7006356,127.448384 C79.1365808,130.235671 80.6998685,131.652986 82.6754301,131.344274 C83.7978411,131.168712 84.5129096,130.568055 85.0652384,129.736603 L87.0378411,131.323562 C86.1205808,132.806959 84.7298959,133.728164 83.0462795,133.991507 C79.5320877,134.53989 76.2891288,132.597863 75.5780055,128.043123 C74.8757589,123.552493 77.4401425,120.467342 80.9336219,119.921918" id="Fill-19" fill="#3C3B6F"></path>
                        <polygon id="Fill-21" fill="#3C3B6F" points="89.2266411 120.666477 85.6927233 122.034477 84.7508055 119.600285 94.681874 115.754696 95.6247781 118.187901 92.1115726 119.548997 96.1248329 129.913052 93.2389151 131.030532"></polygon>
                        <path d="M95.4015781,115.392033 L97.9432767,113.628526 L102.320482,119.940855 C103.854181,122.154115 105.074236,122.437184 106.336701,121.561348 C107.598181,120.685512 107.815167,119.410225 106.279496,117.196964 L101.903277,110.884636 L104.359167,109.182279 L108.555879,115.234225 C111.181414,119.021622 110.781962,121.731978 107.858564,123.757841 C104.936153,125.78469 102.223825,125.232362 99.5973041,121.444964 L95.4015781,115.392033 Z" id="Fill-23" fill="#3C3B6F"></path>
                        <path d="M112.468241,109.711233 L113.506816,108.520767 C114.573995,107.299726 114.6312,106.175342 113.616296,105.289644 C112.601392,104.402959 111.670323,104.764932 110.603145,105.985973 L109.565556,107.175452 L112.468241,109.711233 Z M120.891255,111.333699 L115.432077,110.06137 L114.32446,111.33074 L118.051693,114.585534 L116.002159,116.933918 L105.659803,107.903342 L108.913611,104.17611 C110.826049,101.985534 113.165556,100.842411 115.624405,102.989589 C117.147255,104.319123 117.463858,105.910027 117.000296,107.432877 L123.175529,108.716055 L120.891255,111.333699 Z" id="Fill-25" fill="#3C3B6F"></path>
                        <polygon id="Fill-27" fill="#3C3B6F" points="113.137644 98.8908164 117.232767 91.3140493 119.529863 92.5558027 116.917151 97.3906521 119.343452 98.7024329 121.566575 94.5905425 123.843945 95.8214466 121.622795 99.9343233 124.401205 101.435474 127.114521 96.4152 129.411616 97.6569534 125.21589 105.418159"></polygon>
                        <path d="M124.828866,88.4662027 L125.251989,86.945326 C125.685962,85.384011 125.253962,84.3454356 123.955989,83.9854356 C122.658016,83.6244493 121.97451,84.3523397 121.540537,85.9136548 L121.1184,87.4355178 L124.828866,88.4662027 Z M133.12366,86.2933808 L127.652647,87.5035726 L127.201907,89.1260384 L131.967715,90.4506411 L131.13429,93.4529425 L117.910948,89.7769973 L119.235551,85.0102027 C120.013742,82.2130521 121.63029,80.1704219 124.772647,81.0452712 C126.720592,81.5857644 127.692099,82.8827507 127.93177,84.457874 L134.054729,82.9468603 L133.12366,86.2933808 Z" id="Fill-29" fill="#3C3B6F"></path>
                        <path d="M26.5550795,39.4194082 C27.577874,37.9902575 27.4358466,36.8481205 26.2365041,35.9890521 C25.0371616,35.1299836 24.0666411,35.5550795 23.081326,36.9309699 L22.0575452,38.3601205 L25.5312986,40.8485589 L26.5550795,39.4194082 Z M18.1251616,39.4914082 L21.1304219,35.2946959 C22.9245041,32.7904767 25.2679562,31.4540384 28.0552438,33.4503123 C30.7537644,35.383463 30.4746411,38.3048877 28.7318466,40.7380932 L27.5946411,42.3250521 L31.4925041,45.1162849 L29.6224767,47.7270247 L18.1251616,39.4914082 Z" id="Fill-31" fill="#3C3B6F"></path>
                        <path d="M34.3886795,30.1641534 L35.6333918,29.1157151 C36.9106521,28.0367014 37.1453918,26.9014685 36.2498301,25.8402082 C35.3542685,24.7789479 34.3492274,25.0018521 33.0719671,26.0779068 L31.8272548,27.1283178 L34.3886795,30.1641534 Z M42.7140493,33.1339068 L37.3535014,30.9857425 L36.0259397,32.1051945 L39.3142685,36.0030575 L36.8603507,38.0742904 L27.7360767,27.2594959 L31.6339397,23.9701808 C33.9231452,22.0390027 36.4855562,21.2410849 38.6544329,23.8113863 C39.9977753,25.404263 40.0717479,27.0730849 39.361611,28.5535233 L45.4520219,30.8259616 L42.7140493,33.1339068 Z" id="Fill-33" fill="#3C3B6F"></path>
                        <path d="M51.3878795,20.1176877 C50.2003726,17.5572493 48.3855781,16.5334685 46.6339068,17.3461808 C44.9009753,18.1500164 44.490674,20.2064548 45.6791671,22.7659068 C46.8755507,25.3450849 48.7554411,26.4586192 50.4883726,25.6547836 C52.2400438,24.8420712 52.5852493,22.6958795 51.3878795,20.1176877 M42.7054685,24.1457425 C40.7604822,19.951989 42.0278795,16.4447014 45.4730301,14.8459068 C48.9388932,13.2392219 52.4244822,14.5638247 54.3615781,18.7378521 C56.3065644,22.9316055 55.1131397,26.5473863 51.648263,28.1560438 C48.2031123,29.7548384 44.6514411,28.3394959 42.7054685,24.1457425" id="Fill-35" fill="#3C3B6F"></path>
                        <path d="M56.5823342,10.9297973 L59.7306082,10.4297425 L60.9723616,18.250126 C61.4083068,20.9920438 62.4143342,21.7998247 63.9786082,21.5512767 C65.5418959,21.3017425 66.3141699,20.2138521 65.8782247,17.4709479 L64.6374575,9.65155068 L67.6801973,9.16826301 L68.870663,16.6671123 C69.6143342,21.3589479 68.0303342,23.6964822 64.4106082,24.2705096 C60.7898959,24.8465096 58.5164712,23.1204822 57.7718137,18.4286466 L56.5823342,10.9297973 Z" id="Fill-37" fill="#3C3B6F"></path>
                        <path d="M76.0896986,20.9700493 C78.4627397,21.2235288 80.2065205,20.2313096 80.5665205,16.8660493 C80.9265205,13.500789 79.4194521,12.2925699 77.046411,12.0371178 L76.4418082,11.9730082 L75.4860822,20.9049534 L76.0896986,20.9700493 Z M73.5233425,9.06341918 L77.4941918,9.48851507 C81.8092603,9.95109041 84.3410959,12.381337 83.824274,17.2152 C83.3064658,22.0470904 80.3021918,24.0177205 76.182411,23.5758575 L72.0182466,23.1300493 L73.5233425,9.06341918 Z" id="Fill-39" fill="#3C3B6F"></path>
                        <path d="M94.5858082,13.1918795 L97.4490411,14.5993315 L93.9555616,21.7076055 C92.7305753,24.2009753 93.0876164,25.4407562 94.509863,26.1390575 C95.9321096,26.8383452 97.1906301,26.3935233 98.4156164,23.9001534 L101.909096,16.7908932 L104.674685,18.1500164 L101.325205,24.9673315 C99.2293151,29.2320986 96.5860274,30.2302356 93.2937534,28.6136877 C90.0034521,26.9961534 89.1404384,24.2739616 91.2363288,20.0091945 L94.5858082,13.1918795 Z" id="Fill-41" fill="#3C3B6F"></path>
                        <path d="M103.256384,29.6078795 C103.460548,30.9147288 104.065151,32.2176329 104.961699,32.9731397 C105.973644,33.8262904 106.807068,33.847989 107.351507,33.199989 C107.924548,32.5204274 107.492548,31.7866192 106.883014,30.5922082 L105.991397,28.8198247 C105.240822,27.4222356 104.961699,25.5975781 106.28926,24.0194959 C107.799288,22.2293589 110.612219,22.1563726 112.85211,24.0451397 C114.096822,25.0925918 114.988438,26.6953315 115.135397,28.408537 L112.605534,28.9164822 C112.354027,27.7684274 111.939781,26.8787836 111.076767,26.1518795 C110.247288,25.4535781 109.392164,25.3569205 108.874356,25.9704 C108.315123,26.6341808 108.832932,27.4685918 109.456274,28.6462356 L110.35874,30.3712767 C111.22274,32.0065644 111.311507,33.5856329 110.02537,35.1134137 C108.515342,36.904537 105.707342,37.2063452 103.135068,35.0394411 C101.724658,33.8509479 100.679178,32.0617973 100.433589,30.0960986 L103.256384,29.6078795 Z" id="Fill-43" fill="#3C3B6F"></path>
                        <path d="M116.532,40.6296 L117.368384,39.5722849 C118.264932,38.4153534 119.383397,37.1193534 120.332219,35.9239562 L120.279945,35.8549151 C118.885315,36.4891068 117.329918,37.1627507 115.965863,37.6943671 L114.71326,38.1954082 L116.532,40.6296 Z M114.92137,42.6446137 L112.324438,39.1669151 L109.110082,40.4846137 L107.162137,37.8748603 L121.162685,32.9739288 L123.447945,36.0344219 L114.771452,48.0663123 L112.745589,45.3529973 L114.92137,42.6446137 Z" id="Fill-45" fill="#3C3B6F"></path>
                        <path d="M72,29.0958904 C95.6949041,29.0958904 114.90411,48.3050959 114.90411,72 C114.90411,95.6949041 95.6949041,114.90411 72,114.90411 C48.3050959,114.90411 29.0958904,95.6949041 29.0958904,72 C29.0958904,48.3050959 48.3050959,29.0958904 72,29.0958904" id="Fill-47" fill="#FFFFFF"></path>
                    </g>
                    <g id="Group-52" transform="translate(29.589041, 29.589041)">
                        <mask id="mask-2" fill="white">
                            <use xlink:href="#path-1"></use>
                        </mask>
                        <g id="Clip-51"></g>
                        <polygon id="Fill-50" fill="#FFFFFF" mask="url(#mask-2)" points="-20.8149041 105.720658 105.636822 105.720658 105.636822 -20.7310685 -20.8149041 -20.7310685"></polygon>
                    </g>
                    <g id="Group-55" transform="translate(49.315068, 29.589041)">
                        <mask id="mask-4" fill="white">
                            <use xlink:href="#path-3"></use>
                        </mask>
                        <g id="Clip-54"></g>
                        <polygon id="Fill-53" fill="#B12334" mask="url(#mask-4)" points="-21.0289315 28.4261918 66.3149589 28.4261918 66.3149589 -20.7310685 -21.0289315 -20.7310685"></polygon>
                    </g>
                    <g id="Group-58" transform="translate(36.493151, 42.410959)">
                        <mask id="mask-6" fill="white">
                            <use xlink:href="#path-5"></use>
                        </mask>
                        <g id="Clip-57"></g>
                        <polygon id="Fill-56" fill="#B12334" mask="url(#mask-6)" points="-21.1867397 28.5849863 92.1166027 28.5849863 92.1166027 -20.572274 -21.1867397 -20.572274"></polygon>
                    </g>
                    <g id="Group-61" transform="translate(30.575342, 56.219178)">
                        <mask id="mask-8" fill="white">
                            <use xlink:href="#path-7"></use>
                        </mask>
                        <g id="Clip-60"></g>
                        <polygon id="Fill-59" fill="#B12334" mask="url(#mask-8)" points="-20.7961644 27.9241644 103.561644 27.9241644 103.561644 -21.2330959 -20.7961644 -21.2330959"></polygon>
                    </g>
                    <g id="Group-64" transform="translate(29.589041, 69.041096)">
                        <mask id="mask-10" fill="white">
                            <use xlink:href="#path-9"></use>
                        </mask>
                        <g id="Clip-63"></g>
                        <polygon id="Fill-62" fill="#B12334" mask="url(#mask-10)" points="-20.8149041 27.8304658 105.636822 27.8304658 105.636822 -21.3267945 -20.8149041 -21.3267945"></polygon>
                    </g>
                    <g id="Group-67" transform="translate(30.575342, 80.876712)">
                        <mask id="mask-12" fill="white">
                            <use xlink:href="#path-11"></use>
                        </mask>
                        <g id="Clip-66"></g>
                        <polygon id="Fill-65" fill="#B12334" mask="url(#mask-12)" points="-20.7123288 28.6402192 103.477808 28.6402192 103.477808 -20.5170411 -20.7123288 -20.5170411"></polygon>
                    </g>
                    <g id="Group-70" transform="translate(36.493151, 94.684932)">
                        <mask id="mask-14" fill="white">
                            <use xlink:href="#path-13"></use>
                        </mask>
                        <g id="Clip-69"></g>
                        <polygon id="Fill-68" fill="#B12334" mask="url(#mask-14)" points="-20.9352329 28.0632329 91.9499178 28.0632329 91.9499178 -21.0940274 -20.9352329 -21.0940274"></polygon>
                    </g>
                    <g id="Group-73" transform="translate(49.315068, 107.506849)">
                        <mask id="mask-16" fill="white">
                            <use xlink:href="#path-15"></use>
                        </mask>
                        <g id="Clip-72"></g>
                        <polygon id="Fill-71" fill="#B12334" mask="url(#mask-16)" points="-20.8612603 27.8028493 66.2311233 27.8028493 66.2311233 -21.2705753 -20.8612603 -21.2705753"></polygon>
                    </g>
                    <g id="Group-76" transform="translate(29.589041, 29.589041)">
                        <mask id="mask-18" fill="white">
                            <use xlink:href="#path-17"></use>
                        </mask>
                        <g id="Clip-75"></g>
                        <polygon id="Fill-74" fill="#3C3B6F" mask="url(#mask-18)" points="-20.8149041 67.2825205 63.7653699 67.2825205 63.7653699 -20.7310685 -20.8149041 -20.7310685"></polygon>
                    </g>
                    <g id="Group-79" transform="translate(53.260274, 32.547945)">
                        <mask id="mask-20" fill="white">
                            <use xlink:href="#path-19"></use>
                        </mask>
                        <g id="Clip-78"></g>
                        <polygon id="Fill-77" fill="#FFFFFF" mask="url(#mask-20)" points="-20.5357808 26.2208219 26.8629041 26.2208219 26.8629041 -20.7586849 -20.5357808 -20.7586849"></polygon>
                    </g>
                    <g id="Group-82" transform="translate(64.109589, 31.561644)">
                        <mask id="mask-22" fill="white">
                            <use xlink:href="#path-21"></use>
                        </mask>
                        <g id="Clip-81"></g>
                        <polygon id="Fill-80" fill="#FFFFFF" mask="url(#mask-22)" points="-20.7498082 27.2071233 26.8993973 27.2071233 26.8993973 -20.6097534 -20.7498082 -20.6097534"></polygon>
                    </g>
                    <g id="Group-85" transform="translate(42.410959, 40.438356)">
                        <mask id="mask-24" fill="white">
                            <use xlink:href="#path-23"></use>
                        </mask>
                        <g id="Clip-84"></g>
                        <polygon id="Fill-83" fill="#FFFFFF" mask="url(#mask-24)" points="-20.405589 27.2909589 27.3274521 27.2909589 27.3274521 -20.4420822 -20.405589 -20.4420822"></polygon>
                    </g>
                    <g id="Group-88" transform="translate(53.260274, 40.438356)">
                        <mask id="mask-26" fill="white">
                            <use xlink:href="#path-25"></use>
                        </mask>
                        <g id="Clip-87"></g>
                        <polygon id="Fill-86" fill="#FFFFFF" mask="url(#mask-26)" points="-20.6196164 27.2909589 27.029589 27.2909589 27.029589 -20.4420822 -20.6196164 -20.4420822"></polygon>
                    </g>
                    <g id="Group-91" transform="translate(64.109589, 40.438356)">
                        <mask id="mask-28" fill="white">
                            <use xlink:href="#path-27"></use>
                        </mask>
                        <g id="Clip-90"></g>
                        <polygon id="Fill-89" fill="#FFFFFF" mask="url(#mask-28)" points="-20.7498082 27.2909589 26.8993973 27.2909589 26.8993973 -20.4420822 -20.7498082 -20.4420822"></polygon>
                    </g>
                    <g id="Group-94" transform="translate(48.328767, 36.493151)">
                        <mask id="mask-30" fill="white">
                            <use xlink:href="#path-29"></use>
                        </mask>
                        <g id="Clip-93"></g>
                        <polygon id="Fill-92" fill="#FFFFFF" mask="url(#mask-30)" points="-20.9638356 26.7139726 26.6853699 26.7139726 26.6853699 -21.0190685 -20.9638356 -21.0190685"></polygon>
                    </g>
                    <g id="Group-97" transform="translate(59.178082, 36.493151)">
                        <mask id="mask-32" fill="white">
                            <use xlink:href="#path-31"></use>
                        </mask>
                        <g id="Clip-96"></g>
                        <polygon id="Fill-95" fill="#FFFFFF" mask="url(#mask-32)" points="-21.2616986 26.7139726 26.3875068 26.7139726 26.3875068 -21.0190685 -21.2616986 -21.0190685"></polygon>
                    </g>
                    <g id="Group-100" transform="translate(33.534247, 51.287671)">
                        <mask id="mask-34" fill="white">
                            <use xlink:href="#path-33"></use>
                        </mask>
                        <g id="Clip-99"></g>
                        <polygon id="Fill-98" fill="#FFFFFF" mask="url(#mask-34)" points="-21.1591233 25.5688767 25.5688767 25.5688767 25.5688767 -21.3267945 -21.1591233 -21.3267945"></polygon>
                    </g>
                    <g id="Group-103" transform="translate(42.410959, 50.301370)">
                        <mask id="mask-36" fill="white">
                            <use xlink:href="#path-35"></use>
                        </mask>
                        <g id="Clip-102"></g>
                        <polygon id="Fill-101" fill="#FFFFFF" mask="url(#mask-36)" points="-20.405589 26.5551781 27.3274521 26.5551781 27.3274521 -21.2616986 -20.405589 -21.2616986"></polygon>
                    </g>
                    <g id="Group-106" transform="translate(53.260274, 50.301370)">
                        <mask id="mask-38" fill="white">
                            <use xlink:href="#path-37"></use>
                        </mask>
                        <g id="Clip-105"></g>
                        <polygon id="Fill-104" fill="#FFFFFF" mask="url(#mask-38)" points="-20.6196164 26.5551781 27.029589 26.5551781 27.029589 -21.2616986 -20.6196164 -21.2616986"></polygon>
                    </g>
                    <g id="Group-109" transform="translate(64.109589, 50.301370)">
                        <mask id="mask-40" fill="white">
                            <use xlink:href="#path-39"></use>
                        </mask>
                        <g id="Clip-108"></g>
                        <polygon id="Fill-107" fill="#FFFFFF" mask="url(#mask-40)" points="-20.7498082 26.5551781 26.8993973 26.5551781 26.8993973 -21.2616986 -20.7498082 -21.2616986"></polygon>
                    </g>
                    <g id="Group-112" transform="translate(37.479452, 45.369863)">
                        <mask id="mask-42" fill="white">
                            <use xlink:href="#path-41"></use>
                        </mask>
                        <g id="Clip-111"></g>
                        <polygon id="Fill-110" fill="#FFFFFF" mask="url(#mask-42)" points="-20.7498082 26.9644932 26.9832329 26.9644932 26.9832329 -20.8523836 -20.7498082 -20.8523836"></polygon>
                    </g>
                    <g id="Group-115" transform="translate(48.328767, 45.369863)">
                        <mask id="mask-44" fill="white">
                            <use xlink:href="#path-43"></use>
                        </mask>
                        <g id="Clip-114"></g>
                        <polygon id="Fill-113" fill="#FFFFFF" mask="url(#mask-44)" points="-20.9638356 26.9644932 26.6853699 26.9644932 26.6853699 -20.8523836 -20.9638356 -20.8523836"></polygon>
                    </g>
                    <g id="Group-118" transform="translate(59.178082, 45.369863)">
                        <mask id="mask-46" fill="white">
                            <use xlink:href="#path-45"></use>
                        </mask>
                        <g id="Clip-117"></g>
                        <polygon id="Fill-116" fill="#FFFFFF" mask="url(#mask-46)" points="-21.2616986 26.9644932 26.3875068 26.9644932 26.3875068 -20.8523836 -21.2616986 -20.8523836"></polygon>
                    </g>
                    <g id="Group-121" transform="translate(32.547945, 59.178082)">
                        <mask id="mask-48" fill="white">
                            <use xlink:href="#path-47"></use>
                        </mask>
                        <g id="Clip-120"></g>
                        <polygon id="Fill-119" fill="#FFFFFF" mask="url(#mask-48)" points="-21.0940274 26.5551781 26.6390137 26.5551781 26.6390137 -21.2616986 -21.0940274 -21.2616986"></polygon>
                    </g>
                    <g id="Group-124" transform="translate(42.410959, 59.178082)">
                        <mask id="mask-50" fill="white">
                            <use xlink:href="#path-49"></use>
                        </mask>
                        <g id="Clip-123"></g>
                        <polygon id="Fill-122" fill="#FFFFFF" mask="url(#mask-50)" points="-20.405589 26.5551781 27.3274521 26.5551781 27.3274521 -21.2616986 -20.405589 -21.2616986"></polygon>
                    </g>
                    <g id="Group-127" transform="translate(53.260274, 59.178082)">
                        <mask id="mask-52" fill="white">
                            <use xlink:href="#path-51"></use>
                        </mask>
                        <g id="Clip-126"></g>
                        <polygon id="Fill-125" fill="#FFFFFF" mask="url(#mask-52)" points="-20.6196164 26.5551781 27.029589 26.5551781 27.029589 -21.2616986 -20.6196164 -21.2616986"></polygon>
                    </g>
                    <g id="Group-130" transform="translate(64.109589, 59.178082)">
                        <mask id="mask-54" fill="white">
                            <use xlink:href="#path-53"></use>
                        </mask>
                        <g id="Clip-129"></g>
                        <polygon id="Fill-128" fill="#FFFFFF" mask="url(#mask-54)" points="-20.7498082 26.5551781 26.8993973 26.5551781 26.8993973 -21.2616986 -20.7498082 -21.2616986"></polygon>
                    </g>
                    <g id="Group-133" transform="translate(37.479452, 54.246575)">
                        <mask id="mask-56" fill="white">
                            <use xlink:href="#path-55"></use>
                        </mask>
                        <g id="Clip-132"></g>
                        <polygon id="Fill-131" fill="#FFFFFF" mask="url(#mask-56)" points="-20.7498082 26.9644932 26.9832329 26.9644932 26.9832329 -20.8523836 -20.7498082 -20.8523836"></polygon>
                    </g>
                    <g id="Group-136" transform="translate(48.328767, 54.246575)">
                        <mask id="mask-58" fill="white">
                            <use xlink:href="#path-57"></use>
                        </mask>
                        <g id="Clip-135"></g>
                        <polygon id="Fill-134" fill="#FFFFFF" mask="url(#mask-58)" points="-20.9638356 26.9644932 26.6853699 26.9644932 26.6853699 -20.8523836 -20.9638356 -20.8523836"></polygon>
                    </g>
                    <g id="Group-139" transform="translate(59.178082, 54.246575)">
                        <mask id="mask-60" fill="white">
                            <use xlink:href="#path-59"></use>
                        </mask>
                        <g id="Clip-138"></g>
                        <polygon id="Fill-137" fill="#FFFFFF" mask="url(#mask-60)" points="-21.2616986 26.9644932 26.3875068 26.9644932 26.3875068 -20.8523836 -21.2616986 -20.8523836"></polygon>
                    </g>
                    <g id="Group-142" transform="translate(32.547945, 68.054795)">
                        <mask id="mask-62" fill="white">
                            <use xlink:href="#path-61"></use>
                        </mask>
                        <g id="Clip-141"></g>
                        <polygon id="Fill-140" fill="#FFFFFF" mask="url(#mask-62)" points="-21.0940274 26.8066849 26.6390137 26.8066849 26.6390137 -21.0101918 -21.0940274 -21.0101918"></polygon>
                    </g>
                    <g id="Group-145" transform="translate(42.410959, 68.054795)">
                        <mask id="mask-64" fill="white">
                            <use xlink:href="#path-63"></use>
                        </mask>
                        <g id="Clip-144"></g>
                        <polygon id="Fill-143" fill="#FFFFFF" mask="url(#mask-64)" points="-20.405589 26.8066849 27.3274521 26.8066849 27.3274521 -21.0101918 -20.405589 -21.0101918"></polygon>
                    </g>
                    <g id="Group-148" transform="translate(53.260274, 68.054795)">
                        <mask id="mask-66" fill="white">
                            <use xlink:href="#path-65"></use>
                        </mask>
                        <g id="Clip-147"></g>
                        <polygon id="Fill-146" fill="#FFFFFF" mask="url(#mask-66)" points="-20.6196164 26.8066849 27.029589 26.8066849 27.029589 -21.0101918 -20.6196164 -21.0101918"></polygon>
                    </g>
                    <g id="Group-151" transform="translate(64.109589, 68.054795)">
                        <mask id="mask-68" fill="white">
                            <use xlink:href="#path-67"></use>
                        </mask>
                        <g id="Clip-150"></g>
                        <polygon id="Fill-149" fill="#FFFFFF" mask="url(#mask-68)" points="-20.7498082 26.8066849 26.8993973 26.8066849 26.8993973 -21.0101918 -20.7498082 -21.0101918"></polygon>
                    </g>
                    <g id="Group-154" transform="translate(37.479452, 63.123288)">
                        <mask id="mask-70" fill="white">
                            <use xlink:href="#path-69"></use>
                        </mask>
                        <g id="Clip-153"></g>
                        <polygon id="Fill-152" fill="#FFFFFF" mask="url(#mask-70)" points="-20.7498082 27.216 26.9832329 27.216 26.9832329 -20.6008767 -20.7498082 -20.6008767"></polygon>
                    </g>
                    <g id="Group-157" transform="translate(48.328767, 63.123288)">
                        <mask id="mask-72" fill="white">
                            <use xlink:href="#path-71"></use>
                        </mask>
                        <g id="Clip-156"></g>
                        <polygon id="Fill-155" fill="#FFFFFF" mask="url(#mask-72)" points="-20.9638356 27.216 26.6853699 27.216 26.6853699 -20.6008767 -20.9638356 -20.6008767"></polygon>
                    </g>
                    <g id="Group-160" transform="translate(59.178082, 63.123288)">
                        <mask id="mask-74" fill="white">
                            <use xlink:href="#path-73"></use>
                        </mask>
                        <g id="Clip-159"></g>
                        <polygon id="Fill-158" fill="#FFFFFF" mask="url(#mask-74)" points="-21.2616986 27.216 26.3875068 27.216 26.3875068 -20.6008767 -21.2616986 -20.6008767"></polygon>
                    </g>
                    <g id="Group-165" transform="translate(9.863014, 59.178082)" fill="#B12334">
                        <polygon id="Fill-161" points="117.922784 9.11736986 114.265578 11.7576986 115.6464 7.46334247 112.004975 4.80131507 116.516318 4.78849315 117.922784 0.502027397 119.329249 4.78849315 123.840592 4.80131507 120.199167 7.46334247 121.579989 11.7576986"></polygon>
                        <polygon id="Fill-163" points="6.4109589 9.11736986 2.75375342 11.7576986 4.13457534 7.46334247 0.493150685 4.80131507 5.00449315 4.78849315 6.4109589 0.502027397 7.81742466 4.78849315 12.3287671 4.80131507 8.68734247 7.46334247 10.0681644 11.7576986"></polygon>
                    </g>
                </g>
            </g>
        </g>
    </g>
</svg>