<?xml version="1.0" encoding="UTF-8" standalone="no"?><svg viewBox="0 0 266 31" xmlns="http://www.w3.org/2000/svg"><g fill="#1A1918" fill-rule="evenodd"><path d="M59.641 21.061h7.449c2.128 0 4.158.618 4.158 2.318 0 1.518-1.721 2.34-4.796 2.34h-5.38v3.375h-1.431v-8.033zm1.431 3.892h5.535c2.399 0 3.094-.64 3.094-1.574 0-1.205-1.16-1.553-2.804-1.553h-5.825v3.127zM75.197 21.061h7.526c2.342 0 4.49.484 4.49 2.171 0 .855-.91 1.711-2.709 1.946v.022c1.953.181 2.359.912 2.457 2.228.037.507.154 1.485.484 1.666h-1.548c-.252-.17-.35-.766-.368-1.643-.039-1.418-.966-1.889-3.347-1.889h-5.553v3.532h-1.432v-8.033zm1.432 3.735h6.057c1.566 0 2.978-.337 2.978-1.564 0-1.18-1.529-1.406-2.844-1.406h-6.191v2.97zM98.199 20.858c3.93 0 7.508 1.384 7.508 4.218 0 2.835-3.578 4.22-7.508 4.22-3.926 0-7.504-1.385-7.504-4.22 0-2.834 3.578-4.218 7.504-4.218zm0 7.672c3.039 0 5.963-1.035 5.963-3.454 0-2.418-2.924-3.452-5.963-3.452-3.035 0-5.957 1.034-5.957 3.452 0 2.419 2.922 3.454 5.957 3.454zM109.656 21.061h6.713c4.024 0 6.113 1.496 6.113 4.015 0 2.262-2.031 4.018-5.9 4.018h-6.926v-8.033zm1.43 7.267h5.224c2.477 0 4.624-.787 4.624-3.252 0-2.126-1.43-3.25-4.624-3.25h-5.224v6.502zM139.065 25.988c0 1.463-.698 3.308-6.172 3.308-5.477 0-6.172-1.845-6.172-3.308v-4.927h1.431v4.927c0 2.105 2.34 2.542 4.741 2.542 2.398 0 4.738-.437 4.738-2.542v-4.927h1.434v4.927M157.326 26.033c-.308 1.801-2.863 3.263-6.826 3.263-4.49 0-7.353-1.642-7.353-4.22 0-1.833 1.953-4.218 7.353-4.218 3.016 0 6.287.799 6.713 2.915h-1.434c-.425-1.531-2.785-2.149-5.279-2.149-3.426 0-5.807 1.113-5.807 3.452 0 1.789 1.608 3.454 5.807 3.454 3.287 0 4.914-.967 5.397-2.497h1.429M165.434 21.826h-5.416v-.765h12.267v.765h-5.418v7.268h-1.433v-7.268M184.82 23.356c-.191-1.373-2.111-1.732-4.332-1.732-2.226 0-3.908.505-3.908 1.416 0 1.047 1.682 1.295 5.049 1.62 2.516.249 5.031.586 5.031 2.126 0 1.97-3.076 2.51-5.767 2.51-3.502 0-6.057-.698-6.27-2.857h1.436c.25 1.687 2.183 2.091 4.834 2.091 2.07 0 4.218-.326 4.218-1.596 0-1.228-2.515-1.372-5.031-1.61-3.287-.303-5.049-.843-5.049-2.136 0-1.755 2.785-2.33 5.457-2.33 2.825 0 5.666.584 5.766 2.498h-1.434M190.897 27.856h1.665v1.26c0 .934-.775 1.384-1.839 1.553v-.429c.775-.202.869-.585.869-1.146h-.695v-1.238M202.355 20.923h1.49v8.16h-1.49v-8.16zM208.492 20.923h1.666l9.121 6.902h.043v-6.902h1.493v8.16h-1.667l-9.121-6.903h-.043v6.903h-1.492v-8.16M225.35 20.923h5.416c4.712.057 7.189 1.405 7.189 4.08 0 2.674-2.477 4.022-7.189 4.08h-5.416v-8.16zm1.49 7.496h3.18c4.494.013 6.445-.981 6.445-3.416s-1.951-3.429-6.445-3.417h-3.18v6.833zM241.877 20.923h1.49v8.16h-1.49v-8.16zM252.619 20.923h1.666l6.139 8.16h-1.602l-1.906-2.537h-7.127l-1.885 2.537h-1.599l6.314-8.16zm-2.369 4.96h6.162l-3.025-4.183-3.137 4.183z"/><g><path d="M80 0v9.955C80 15.29 76.67 16 71.838 16c-1.351 0-2.726-.024-4.075-.024-5.198 0-8.763-.188-8.763-6.259V0h4.957v8.289c.1 2.974.27 3.736 3.56 3.808l2.233.024 2.063-.024c2.798 0 3.117-.761 3.19-3.118V0H80M88.883 12.009H100V16H84V0h4.883v12.009M109.924 16H105.1V3.991H98V0h19v3.991h-7.076V16M127 8V4h7.751c.437 0 .919.023 1.332.14.87.255.895.883.917 1.697 0 1.72-.183 2.163-2.362 2.163H127zm-5 8h4.798v-4.101h8.037c2.016 0 2.086.819 2.086 2.578V16h4.89v-3.065c0-2.21-1.211-2.809-3.234-3.072 1.002-.335 2.14-.55 2.758-1.509.594-.96.665-2.189.665-3.295C142 1.197 140.432 0 136.709 0H122v16zM162 9h-7l3.499-6L162 9zm1.18 4.11l1.496 2.89H170l-8.648-16h-6.51L146 16h5.371l1.567-2.89h10.243zM179 12V4h7.827C189.955 4 190 5.224 190 7.906v.141c0 2.753-.204 3.953-3.242 3.953H179zm-5 4h15.588c2.728 0 4.753-1.345 5.222-4.13.19-1.224.19-2.522.19-3.77v-.913C195 1.41 193.424 0 187.823 0H174v16zM200 0h18v3.635h-13.099v2.747h12.228v3.165H204.9V12.4H218V16h-18V0M244 16h-7.752L226.58 3.973V16H222V0h7.757l9.666 12.003V0H244v16M258.924 16H254.1V3.991H247V0h19v3.991h-7.076V16M0 1.954s.007 21.173 0 23.128C-.005 27.038 1.784 29 3.574 29h25.62c1.79 0 3.61-1.962 3.61-3.918V9.285c0-.978.816-1.927 1.712-1.927h6.814c2.24 0 2.24 3.474.041 3.474-1.856 0-3.173-.028-4.27-.028-.893 0-1.74.978-1.74 1.955v3.148c0 1.467.447 1.955 1.74 1.955h14.08c1.342 0 1.819-.488 1.819-1.955v-12C53 1.954 51.181 0 49.388 0c-3.793 0-28.005.011-28.901.011-.896 0-1.744.967-1.744 1.943v13.419c0 2.707-3.197 2.707-3.197 0V1.954c0-.976-.928-1.943-1.823-1.943H1.784C.89.011 0 .978 0 1.954"/><path d="M51.17 29c1.372 0 1.83-.513 1.83-2.028v-4.947C53 20.507 52.542 20 51.17 20H36.78C35.407 20 35 20.507 35 22.025v4.947c0 1.515.456 2.028 1.779 2.028h14.392M54.533 1c.219 0 .45.121.45.536 0 .248-.087.417-.231.504.21.106.206.334.212.636.003.111.003.228.036.324h-.158a.748.748 0 0 1-.028-.217c-.012-.44.022-.657-.343-.657h-.31V3H54V1h.533zM54 1.72h.419c.234 0 .453-.071.453-.375 0-.274-.206-.345-.421-.345H54v.72zm2-.22c0 .821-.676 1.5-1.497 1.5A1.505 1.505 0 0 1 53 1.5c0-.826.676-1.5 1.503-1.5C55.324 0 56 .677 56 1.5zm-3-.003C53 2.315 53.67 3 54.505 3 55.34 3 56 2.312 56 1.497 56 .68 55.34 0 54.505 0 53.669 0 53 .68 53 1.497z"/></g></g></svg>