<?xml version="1.0" encoding="UTF-8" standalone="no"?><svg viewBox="0 0 266 65" xmlns="http://www.w3.org/2000/svg"><g fill="#FFF" fill-rule="evenodd"><path d="M14.491 41.577h1.454l-3.449 16.508h-1.453l3.448-16.508M17.83 45.808h1.227l-.357 1.71h.046c.92-1.363 2.141-1.988 3.481-1.988 1.454 0 2.151.903 2.072 2.15h.045c.83-1.364 1.972-2.15 3.516-2.15 1.68 0 2.591.972 2.132 3.168l-1.962 9.387h-1.363l1.919-9.179c.304-1.457-.195-2.219-1.422-2.219-1.363 0-2.714 1.248-3.11 3.144l-1.724 8.254h-1.364l1.918-9.179c.305-1.457-.194-2.219-1.42-2.219-1.363 0-2.714 1.248-3.11 3.144l-1.725 8.254h-1.363l2.565-12.277M33.181 45.808h1.227l-.367 1.757h.046c.667-1.132 1.856-2.035 3.4-2.035 2.68 0 3.385 2.174 2.495 6.428-.884 4.231-2.542 6.404-5.199 6.404-1.5 0-2.347-.832-2.372-2.127h-.045l-1.237 5.92h-1.363l3.415-16.347zm3.86.879c-.772 0-1.541.416-2.135 1.086-.77.856-1.202 2.058-1.647 4.185-.947 4.532.153 5.248 1.538 5.248 1.363 0 2.785-.716 3.731-5.248.933-4.463-.17-5.271-1.487-5.271zM43.4 45.808h1.363l-.401 1.92h.045c.808-1.365 2.095-2.198 3.503-2.198.159 0 .313.024.463.07l-.29 1.387a3.159 3.159 0 0 0-.645-.069c-1.499 0-3.139 1.11-3.636 3.49l-1.605 7.677h-1.362L43.4 45.808M53.291 45.53c2.658 0 3.707 2.15 2.818 6.405-.893 4.277-2.842 6.427-5.499 6.427-2.658 0-3.707-2.15-2.813-6.427.888-4.255 2.837-6.405 5.494-6.405zm-2.439 11.676c1.521 0 2.982-1.34 3.803-5.27.817-3.908-.084-5.249-1.606-5.249s-2.982 1.34-3.799 5.248c-.82 3.93.08 5.271 1.602 5.271zM58.227 45.808h1.454l.444 10.705h.045l4.69-10.705h1.454L60.57 58.085h-1.545l-.797-12.277M67.879 45.808h1.363l-2.565 12.277h-1.363l2.565-12.277zm.884-4.231h1.364l-.494 2.358h-1.362l.492-2.358zM71.967 45.808h1.226l-.358 1.71h.046c.966-1.363 2.278-1.988 3.504-1.988 1.84 0 2.886.972 2.404 3.284l-1.938 9.271h-1.363l1.855-8.878c.353-1.688-.155-2.52-1.54-2.52-1.59 0-2.918 1.248-3.314 3.144l-1.725 8.254H69.4l2.566-12.277M88.272 45.808h1.226l-2.381 11.398c-.71 3.4-2.3 5.133-5.025 5.133-2.34 0-3.305-1.248-2.96-3.005h1.362c-.242 1.156.681 1.85 1.885 1.85 1.658 0 2.79-1.18 3.244-3.353l.406-1.942h-.045c-.746 1.502-2.027 2.196-3.276 2.196-1.862 0-3.463-1.249-2.44-6.15.884-4.231 2.543-6.405 5.199-6.405 1.319 0 2.22.786 2.363 2.174h.046l.396-1.896zM83.245 56.93c1.613 0 2.819-1.202 3.64-5.133.816-3.907.113-5.109-1.5-5.109-1.612 0-2.818 1.202-3.634 5.11-.82 3.93-.119 5.132 1.494 5.132zM103.519 41.3c3.315 0 4.632 2.613 3.396 8.531-1.237 5.92-3.646 8.531-6.961 8.531-3.316 0-4.633-2.612-3.396-8.53 1.237-5.92 3.645-8.532 6.96-8.532zm-3.304 15.814c2.316 0 4.13-1.942 5.247-7.283 1.115-5.341.112-7.283-2.204-7.283-2.317 0-4.131 1.942-5.247 7.283-1.115 5.34-.113 7.283 2.204 7.283zM110.206 45.808h1.363l-.402 1.92h.046c.807-1.365 2.094-2.198 3.503-2.198.158 0 .312.024.462.07l-.29 1.387a3.172 3.172 0 0 0-.644-.069c-1.5 0-3.14 1.11-3.637 3.49l-1.603 7.677h-1.363l2.565-12.277M115.506 49.461c.526-2.52 2.002-3.93 4.546-3.93 2.498 0 3.131 1.318 2.726 3.26l-1.517 7.26c-.145.693.014 1.017.492 1.017h.385l-.212 1.017c-.27.093-.484.139-.665.139-1.067 0-1.696-.254-1.43-1.526l.086-.416h-.045c-.883 1.618-2.206 2.08-3.546 2.08-2.113 0-2.786-1.34-2.342-3.467.339-1.619 1.336-2.914 3.14-3.399l2.722-.74c1.012-.278 1.264-.509 1.564-1.942.328-1.573-.419-2.127-1.645-2.127-1.613 0-2.525.993-2.896 2.774h-1.363zm5.416 1.688h-.046c-.223.416-1.048.67-1.623.809l-1.197.301c-1.44.37-2.295 1.087-2.6 2.543-.298 1.434.226 2.404 1.407 2.404 1.658 0 3.06-1.271 3.518-3.468l.541-2.59zM127.166 41.577h1.363l-3.449 16.508h-1.363l3.45-16.508M142.72 49.854h-6.338l-1.72 8.231h-1.454l3.45-16.508h1.454l-1.469 7.028h6.337l1.47-7.028h1.452l-3.448 16.508H141l1.72-8.231M153.317 54.016c-.75 2.613-2.52 4.346-4.792 4.346-2.544 0-3.666-1.803-2.7-6.427.89-4.255 2.837-6.405 5.495-6.405 2.68 0 3.492 1.873 2.638 5.966l-.107.509h-6.587l-.12.577c-.74 3.538.26 4.624 1.6 4.624 1.43 0 2.534-1.04 3.21-3.19h1.363zm-.678-3.168c.593-3.051-.017-4.161-1.697-4.161-1.68 0-2.753 1.11-3.436 4.161h5.133zM156.266 49.461c.527-2.52 2.002-3.93 4.545-3.93 2.5 0 3.133 1.318 2.727 3.26l-1.517 7.26c-.146.693.014 1.017.492 1.017h.385l-.212 1.017c-.27.093-.484.139-.665.139-1.067 0-1.696-.254-1.43-1.526l.087-.416h-.045c-.883 1.618-2.207 2.08-3.547 2.08-2.112 0-2.786-1.34-2.341-3.467.338-1.619 1.335-2.914 3.14-3.399l2.721-.74c1.012-.278 1.265-.509 1.564-1.942.33-1.573-.418-2.127-1.645-2.127-1.612 0-2.524.993-2.896 2.774h-1.363zm5.416 1.688h-.045c-.223.416-1.05.67-1.622.809l-1.199.301c-1.44.37-2.295 1.087-2.599 2.543-.299 1.434.225 2.404 1.406 2.404 1.658 0 3.06-1.271 3.519-3.468l.54-2.59zM167.927 41.577h1.362l-3.449 16.508h-1.362l3.45-16.508M171.389 46.964h-1.658l.24-1.156h1.658l.711-3.399h1.363l-.71 3.4h2.135l-.242 1.155h-2.136l-1.84 8.809c-.203.971.14 1.295 1.025 1.295.273 0 .554-.047.87-.139l-.243 1.156c-.178.093-.528.139-.982.139-1.84 0-2.438-.509-2.095-2.15l1.904-9.11M177.486 41.577h1.364l-1.242 5.942h.046c.601-1.249 1.937-1.989 3.367-1.989 1.841 0 2.887.972 2.404 3.284l-1.937 9.271h-1.363l1.855-8.878c.352-1.688-.155-2.52-1.54-2.52-1.59 0-2.919 1.248-3.315 3.144l-1.724 8.254h-1.364l3.45-16.508M195.61 50.918l.26-1.249h5.202l-1.759 8.416h-1.135l.57-2.728h-.046c-.881 1.827-2.58 3.005-4.194 3.005-3.316 0-4.633-2.612-3.396-8.53 1.237-5.92 3.645-8.532 6.961-8.532 3.09 0 4.045 2.057 3.633 4.902h-1.454c.416-1.99-.304-3.654-2.44-3.654-2.317 0-4.13 1.942-5.246 7.283-1.116 5.34-.114 7.283 2.203 7.283 2.18 0 3.8-1.988 4.607-5.85l.072-.346h-3.838M205.304 41.577h1.361l-3.448 16.508h-1.363l3.45-16.508M212.085 45.53c2.657 0 3.707 2.15 2.818 6.405-.894 4.277-2.842 6.427-5.499 6.427-2.658 0-3.707-2.15-2.813-6.427.888-4.255 2.836-6.405 5.494-6.405zm-2.44 11.676c1.522 0 2.983-1.34 3.804-5.27.818-3.908-.084-5.249-1.606-5.249-1.521 0-2.983 1.34-3.799 5.248-.82 3.93.08 5.271 1.6 5.271zM218.929 41.577h1.361l-1.27 6.08h.045c.567-1.294 1.762-2.127 3.262-2.127 2.657 0 3.407 2.174 2.523 6.405-.89 4.254-2.548 6.427-5.204 6.427-1.431 0-2.402-.901-2.47-2.311h-.045l-.425 2.034h-1.227l3.45-16.508zm.73 15.63c1.364 0 2.786-.717 3.738-5.272.946-4.532-.176-5.248-1.539-5.248-1.385 0-2.785.716-3.731 5.248-.952 4.555.147 5.271 1.533 5.271zM227.25 49.461c.526-2.52 2.001-3.93 4.545-3.93 2.5 0 3.133 1.318 2.727 3.26l-1.518 7.26c-.145.693.015 1.017.492 1.017h.386l-.212 1.017c-.27.093-.484.139-.665.139-1.068 0-1.696-.254-1.43-1.526l.086-.416h-.044c-.884 1.618-2.207 2.08-3.547 2.08-2.112 0-2.787-1.34-2.341-3.467.338-1.619 1.334-2.914 3.14-3.399l2.72-.74c1.012-.278 1.265-.509 1.565-1.942.328-1.573-.419-2.127-1.645-2.127-1.612 0-2.525.993-2.896 2.774h-1.363zm5.416 1.688h-.046c-.223.416-1.049.67-1.621.809l-1.2.301c-1.44.37-2.294 1.087-2.598 2.543-.3 1.434.225 2.404 1.406 2.404 1.658 0 3.059-1.271 3.518-3.468l.54-2.59zM238.91 41.577h1.363l-3.449 16.508h-1.362l3.449-16.508M243.09 41.577h1.361l-3.449 16.508h-1.363l3.45-16.508M245.223 45.808h1.453l.481 10.636h.045l4.653-10.636h1.454l-6.294 13.271c-1.139 2.405-2.005 3.075-3.845 3.075-.363 0-.632-.023-.899-.046l.241-1.156c.29.023.582.046.877.046.84 0 1.48-.347 2.137-1.642l.583-1.155-.886-12.393"/><g><path d="M59.694 20.417h8.132c2.322 0 4.539.675 4.539 2.53 0 1.657-1.879 2.554-5.236 2.554h-5.871v3.684h-1.564v-8.768zm1.564 4.249h6.04c2.618 0 3.378-.7 3.378-1.719 0-1.314-1.267-1.695-3.063-1.695h-6.355v3.414zM76.674 20.417h8.215c2.554 0 4.899.528 4.899 2.37 0 .933-.993 1.867-2.957 2.125v.023c2.133.198 2.576.995 2.683 2.432.041.553.168 1.621.527 1.818h-1.689c-.274-.185-.381-.836-.401-1.793-.043-1.548-1.056-2.063-3.654-2.063h-6.061v3.856h-1.562v-8.768zm1.562 4.076h6.61c1.711 0 3.252-.368 3.252-1.706 0-1.289-1.668-1.535-3.104-1.535h-6.758v3.241zM101.781 20.196c4.287 0 8.195 1.511 8.195 4.605 0 3.094-3.908 4.604-8.195 4.604-4.285 0-8.192-1.51-8.192-4.604 0-3.094 3.907-4.605 8.192-4.605zm0 8.375c3.317 0 6.506-1.13 6.506-3.77 0-2.641-3.189-3.769-6.506-3.769-3.313 0-6.502 1.128-6.502 3.769 0 2.64 3.189 3.77 6.502 3.77zM114.284 20.417h7.329c4.392 0 6.672 1.633 6.672 4.384 0 2.468-2.217 4.384-6.44 4.384h-7.561v-8.768zm1.564 7.932h5.701c2.703 0 5.046-.858 5.046-3.548 0-2.322-1.562-3.549-5.046-3.549h-5.701v7.097zM146.385 25.795c0 1.597-.762 3.61-6.737 3.61-5.977 0-6.738-2.013-6.738-3.61v-5.378h1.564v5.378c0 2.297 2.553 2.776 5.174 2.776 2.618 0 5.172-.479 5.172-2.776v-5.378h1.565v5.378M166.318 25.844c-.336 1.966-3.125 3.561-7.453 3.561-4.898 0-8.025-1.792-8.025-4.604 0-2.001 2.133-4.605 8.025-4.605 3.293 0 6.863.872 7.328 3.18h-1.564c-.465-1.669-3.041-2.344-5.764-2.344-3.738 0-6.336 1.215-6.336 3.769 0 1.952 1.752 3.77 6.336 3.77 3.588 0 5.363-1.056 5.893-2.727h1.56M175.168 21.252h-5.914v-.835h13.389v.835h-5.913v7.933h-1.562v-7.933M196.328 22.922c-.211-1.498-2.303-1.89-4.73-1.89-2.43 0-4.266.552-4.266 1.546 0 1.142 1.836 1.413 5.51 1.769 2.748.269 5.492.638 5.492 2.321 0 2.147-3.359 2.737-6.293 2.737-3.824 0-6.611-.761-6.842-3.118h1.563c.273 1.841 2.385 2.284 5.279 2.284 2.26 0 4.604-.357 4.604-1.744 0-1.339-2.747-1.498-5.491-1.757-3.591-.33-5.511-.92-5.511-2.332 0-1.916 3.039-2.542 5.955-2.542 3.084 0 6.185.638 6.291 2.726h-1.561M202.959 27.834h1.816v1.375c0 1.019-.845 1.511-2.007 1.695v-.466c.845-.222.949-.64.949-1.253h-.758v-1.351M218.459 20.417h1.562v8.768h-1.562v-8.768zM225.09 20.417h1.881l10.535 7.49h.043v-7.49h1.564v8.768h-1.818l-10.602-7.491h-.039v7.491h-1.564v-8.768M258.961 25.844c-.336 1.966-3.123 3.561-7.455 3.561-4.897 0-8.024-1.792-8.024-4.604 0-2.001 2.133-4.605 8.024-4.605 3.297 0 6.865.872 7.33 3.18h-1.563c-.464-1.669-3.041-2.344-5.767-2.344-3.736 0-6.334 1.215-6.334 3.769 0 1.952 1.754 3.77 6.334 3.77 3.592 0 5.367-1.056 5.894-2.727h1.561M263.969 27.834h1.814v1.351h-1.814v-1.351z"/></g><g><path d="M80 0v9.955C80 15.29 76.67 16 71.838 16c-1.351 0-2.726-.024-4.075-.024-5.198 0-8.763-.188-8.763-6.259V0h4.957v8.289c.1 2.974.27 3.736 3.56 3.808l2.233.024 2.063-.024c2.798 0 3.117-.761 3.19-3.118V0H80M88.883 12.009H100V16H84V0h4.883v12.009M109.924 16H105.1V3.991H98V0h19v3.991h-7.076V16M127 8V4h7.751c.437 0 .919.023 1.332.14.87.255.895.883.917 1.697 0 1.72-.183 2.163-2.362 2.163H127zm-5 8h4.798v-4.101h8.037c2.016 0 2.086.819 2.086 2.578V16h4.89v-3.065c0-2.21-1.211-2.809-3.234-3.072 1.002-.335 2.14-.55 2.758-1.509.594-.96.665-2.189.665-3.295C142 1.197 140.432 0 136.709 0H122v16zM162 9h-7l3.499-6L162 9zm1.18 4.11l1.496 2.89H170l-8.648-16h-6.51L146 16h5.371l1.567-2.89h10.243zM179 12V4h7.827C189.955 4 190 5.224 190 7.906v.141c0 2.753-.204 3.953-3.242 3.953H179zm-5 4h15.588c2.728 0 4.753-1.345 5.222-4.13.19-1.224.19-2.522.19-3.77v-.913C195 1.41 193.424 0 187.823 0H174v16zM200 0h18v3.635h-13.099v2.747h12.228v3.165H204.9V12.4H218V16h-18V0M244 16h-7.752L226.58 3.973V16H222V0h7.757l9.666 12.003V0H244v16M258.924 16H254.1V3.991H247V0h19v3.991h-7.076V16M0 1.954s.007 21.173 0 23.128C-.005 27.038 1.784 29 3.574 29h25.62c1.79 0 3.61-1.962 3.61-3.918V9.285c0-.978.816-1.927 1.712-1.927h6.814c2.24 0 2.24 3.474.041 3.474-1.856 0-3.173-.028-4.27-.028-.893 0-1.74.978-1.74 1.955v3.148c0 1.467.447 1.955 1.74 1.955h14.08c1.342 0 1.819-.488 1.819-1.955v-12C53 1.954 51.181 0 49.388 0c-3.793 0-28.005.011-28.901.011-.896 0-1.744.967-1.744 1.943v13.419c0 2.707-3.197 2.707-3.197 0V1.954c0-.976-.928-1.943-1.823-1.943H1.784C.89.011 0 .978 0 1.954"/><path d="M51.17 29c1.372 0 1.83-.513 1.83-2.028v-4.947C53 20.507 52.542 20 51.17 20H36.78C35.407 20 35 20.507 35 22.025v4.947c0 1.515.456 2.028 1.779 2.028h14.392M54.533 1c.219 0 .45.121.45.536 0 .248-.087.417-.231.504.21.106.206.334.212.636.003.111.003.228.036.324h-.158a.748.748 0 0 1-.028-.217c-.012-.44.022-.657-.343-.657h-.31V3H54V1h.533zM54 1.72h.419c.234 0 .453-.071.453-.375 0-.274-.206-.345-.421-.345H54v.72zm2-.22c0 .821-.676 1.5-1.497 1.5A1.505 1.505 0 0 1 53 1.5c0-.826.676-1.5 1.503-1.5C55.324 0 56 .677 56 1.5zm-3-.003C53 2.315 53.67 3 54.505 3 55.34 3 56 2.312 56 1.497 56 .68 55.34 0 54.505 0 53.669 0 53 .68 53 1.497z"/></g></g></svg>