<?xml version="1.0" encoding="utf-8"?>
<!-- Generator: Adobe Illustrator 22.1.0, SVG Export Plug-In . SVG Version: 6.00 Build 0)  -->
<svg version="1.1" id="Layer_1" xmlns="http://www.w3.org/2000/svg" xmlns:xlink="http://www.w3.org/1999/xlink" x="0px" y="0px"
	 viewBox="0 0 104.8 52.2" style="enable-background:new 0 0 104.8 52.2;" xml:space="preserve">
<style type="text/css">
	.st0{fill:#E35205;}
</style>
<path class="st0" d="M7.1,4.8c0,0,0,36.3,0,39.7c0,3.4,3.1,6.7,6.1,6.7c6.5,0,40.8,0,43.9,0c3.1,0,6.2-3.4,6.2-6.7
	c0-8.2,0-25.4,0-27.1c0-1.7,1.4-3.3,2.9-3.3c2.1,0,7.5,0,11.7,0c3.8,0,3.8,6,0.1,6c-3.2,0-5.4,0-7.3,0c-1.5,0-3,1.7-3,3.4
	c0,0.8,0,4.2,0,5.4c0,2.5,0.8,3.4,3,3.4c1.8,0,22.7,0,24.1,0c2.3,0,3.1-0.8,3.1-3.4c0-6.2,0-17.2,0-20.6c0-3.3-3.1-6.7-6.2-6.7
	c-6.5,0-48,0-49.5,0c-1.5,0-3,1.7-3,3.3c0,3.3,0,19.2,0,23c0,4.6-5.5,4.6-5.5,0c0-5.6,0-19.6,0-23c0-1.7-1.6-3.3-3.1-3.3
	c-6.9,0-18.6,0-20.5,0C8.7,1.4,7.1,3.1,7.1,4.8z"/>
<path class="st0" d="M94.9,51.1c2.3,0,3.1-0.8,3.1-3.4v-8.2c0-2.5-0.8-3.4-3.1-3.4H70.7c-2.3,0-3,0.8-3,3.4v8.2c0,2.5,0.8,3.4,3,3.4
	H94.9z"/>
<path class="st0" d="M101.2,2.4c0.5,0,1,0.2,1,0.8c0,0.4-0.2,0.7-0.5,0.8c0.5,0.2,0.5,0.5,0.5,1c0,0.2,0,0.4,0.1,0.5h-0.4
	c-0.1-0.1-0.1-0.2-0.1-0.3c0-0.7,0.1-1-0.8-1h-0.7v1.4H100V2.4H101.2z M100.3,3.9h0.7c0.4,0,0.8-0.1,0.8-0.6c0-0.5-0.4-0.6-0.7-0.6
	h-0.8V3.9z M103.6,4c0,1.5-1.1,2.8-2.5,2.8c-1.4,0-2.5-1.2-2.5-2.8c0-1.5,1.1-2.8,2.5-2.8C102.4,1.2,103.6,2.4,103.6,4z M98.8,4
	c0,1.3,1,2.5,2.2,2.5c1.2,0,2.2-1.1,2.2-2.5c0-1.3-1-2.5-2.2-2.5C99.8,1.5,98.8,2.6,98.8,4z"/>
</svg>
