<?xml version="1.0" encoding="UTF-8"?><svg viewBox="0 0 266 31" xmlns="http://www.w3.org/2000/svg"><g fill="none" fill-rule="evenodd"><path d="M60.883 19.645h7.707c2.202 0 4.305.671 4.305 2.515 0 1.648-1.783 2.539-4.965 2.539h-5.567v3.662h-1.48v-8.716zm1.48 4.224h5.727c2.482 0 3.203-.696 3.203-1.709 0-1.307-1.201-1.685-2.903-1.685h-6.027v3.394z" fill="#E35205"/><path d="M60.883 19.645h7.707c2.202 0 4.305.671 4.305 2.515 0 1.648-1.783 2.539-4.965 2.539h-5.567v3.662h-1.48v-8.716zm1.48 4.224h5.727c2.482 0 3.203-.696 3.203-1.709 0-1.307-1.201-1.685-2.903-1.685h-6.027v3.394z"/><path d="M77.984 19.645h7.788c2.423 0 4.645.525 4.645 2.356 0 .928-.94 1.855-2.803 2.112v.024c2.023.195 2.443.989 2.542 2.417.041.549.16 1.611.501 1.807h-1.601c-.261-.183-.361-.83-.38-1.782-.041-1.539-1.002-2.051-3.464-2.051h-5.745v3.833h-1.483v-8.716zm1.483 4.053h6.265c1.622 0 3.083-.366 3.083-1.697 0-1.282-1.581-1.526-2.942-1.526h-6.406v3.223z" fill="#E35205"/><path d="M77.984 19.645h7.788c2.423 0 4.645.525 4.645 2.356 0 .928-.94 1.855-2.803 2.112v.024c2.023.195 2.443.989 2.542 2.417.041.549.16 1.611.501 1.807h-1.601c-.261-.183-.361-.83-.38-1.782-.041-1.539-1.002-2.051-3.464-2.051h-5.745v3.833h-1.483v-8.716zm1.483 4.053h6.265c1.622 0 3.083-.366 3.083-1.697 0-1.282-1.581-1.526-2.942-1.526h-6.406v3.223z"/><path d="M102.795 19.425c4.064 0 7.768 1.502 7.768 4.578 0 3.076-3.704 4.578-7.768 4.578s-7.768-1.502-7.768-4.578c0-3.076 3.704-4.578 7.768-4.578zm0 8.325c3.144 0 6.166-1.123 6.166-3.747 0-2.625-3.022-3.748-6.166-3.748-3.143 0-6.166 1.123-6.166 3.748 0 2.624 3.023 3.747 6.166 3.747z" fill="#E35205"/><path d="M102.795 19.425c4.064 0 7.768 1.502 7.768 4.578 0 3.076-3.704 4.578-7.768 4.578s-7.768-1.502-7.768-4.578c0-3.076 3.704-4.578 7.768-4.578zm0 8.325c3.144 0 6.166-1.123 6.166-3.747 0-2.625-3.022-3.748-6.166-3.748-3.143 0-6.166 1.123-6.166 3.748 0 2.624 3.023 3.747 6.166 3.747z"/><path d="M115.654 19.645h6.948c4.164 0 6.326 1.624 6.326 4.358 0 2.453-2.102 4.358-6.106 4.358h-7.168v-8.716zm1.483 7.886h5.404c2.562 0 4.785-.855 4.785-3.528 0-2.307-1.481-3.528-4.785-3.528h-5.404v7.056z" fill="#E35205"/><path d="M115.654 19.645h6.948c4.164 0 6.326 1.624 6.326 4.358 0 2.453-2.102 4.358-6.106 4.358h-7.168v-8.716zm1.483 7.886h5.404c2.562 0 4.785-.855 4.785-3.528 0-2.307-1.481-3.528-4.785-3.528h-5.404v7.056z"/><path d="M147.092 24.992c0 1.587-.721 3.589-6.386 3.589s-6.386-2.002-6.386-3.589v-5.347h1.481v5.347c0 2.282 2.423 2.758 4.905 2.758 2.483 0 4.905-.476 4.905-2.758v-5.347h1.481v5.347z" fill="#E35205"/><path d="M147.092 24.992c0 1.587-.721 3.589-6.386 3.589s-6.386-2.002-6.386-3.589v-5.347h1.481v5.347c0 2.282 2.423 2.758 4.905 2.758 2.483 0 4.905-.476 4.905-2.758v-5.347h1.481v5.347z"/><path d="M166.998 25.04c-.32 1.954-2.963 3.541-7.066 3.541-4.645 0-7.608-1.783-7.608-4.578 0-1.99 2.022-4.578 7.608-4.578 3.123 0 6.506.867 6.946 3.162h-1.481c-.441-1.66-2.883-2.332-5.465-2.332-3.544 0-6.006 1.209-6.006 3.748 0 1.941 1.661 3.747 6.006 3.747 3.402 0 5.084-1.049 5.585-2.71h1.481z" fill="#E35205"/><path d="M166.998 25.04c-.32 1.954-2.963 3.541-7.066 3.541-4.645 0-7.608-1.783-7.608-4.578 0-1.99 2.022-4.578 7.608-4.578 3.123 0 6.506.867 6.946 3.162h-1.481c-.441-1.66-2.883-2.332-5.465-2.332-3.544 0-6.006 1.209-6.006 3.748 0 1.941 1.661 3.747 6.006 3.747 3.402 0 5.084-1.049 5.585-2.71h1.481z"/><path fill="#E35205" d="M176.395 20.475h-5.606v-.83h12.692v.83h-5.605v7.886h-1.481z"/><path d="M176.395 20.475h-5.606v-.83h12.692v.83h-5.605v7.886h-1.481z"/><path d="M197.46 22.135c-.2-1.489-2.183-1.88-4.484-1.88-2.302 0-4.044.55-4.044 1.538 0 1.136 1.742 1.404 5.224 1.758 2.604.269 5.205.635 5.205 2.307 0 2.137-3.182 2.723-5.964 2.723-3.624 0-6.267-.757-6.487-3.101h1.481c.26 1.831 2.262 2.27 5.006 2.27 2.141 0 4.363-.353 4.363-1.733 0-1.331-2.602-1.489-5.205-1.745-3.403-.33-5.225-.916-5.225-2.32 0-1.904 2.883-2.527 5.646-2.527 2.922 0 5.866.635 5.965 2.71h-1.481z" fill="#E35205"/><path d="M197.46 22.135c-.2-1.489-2.183-1.88-4.484-1.88-2.302 0-4.044.55-4.044 1.538 0 1.136 1.742 1.404 5.224 1.758 2.604.269 5.205.635 5.205 2.307 0 2.137-3.182 2.723-5.964 2.723-3.624 0-6.267-.757-6.487-3.101h1.481c.26 1.831 2.262 2.27 5.006 2.27 2.141 0 4.363-.353 4.363-1.733 0-1.331-2.602-1.489-5.205-1.745-3.403-.33-5.225-.916-5.225-2.32 0-1.904 2.883-2.527 5.646-2.527 2.922 0 5.866.635 5.965 2.71h-1.481z"/><path d="M204.753 27.018h1.722v1.367c0 1.013-.801 1.502-1.903 1.685v-.464c.801-.22.902-.635.902-1.245h-.721v-1.343z" fill="#E35205"/><path d="M204.753 27.018h1.722v1.367c0 1.013-.801 1.502-1.903 1.685v-.464c.801-.22.902-.635.902-1.245h-.721v-1.343z"/><path d="M229.141 24.992c0 1.587-.721 3.589-6.387 3.589-5.665 0-6.386-2.002-6.386-3.589v-5.347h1.482v5.347c0 2.282 2.422 2.758 4.904 2.758 2.482 0 4.905-.476 4.905-2.758v-5.347h1.482v5.347z" fill="#E35205"/><path d="M229.141 24.992c0 1.587-.721 3.589-6.387 3.589-5.665 0-6.386-2.002-6.386-3.589v-5.347h1.482v5.347c0 2.282 2.422 2.758 4.904 2.758 2.482 0 4.905-.476 4.905-2.758v-5.347h1.482v5.347z"/><path d="M244.563 22.135c-.201-1.489-2.182-1.88-4.485-1.88-2.303 0-4.044.55-4.044 1.538 0 1.136 1.741 1.404 5.226 1.758 2.601.269 5.205.635 5.205 2.307 0 2.137-3.184 2.723-5.967 2.723-3.623 0-6.266-.757-6.486-3.101h1.482c.26 1.831 2.262 2.27 5.004 2.27 2.143 0 4.365-.353 4.365-1.733 0-1.331-2.603-1.489-5.205-1.745-3.404-.33-5.225-.916-5.225-2.32 0-1.904 2.882-2.527 5.645-2.527 2.923 0 5.865.635 5.966 2.71h-1.481z" fill="#E35205"/><path d="M244.563 22.135c-.201-1.489-2.182-1.88-4.485-1.88-2.303 0-4.044.55-4.044 1.538 0 1.136 1.741 1.404 5.226 1.758 2.601.269 5.205.635 5.205 2.307 0 2.137-3.184 2.723-5.967 2.723-3.623 0-6.266-.757-6.486-3.101h1.482c.26 1.831 2.262 2.27 5.004 2.27 2.143 0 4.365-.353 4.365-1.733 0-1.331-2.603-1.489-5.205-1.745-3.404-.33-5.225-.916-5.225-2.32 0-1.904 2.882-2.527 5.645-2.527 2.923 0 5.865.635 5.966 2.71h-1.481z"/><path d="M260.885 25.712h-7.528l-1.942 2.649h-1.601l6.486-8.716h1.722l6.486 8.716h-1.722l-1.901-2.649zm-3.744-5.164l-3.184 4.334h6.326l-3.142-4.334z" fill="#E35205"/><path d="M260.885 25.712h-7.528l-1.942 2.649h-1.601l6.486-8.716h1.722l6.486 8.716h-1.722l-1.901-2.649zm-3.744-5.164l-3.184 4.334h6.326l-3.142-4.334z"/><g fill="#E35205"><path d="M80 0v9.955C80 15.29 76.67 16 71.838 16c-1.351 0-2.726-.024-4.075-.024-5.198 0-8.763-.188-8.763-6.259V0h4.957v8.289c.1 2.974.27 3.736 3.56 3.808l2.233.024 2.063-.024c2.798 0 3.117-.761 3.19-3.118V0H80M88.883 12.009H100V16H84V0h4.883v12.009M109.924 16H105.1V3.991H98V0h19v3.991h-7.076V16M127 8V4h7.751c.437 0 .919.023 1.332.14.87.255.895.883.917 1.697 0 1.72-.183 2.163-2.362 2.163H127zm-5 8h4.798v-4.101h8.037c2.016 0 2.086.819 2.086 2.578V16h4.89v-3.065c0-2.21-1.211-2.809-3.234-3.072 1.002-.335 2.14-.55 2.758-1.509.594-.96.665-2.189.665-3.295C142 1.197 140.432 0 136.709 0H122v16zM162 9h-7l3.499-6L162 9zm1.18 4.11l1.496 2.89H170l-8.648-16h-6.51L146 16h5.371l1.567-2.89h10.243zM179 12V4h7.827C189.955 4 190 5.224 190 7.906v.141c0 2.753-.204 3.953-3.242 3.953H179zm-5 4h15.588c2.728 0 4.753-1.345 5.222-4.13.19-1.224.19-2.522.19-3.77v-.913C195 1.41 193.424 0 187.823 0H174v16zM200 0h18v3.635h-13.099v2.747h12.228v3.165H204.9V12.4H218V16h-18V0M244 16h-7.752L226.58 3.973V16H222V0h7.757l9.666 12.003V0H244v16M258.924 16H254.1V3.991H247V0h19v3.991h-7.076V16M0 1.954s.007 21.173 0 23.128C-.005 27.038 1.784 29 3.574 29h25.62c1.79 0 3.61-1.962 3.61-3.918V9.285c0-.978.816-1.927 1.712-1.927h6.814c2.24 0 2.24 3.474.041 3.474-1.856 0-3.173-.028-4.27-.028-.893 0-1.74.978-1.74 1.955v3.148c0 1.467.447 1.955 1.74 1.955h14.08c1.342 0 1.819-.488 1.819-1.955v-12C53 1.954 51.181 0 49.388 0c-3.793 0-28.005.011-28.901.011-.896 0-1.744.967-1.744 1.943v13.419c0 2.707-3.197 2.707-3.197 0V1.954c0-.976-.928-1.943-1.823-1.943H1.784C.89.011 0 .978 0 1.954"/><path d="M51.17 29c1.372 0 1.83-.513 1.83-2.028v-4.947C53 20.507 52.542 20 51.17 20H36.78C35.407 20 35 20.507 35 22.025v4.947c0 1.515.456 2.028 1.779 2.028h14.392M54.533 1c.219 0 .45.121.45.536 0 .248-.087.417-.231.504.21.106.206.334.212.636.003.111.003.228.036.324h-.158a.748.748 0 0 1-.028-.217c-.012-.44.022-.657-.343-.657h-.31V3H54V1h.533zM54 1.72h.419c.234 0 .453-.071.453-.375 0-.274-.206-.345-.421-.345H54v.72zm2-.22c0 .821-.676 1.5-1.497 1.5A1.505 1.505 0 0 1 53 1.5c0-.826.676-1.5 1.503-1.5C55.324 0 56 .677 56 1.5zm-3-.003C53 2.315 53.67 3 54.505 3 55.34 3 56 2.312 56 1.497 56 .68 55.34 0 54.505 0 53.669 0 53 .68 53 1.497z"/></g></g></svg>