<?xml version="1.0" encoding="UTF-8" standalone="no"?><svg viewBox="0 0 266 31" xmlns="http://www.w3.org/2000/svg"><g fill="none" fill-rule="evenodd"><path d="M60.775 19.783h6.948c4.164 0 6.326 1.624 6.326 4.359 0 2.454-2.103 4.358-6.107 4.358h-7.167v-8.717zm1.482 7.887h5.405c2.563 0 4.785-.855 4.785-3.528 0-2.308-1.482-3.529-4.785-3.529h-5.405v7.057z" fill="#1A1918"/><path d="M60.775 19.783h6.948c4.164 0 6.326 1.624 6.326 4.359 0 2.454-2.103 4.358-6.107 4.358h-7.167v-8.717zm1.482 7.887h5.405c2.563 0 4.785-.855 4.785-3.528 0-2.308-1.482-3.529-4.785-3.529h-5.405v7.057z" stroke="#000" stroke-width=".125"/><path d="M93.576 19.565c4.065 0 7.768 1.5 7.768 4.577 0 3.076-3.703 4.577-7.768 4.577-4.063 0-7.767-1.501-7.767-4.577 0-3.077 3.704-4.577 7.767-4.577zm0 8.324c3.144 0 6.166-1.123 6.166-3.747 0-2.624-3.022-3.747-6.166-3.747-3.142 0-6.166 1.123-6.166 3.747 0 2.624 3.024 3.747 6.166 3.747z" fill="#1A1918"/><path d="M93.576 19.565c4.065 0 7.768 1.5 7.768 4.577 0 3.076-3.703 4.577-7.768 4.577-4.063 0-7.767-1.501-7.767-4.577 0-3.077 3.704-4.577 7.767-4.577zm0 8.324c3.144 0 6.166-1.123 6.166-3.747 0-2.624-3.022-3.747-6.166-3.747-3.142 0-6.166 1.123-6.166 3.747 0 2.624 3.024 3.747 6.166 3.747z" stroke="#000" stroke-width=".125"/><path d="M132.591 19.783h8.128c2.802 0 3.984.965 3.984 2.197 0 .843-.762 1.624-2.463 1.869v.024c1.881.171 3.024 1.014 3.024 2.137 0 1.818-2.524 2.49-4.725 2.49h-7.948v-8.717zm1.481 3.785h5.865c2.002 0 3.284-.39 3.284-1.55 0-1.063-1.161-1.405-2.783-1.405h-6.366v2.955zm0 4.102h6.227c1.922 0 3.363-.465 3.363-1.66 0-1.258-1.281-1.612-3.004-1.612h-6.586v3.272z" fill="#1A1918"/><path d="M132.591 19.783h8.128c2.802 0 3.984.965 3.984 2.197 0 .843-.762 1.624-2.463 1.869v.024c1.881.171 3.024 1.014 3.024 2.137 0 1.818-2.524 2.49-4.725 2.49h-7.948v-8.717zm1.481 3.785h5.865c2.002 0 3.284-.39 3.284-1.55 0-1.063-1.161-1.405-2.783-1.405h-6.366v2.955zm0 4.102h6.227c1.922 0 3.363-.465 3.363-1.66 0-1.258-1.281-1.612-3.004-1.612h-6.586v3.272z" stroke="#000" stroke-width=".125"/><path d="M158.685 19.783h7.788c2.422 0 4.644.526 4.644 2.357 0 .927-.941 1.855-2.803 2.112v.023c2.022.196 2.442.99 2.543 2.418.039.549.161 1.612.5 1.807h-1.601c-.26-.184-.362-.83-.381-1.783-.039-1.537-1-2.051-3.463-2.051h-5.746V28.5h-1.481v-8.717zm1.481 4.053h6.266c1.623 0 3.084-.365 3.084-1.696 0-1.283-1.582-1.527-2.944-1.527h-6.406v3.223z" fill="#1A1918"/><path d="M158.685 19.783h7.788c2.422 0 4.644.526 4.644 2.357 0 .927-.941 1.855-2.803 2.112v.023c2.022.196 2.442.99 2.543 2.418.039.549.161 1.612.5 1.807h-1.601c-.26-.184-.362-.83-.381-1.783-.039-1.537-1-2.051-3.463-2.051h-5.746V28.5h-1.481v-8.717zm1.481 4.053h6.266c1.623 0 3.084-.365 3.084-1.696 0-1.283-1.582-1.527-2.944-1.527h-6.406v3.223z" stroke="#000" stroke-width=".125"/><path d="M193.928 25.851H186.4l-1.941 2.649h-1.602l6.487-8.717h1.722l6.487 8.717h-1.723l-1.902-2.649zm-3.743-5.163l-3.183 4.333h6.326l-3.143-4.333z" fill="#1A1918"/><path d="M193.928 25.851H186.4l-1.941 2.649h-1.602l6.487-8.717h1.722l6.487 8.717h-1.723l-1.902-2.649zm-3.743-5.163l-3.183 4.333h6.326l-3.143-4.333z" stroke="#000" stroke-width=".125"/><path d="M219.463 22.273c-.201-1.488-2.184-1.878-4.485-1.878-2.302 0-4.044.548-4.044 1.537 0 1.135 1.742 1.404 5.224 1.758 2.604.269 5.205.634 5.205 2.307 0 2.136-3.181 2.722-5.965 2.722-3.623 0-6.265-.756-6.486-3.1h1.481c.261 1.83 2.263 2.27 5.005 2.27 2.143 0 4.364-.354 4.364-1.733 0-1.331-2.602-1.49-5.205-1.746-3.403-.33-5.225-.916-5.225-2.319 0-1.904 2.883-2.526 5.646-2.526 2.922 0 5.866.634 5.965 2.708h-1.48z" fill="#1A1918"/><path d="M219.463 22.273c-.201-1.488-2.184-1.878-4.485-1.878-2.302 0-4.044.548-4.044 1.537 0 1.135 1.742 1.404 5.224 1.758 2.604.269 5.205.634 5.205 2.307 0 2.136-3.181 2.722-5.965 2.722-3.623 0-6.265-.756-6.486-3.1h1.481c.261 1.83 2.263 2.27 5.005 2.27 2.143 0 4.364-.354 4.364-1.733 0-1.331-2.602-1.49-5.205-1.746-3.403-.33-5.225-.916-5.225-2.319 0-1.904 2.883-2.526 5.646-2.526 2.922 0 5.866.634 5.965 2.708h-1.48z" stroke="#000" stroke-width=".125"/><path d="M234.326 19.783h1.48V28.5h-1.48v-8.717z" fill="#1A1918"/><path d="M234.326 19.783h1.48V28.5h-1.48v-8.717z" stroke="#000" stroke-width=".125"/><path d="M249.625 19.783h1.482v7.887h9.069v.83h-10.551v-8.717z" fill="#1A1918"/><path d="M249.625 19.783h1.482v7.887h9.069v.83h-10.551v-8.717z" stroke="#000" stroke-width=".125"/><g fill="#1A1918"><path d="M80 0v9.955C80 15.29 76.67 16 71.838 16c-1.351 0-2.726-.024-4.075-.024-5.198 0-8.763-.188-8.763-6.259V0h4.957v8.289c.1 2.974.27 3.736 3.56 3.808l2.233.024 2.063-.024c2.798 0 3.117-.761 3.19-3.118V0H80M88.883 12.009H100V16H84V0h4.883v12.009M109.924 16H105.1V3.991H98V0h19v3.991h-7.076V16M127 8V4h7.751c.437 0 .919.023 1.332.14.87.255.895.883.917 1.697 0 1.72-.183 2.163-2.362 2.163H127zm-5 8h4.798v-4.101h8.037c2.016 0 2.086.819 2.086 2.578V16h4.89v-3.065c0-2.21-1.211-2.809-3.234-3.072 1.002-.335 2.14-.55 2.758-1.509.594-.96.665-2.189.665-3.295C142 1.197 140.432 0 136.709 0H122v16zM162 9h-7l3.499-6L162 9zm1.18 4.11l1.496 2.89H170l-8.648-16h-6.51L146 16h5.371l1.567-2.89h10.243zM179 12V4h7.827C189.955 4 190 5.224 190 7.906v.141c0 2.753-.204 3.953-3.242 3.953H179zm-5 4h15.588c2.728 0 4.753-1.345 5.222-4.13.19-1.224.19-2.522.19-3.77v-.913C195 1.41 193.424 0 187.823 0H174v16zM200 0h18v3.635h-13.099v2.747h12.228v3.165H204.9V12.4H218V16h-18V0M244 16h-7.752L226.58 3.973V16H222V0h7.757l9.666 12.003V0H244v16M258.924 16H254.1V3.991H247V0h19v3.991h-7.076V16M0 1.954s.007 21.173 0 23.128C-.005 27.038 1.784 29 3.574 29h25.62c1.79 0 3.61-1.962 3.61-3.918V9.285c0-.978.816-1.927 1.712-1.927h6.814c2.24 0 2.24 3.474.041 3.474-1.856 0-3.173-.028-4.27-.028-.893 0-1.74.978-1.74 1.955v3.148c0 1.467.447 1.955 1.74 1.955h14.08c1.342 0 1.819-.488 1.819-1.955v-12C53 1.954 51.181 0 49.388 0c-3.793 0-28.005.011-28.901.011-.896 0-1.744.967-1.744 1.943v13.419c0 2.707-3.197 2.707-3.197 0V1.954c0-.976-.928-1.943-1.823-1.943H1.784C.89.011 0 .978 0 1.954"/><path d="M51.17 29c1.372 0 1.83-.513 1.83-2.028v-4.947C53 20.507 52.542 20 51.17 20H36.78C35.407 20 35 20.507 35 22.025v4.947c0 1.515.456 2.028 1.779 2.028h14.392M54.533 1c.219 0 .45.121.45.536 0 .248-.087.417-.231.504.21.106.206.334.212.636.003.111.003.228.036.324h-.158a.748.748 0 0 1-.028-.217c-.012-.44.022-.657-.343-.657h-.31V3H54V1h.533zM54 1.72h.419c.234 0 .453-.071.453-.375 0-.274-.206-.345-.421-.345H54v.72zm2-.22c0 .821-.676 1.5-1.497 1.5A1.505 1.505 0 0 1 53 1.5c0-.826.676-1.5 1.503-1.5C55.324 0 56 .677 56 1.5zm-3-.003C53 2.315 53.67 3 54.505 3 55.34 3 56 2.312 56 1.497 56 .68 55.34 0 54.505 0 53.669 0 53 .68 53 1.497z"/></g></g></svg>