<?xml version="1.0" encoding="UTF-8" standalone="no"?><svg viewBox="0 0 266 31" xmlns="http://www.w3.org/2000/svg"><g fill="#1A1918" fill-rule="evenodd"><path d="M179.154 25.951c.066-.391.115-.85.13-1.347l.897.143c.244.027.375.106.375.21 0 .092-.098.144-.228.144-.132 0-.229.051-.229.117l-.179.733h4.953l1.043-.681 1.026.627c.082.028.132.106.132.199 0 .169-.164.26-.377.26h-6.89l-.359.747a4.736 4.736 0 0 1-1.191 1.384c-1.547 1.203-5.344 1.857-5.441 1.857-.164 0-.18-.053-.18-.118 0-.052.032-.092.114-.092a20.601 20.601 0 0 0 2.771-.797c1.58-.549 2.671-1.216 3.29-2.419l.23-.562h-6.209l-.13-.405h6.452zm-5.817-1.646l-.13-.393h6.077v-1.437h-4.547l-.13-.393h4.677v-1.504h-5.622l-.129-.392h7.478l.554-.825.343-.81.081-.38.946.25c.18.051.259.13.259.209 0 .064-.079.17-.244.17l-.245.052-.7.85-.472.484h2.573l1.044-.694 1.026.627c.082.04.132.118.132.209 0 .185-.197.25-.36.25h-5.849v1.504h2.803l1.042-.694 1.029.628c.08.04.128.105.128.197 0 .156-.146.262-.374.262h-4.628v1.437h4.205l1.026-.693 1.042.627c.081.04.132.116.132.209 0 .169-.163.25-.376.25h-12.791zm4.97-4.486c-.065.17-.278.196-.359.196-.163 0-.324-.091-.374-.209-.114-.314-.439-1.032-1.108-1.424-.066-.027-.098-.067-.098-.093 0-.037.048-.118.13-.118.293 0 1.631.799 1.809 1.295v.353zm2.101 7.649c0-.054.05-.158.131-.158.311 0 5.688 1.531 5.688 2.68 0 .248-.197.354-.375.354-.034 0-.067-.013-.311-.106-1.726-1.45-3.259-2.117-5.019-2.668-.064-.024-.114-.05-.114-.102zM197.875 18.355l.62.354h11.226l.39-.433.751.406c.047.027.065.064.065.13 0 .118-.116.223-.229.25-.13.038-.178.091-.178.129v10.825c0 .183-.424.249-.586.249-.164 0-.213-.079-.213-.236v-.457h-11.032v.444c0 .158-.326.249-.586.249-.163 0-.228-.079-.228-.275V18.355zm.814 10.825h11.032V19.1h-11.032v10.08zm.751-1.399l-.13-.392h4.301v-3.177h-3.226l-.132-.405h3.358v-2.812h-3.732l-.13-.404h6.762l1.042-.693 1.027.626c.082.04.13.119.13.21 0 .17-.163.261-.357.261h-3.944v2.812h1.663l1.026-.68 1.042.614a.23.23 0 0 1 .132.21c0 .17-.165.261-.375.261h-3.488v3.177h2.672l1.043-.694 1.027.627c.08.041.13.118.13.198 0 .143-.13.261-.357.261h-9.484zm7.153-1.282c-.342-.732-.799-1.215-1.24-1.424-.064-.014-.096-.052-.096-.093 0-.025.049-.142.163-.142.276 0 1.922.876 1.922 1.516 0 .13-.065.367-.326.367-.178 0-.358-.079-.423-.224zM221.614 20.551l.653.444h.455a7.135 7.135 0 0 0 .881-2.536l.879.104c.211.028.31.119.31.222 0 .093-.099.158-.212.171-.13.014-.228.065-.26.117-.31.614-.733 1.27-1.239 1.922h2.167l.39-.417.75.404c.051.013.066.053.066.119 0 .156-.147.235-.229.259-.13.04-.178.092-.178.133v6.681c0 .063-.066.13-.164.169-.57.105-.635.118-.635-.156v-.562h-2.817v1.371c0 .158-.149.184-.654.288-.113 0-.163-.104-.163-.288v-8.445zm.817 3.466h2.817v-2.616h-2.817v2.616zm0 3.215h2.817v-2.824h-2.817v2.824zm4.122-2.72l-.131-.391h4.61v-2.876h-2.931l-.035.052c-.552.979-1.319 1.791-1.48 1.791-.051 0-.132-.039-.132-.105 0-.04.017-.079.05-.118 1.352-1.83 1.531-3.555 1.531-3.778l-.032-.327.944.052c.229 0 .342.066.342.171 0 .104-.081.17-.212.182-.13 0-.211.039-.211.092a8.494 8.494 0 0 1-.603 1.596h2.769v-2.694l.847.117c.262.026.359.106.359.209 0 .106-.065.184-.196.209-.13.04-.194.118-.194.197v1.962h2.005l.944-.59.83.524a.22.22 0 0 1 .13.195c0 .145-.13.263-.358.263h-3.551v2.876h2.412l1.042-.694 1.025.628a.224.224 0 0 1 .132.196c0 .145-.132.261-.358.261h-9.548zm7.707 1.189l.439-.351.75.392c.065.025.096.079.096.116 0 .039-.048.184-.26.224-.131.026-.212.09-.212.156v4c.018.066-.065.145-.163.184-.488.104-.635.13-.635-.184v-.822h-5.801v.704c0 .066-.064.132-.196.171-.52.103-.619.117-.619-.195v-4.734l.619.339h5.982zm-5.786 3.322h5.802v-2.928h-5.802v2.928zM246.088 22.316l-.132-.393h2.836v-3.006l.848.131c.245.025.358.105.358.209s-.082.17-.195.195c-.13.04-.197.118-.197.209v2.262h3.455v-3.764l.832.117c.26.026.375.106.375.209 0 .106-.083.184-.212.209-.132.04-.18.118-.18.197v.994h3.812l1.01-.694.994.588c.116.079.18.171.18.249 0 .144-.13.248-.341.248h-5.655v1.647h4.644l1.027-.693 1.042.629a.19.19 0 0 1 .115.183c0 .025 0 .051-.019.079-.015.116-.145.195-.34.195h-14.257zm12.058 6.759v-6.236l.912.104c.261.026.374.106.374.209 0 .093-.081.197-.227.25-.163.051-.245.143-.245.236v6.443c0 .21-.522.287-.636.287-.113 0-.178-.037-.178-.103v-.798h-9.94v.614c0 .21-.521.287-.637.287-.113 0-.178-.037-.178-.103v-7.426l.912.104c.244.026.376.106.376.209 0 .093-.081.197-.23.25-.162.051-.243.143-.243.236v5.437h9.94zm-4.383-6.47c.227.025.358.103.358.208 0 .091-.099.145-.228.145-.115 0-.212.052-.212.115-.065.746-.229 1.649-.441 2.211 2.118.942 3.977 2.184 3.977 2.903 0 .248-.229.391-.441.391a.342.342 0 0 1-.309-.182c-.539-.694-1.565-1.91-3.323-2.836-.425 1.058-.898 1.672-1.875 2.26-.896.549-1.889.889-2.003.889-.082 0-.148-.039-.148-.118 0-.038.032-.077.081-.092a7.043 7.043 0 0 0 1.547-.862c1.37-.927 2.12-2.275 2.12-5.177l.897.145zM76.277 25.662c-.346 2.36-3.207 4.277-7.648 4.277-5.027 0-8.233-2.154-8.233-5.531 0-2.403 2.189-5.529 8.233-5.529 3.38 0 7.042 1.047 7.518 3.818h-1.603c-.478-2.005-3.12-2.815-5.915-2.815-3.836 0-6.499 1.46-6.499 4.526 0 2.345 1.798 4.529 6.499 4.529 3.684 0 5.503-1.269 6.045-3.275h1.603M85.103 19.144h1.602v4.454h11.182v-4.454h1.603v10.529h-1.603v-5.074H86.705v5.074h-1.602V19.144M109.029 19.144h1.604v10.529h-1.604V19.144zM120.17 19.144h1.928l10.811 8.997h.043v-8.997h1.604v10.529h-1.864l-10.876-8.995h-.044v8.995h-1.602V19.144M154.344 26.474h-8.148l-2.101 3.199h-1.733l7.021-10.529h1.863l7.022 10.529h-1.867l-2.057-3.199zm-4.052-6.24l-3.444 5.238h6.846l-3.402-5.238z"/><g><path d="M80 0v9.955C80 15.29 76.67 16 71.838 16c-1.351 0-2.726-.024-4.075-.024-5.198 0-8.763-.188-8.763-6.259V0h4.957v8.289c.1 2.974.27 3.736 3.56 3.808l2.233.024 2.063-.024c2.798 0 3.117-.761 3.19-3.118V0H80M88.883 12.009H100V16H84V0h4.883v12.009M109.924 16H105.1V3.991H98V0h19v3.991h-7.076V16M127 8V4h7.751c.437 0 .919.023 1.332.14.87.255.895.883.917 1.697 0 1.72-.183 2.163-2.362 2.163H127zm-5 8h4.798v-4.101h8.037c2.016 0 2.086.819 2.086 2.578V16h4.89v-3.065c0-2.21-1.211-2.809-3.234-3.072 1.002-.335 2.14-.55 2.758-1.509.594-.96.665-2.189.665-3.295C142 1.197 140.432 0 136.709 0H122v16zM162 9h-7l3.499-6L162 9zm1.18 4.11l1.496 2.89H170l-8.648-16h-6.51L146 16h5.371l1.567-2.89h10.243zM179 12V4h7.827C189.955 4 190 5.224 190 7.906v.141c0 2.753-.204 3.953-3.242 3.953H179zm-5 4h15.588c2.728 0 4.753-1.345 5.222-4.13.19-1.224.19-2.522.19-3.77v-.913C195 1.41 193.424 0 187.823 0H174v16zM200 0h18v3.635h-13.099v2.747h12.228v3.165H204.9V12.4H218V16h-18V0M244 16h-7.752L226.58 3.973V16H222V0h7.757l9.666 12.003V0H244v16M258.924 16H254.1V3.991H247V0h19v3.991h-7.076V16M0 1.954s.007 21.173 0 23.128C-.005 27.038 1.784 29 3.574 29h25.62c1.79 0 3.61-1.962 3.61-3.918V9.285c0-.978.816-1.927 1.712-1.927h6.814c2.24 0 2.24 3.474.041 3.474-1.856 0-3.173-.028-4.27-.028-.893 0-1.74.978-1.74 1.955v3.148c0 1.467.447 1.955 1.74 1.955h14.08c1.342 0 1.819-.488 1.819-1.955v-12C53 1.954 51.181 0 49.388 0c-3.793 0-28.005.011-28.901.011-.896 0-1.744.967-1.744 1.943v13.419c0 2.707-3.197 2.707-3.197 0V1.954c0-.976-.928-1.943-1.823-1.943H1.784C.89.011 0 .978 0 1.954"/><path d="M51.17 29c1.372 0 1.83-.513 1.83-2.028v-4.947C53 20.507 52.542 20 51.17 20H36.78C35.407 20 35 20.507 35 22.025v4.947c0 1.515.456 2.028 1.779 2.028h14.392M54.533 1c.219 0 .45.121.45.536 0 .248-.087.417-.231.504.21.106.206.334.212.636.003.111.003.228.036.324h-.158a.748.748 0 0 1-.028-.217c-.012-.44.022-.657-.343-.657h-.31V3H54V1h.533zM54 1.72h.419c.234 0 .453-.071.453-.375 0-.274-.206-.345-.421-.345H54v.72zm2-.22c0 .821-.676 1.5-1.497 1.5A1.505 1.505 0 0 1 53 1.5c0-.826.676-1.5 1.503-1.5C55.324 0 56 .677 56 1.5zm-3-.003C53 2.315 53.67 3 54.505 3 55.34 3 56 2.312 56 1.497 56 .68 55.34 0 54.505 0 53.669 0 53 .68 53 1.497z"/></g></g></svg>