<?xml version="1.0" encoding="UTF-8" standalone="no"?><svg viewBox="0 0 266 31" xmlns="http://www.w3.org/2000/svg"><g fill="#FFF" fill-rule="evenodd"><path d="M59.694 20.417h8.132c2.322 0 4.539.675 4.539 2.53 0 1.657-1.879 2.554-5.236 2.554h-5.871v3.684h-1.564v-8.768zm1.564 4.249h6.04c2.618 0 3.378-.7 3.378-1.719 0-1.314-1.267-1.695-3.063-1.695h-6.355v3.414zM76.674 20.417h8.215c2.554 0 4.899.528 4.899 2.37 0 .933-.993 1.867-2.957 2.125v.023c2.133.198 2.576.995 2.683 2.432.041.553.168 1.621.527 1.818h-1.689c-.274-.185-.381-.836-.401-1.793-.043-1.548-1.056-2.063-3.654-2.063h-6.061v3.856h-1.562v-8.768zm1.562 4.076h6.61c1.711 0 3.252-.368 3.252-1.706 0-1.289-1.668-1.535-3.104-1.535h-6.758v3.241zM101.781 20.196c4.287 0 8.195 1.511 8.195 4.605 0 3.094-3.908 4.604-8.195 4.604-4.285 0-8.192-1.51-8.192-4.604 0-3.094 3.907-4.605 8.192-4.605zm0 8.375c3.317 0 6.506-1.13 6.506-3.77 0-2.641-3.189-3.769-6.506-3.769-3.313 0-6.502 1.128-6.502 3.769 0 2.64 3.189 3.77 6.502 3.77zM114.284 20.417h7.329c4.392 0 6.672 1.633 6.672 4.384 0 2.468-2.217 4.384-6.44 4.384h-7.561v-8.768zm1.564 7.932h5.701c2.703 0 5.046-.858 5.046-3.548 0-2.322-1.562-3.549-5.046-3.549h-5.701v7.097zM146.385 25.795c0 1.597-.762 3.61-6.737 3.61-5.977 0-6.738-2.013-6.738-3.61v-5.378h1.564v5.378c0 2.297 2.553 2.776 5.174 2.776 2.618 0 5.172-.479 5.172-2.776v-5.378h1.565v5.378M166.318 25.844c-.336 1.966-3.125 3.561-7.453 3.561-4.898 0-8.025-1.792-8.025-4.604 0-2.001 2.133-4.605 8.025-4.605 3.293 0 6.863.872 7.328 3.18h-1.564c-.465-1.669-3.041-2.344-5.764-2.344-3.738 0-6.336 1.215-6.336 3.769 0 1.952 1.752 3.77 6.336 3.77 3.588 0 5.363-1.056 5.893-2.727h1.56M175.168 21.252h-5.914v-.835h13.389v.835h-5.913v7.933h-1.562v-7.933M196.328 22.922c-.211-1.498-2.303-1.89-4.73-1.89-2.43 0-4.266.552-4.266 1.546 0 1.142 1.836 1.413 5.51 1.769 2.748.269 5.492.638 5.492 2.321 0 2.147-3.359 2.737-6.293 2.737-3.824 0-6.611-.761-6.842-3.118h1.563c.273 1.841 2.385 2.284 5.279 2.284 2.26 0 4.604-.357 4.604-1.744 0-1.339-2.747-1.498-5.491-1.757-3.591-.33-5.511-.92-5.511-2.332 0-1.916 3.039-2.542 5.955-2.542 3.084 0 6.185.638 6.291 2.726h-1.561M202.959 27.834h1.816v1.375c0 1.019-.845 1.511-2.007 1.695v-.466c.845-.222.949-.64.949-1.253h-.758v-1.351M218.459 20.417h1.562v8.768h-1.562v-8.768zM225.09 20.417h1.881l10.535 7.49h.043v-7.49h1.564v8.768h-1.818l-10.602-7.491h-.039v7.491h-1.564v-8.768M258.961 25.844c-.336 1.966-3.123 3.561-7.455 3.561-4.897 0-8.024-1.792-8.024-4.604 0-2.001 2.133-4.605 8.024-4.605 3.297 0 6.865.872 7.33 3.18h-1.563c-.464-1.669-3.041-2.344-5.767-2.344-3.736 0-6.334 1.215-6.334 3.769 0 1.952 1.754 3.77 6.334 3.77 3.592 0 5.367-1.056 5.894-2.727h1.561M263.969 27.834h1.814v1.351h-1.814v-1.351z"/><g><path d="M80 0v9.955C80 15.29 76.67 16 71.838 16c-1.351 0-2.726-.024-4.075-.024-5.198 0-8.763-.188-8.763-6.259V0h4.957v8.289c.1 2.974.27 3.736 3.56 3.808l2.233.024 2.063-.024c2.798 0 3.117-.761 3.19-3.118V0H80M88.883 12.009H100V16H84V0h4.883v12.009M109.924 16H105.1V3.991H98V0h19v3.991h-7.076V16M127 8V4h7.751c.437 0 .919.023 1.332.14.87.255.895.883.917 1.697 0 1.72-.183 2.163-2.362 2.163H127zm-5 8h4.798v-4.101h8.037c2.016 0 2.086.819 2.086 2.578V16h4.89v-3.065c0-2.21-1.211-2.809-3.234-3.072 1.002-.335 2.14-.55 2.758-1.509.594-.96.665-2.189.665-3.295C142 1.197 140.432 0 136.709 0H122v16zM162 9h-7l3.499-6L162 9zm1.18 4.11l1.496 2.89H170l-8.648-16h-6.51L146 16h5.371l1.567-2.89h10.243zM179 12V4h7.827C189.955 4 190 5.224 190 7.906v.141c0 2.753-.204 3.953-3.242 3.953H179zm-5 4h15.588c2.728 0 4.753-1.345 5.222-4.13.19-1.224.19-2.522.19-3.77v-.913C195 1.41 193.424 0 187.823 0H174v16zM200 0h18v3.635h-13.099v2.747h12.228v3.165H204.9V12.4H218V16h-18V0M244 16h-7.752L226.58 3.973V16H222V0h7.757l9.666 12.003V0H244v16M258.924 16H254.1V3.991H247V0h19v3.991h-7.076V16M0 1.954s.007 21.173 0 23.128C-.005 27.038 1.784 29 3.574 29h25.62c1.79 0 3.61-1.962 3.61-3.918V9.285c0-.978.816-1.927 1.712-1.927h6.814c2.24 0 2.24 3.474.041 3.474-1.856 0-3.173-.028-4.27-.028-.893 0-1.74.978-1.74 1.955v3.148c0 1.467.447 1.955 1.74 1.955h14.08c1.342 0 1.819-.488 1.819-1.955v-12C53 1.954 51.181 0 49.388 0c-3.793 0-28.005.011-28.901.011-.896 0-1.744.967-1.744 1.943v13.419c0 2.707-3.197 2.707-3.197 0V1.954c0-.976-.928-1.943-1.823-1.943H1.784C.89.011 0 .978 0 1.954"/><path d="M51.17 29c1.372 0 1.83-.513 1.83-2.028v-4.947C53 20.507 52.542 20 51.17 20H36.78C35.407 20 35 20.507 35 22.025v4.947c0 1.515.456 2.028 1.779 2.028h14.392M54.533 1c.219 0 .45.121.45.536 0 .248-.087.417-.231.504.21.106.206.334.212.636.003.111.003.228.036.324h-.158a.748.748 0 0 1-.028-.217c-.012-.44.022-.657-.343-.657h-.31V3H54V1h.533zM54 1.72h.419c.234 0 .453-.071.453-.375 0-.274-.206-.345-.421-.345H54v.72zm2-.22c0 .821-.676 1.5-1.497 1.5A1.505 1.505 0 0 1 53 1.5c0-.826.676-1.5 1.503-1.5C55.324 0 56 .677 56 1.5zm-3-.003C53 2.315 53.67 3 54.505 3 55.34 3 56 2.312 56 1.497 56 .68 55.34 0 54.505 0 53.669 0 53 .68 53 1.497z"/></g></g></svg>