<?xml version="1.0" encoding="UTF-8" standalone="no"?><svg viewBox="0 0 266 31" xmlns="http://www.w3.org/2000/svg"><g fill="none" fill-rule="evenodd"><path d="M60.705 26.09c-.019 1.257.942 2.002 3.163 2.002 1.982 0 3.183-.44 3.183-2.149v-6.031h1.482v6.276c0 1.562-1.482 2.66-4.745 2.66-4.464 0-4.524-1.99-4.564-3.076h1.481v.318z" fill="#1A1918"/><path d="M60.705 26.09c-.019 1.257.942 2.002 3.163 2.002 1.982 0 3.183-.44 3.183-2.149v-6.031h1.482v6.276c0 1.562-1.482 2.66-4.745 2.66-4.464 0-4.524-1.99-4.564-3.076h1.481v.318z" stroke="#000" stroke-width=".125"/><path d="M90.822 25.98h-7.527l-1.942 2.649h-1.602l6.486-8.717h1.722l6.486 8.717h-1.721l-1.902-2.649zm-3.744-5.164l-3.183 4.333h6.326l-3.143-4.333z" fill="#1A1918"/><path d="M90.822 25.98h-7.527l-1.942 2.649h-1.602l6.486-8.717h1.722l6.486 8.717h-1.721l-1.902-2.649zm-3.744-5.164l-3.183 4.333h6.326l-3.143-4.333z" stroke="#000" stroke-width=".125"/><path d="M105.905 19.912h7.708c2.202 0 4.304.672 4.304 2.516 0 1.647-1.782 2.539-4.965 2.539h-5.565v3.662h-1.482v-8.717zm1.482 4.225h5.725c2.483 0 3.203-.697 3.203-1.709 0-1.307-1.201-1.686-2.903-1.686h-6.025v3.395z" fill="#1A1918"/><path d="M105.905 19.912h7.708c2.202 0 4.304.672 4.304 2.516 0 1.647-1.782 2.539-4.965 2.539h-5.565v3.662h-1.482v-8.717zm1.482 4.225h5.725c2.483 0 3.203-.697 3.203-1.709 0-1.307-1.201-1.686-2.903-1.686h-6.025v3.395z" stroke="#000" stroke-width=".125"/><path d="M138.666 25.98h-7.527l-1.943 2.649h-1.601l6.486-8.717h1.722l6.486 8.717h-1.722l-1.901-2.649zm-3.744-5.164l-3.184 4.333h6.327l-3.143-4.333z" fill="#1A1918"/><path d="M138.666 25.98h-7.527l-1.943 2.649h-1.601l6.486-8.717h1.722l6.486 8.717h-1.722l-1.901-2.649zm-3.744-5.164l-3.184 4.333h6.327l-3.143-4.333z" stroke="#000" stroke-width=".125"/><path d="M153.509 19.912h1.782l9.989 7.447h.04v-7.447h1.482v8.717h-1.722l-10.05-7.447h-.04v7.447h-1.481v-8.717z" fill="#1A1918"/><path d="M153.509 19.912h1.782l9.989 7.447h.04v-7.447h1.482v8.717h-1.722l-10.05-7.447h-.04v7.447h-1.481v-8.717z" stroke="#000" stroke-width=".125"/><path d="M190.523 18.754c.34.014.95.074.942.117-.014-.021-.106 1.629-.117 2.438.019.128 1.187.019 1.174.031v.822a2.556 2.556 0 0 0-1.057-.119c.185 1.029.75 1.641 1.07 2.535-.189.069-.312.313-.484.403.025-.194-.6-1.297-.586-1.645-.219 2.058-.164 4.863 0 6.932h-.942c.061-2.133-.128-4.516.12-6.461-.596 1.047-.795 1.855-1.764 3.172.029-.004-.24-.483-.352-.588.768-1.268 1.543-2.532 1.879-4.229-.303-.258-1.195-.105-1.527 0v-.822h1.527c.17-.178.041-1.762.117-2.586" fill="#000"/><path d="M195.576 18.871h.94c-.002.313-.082 1.488-.086 2.229.23.041 2.043-.073 3.023.004v.824h-2.937c-.043.172-.041 1.369-.118 1.996 1.153.041 2.741-.061 3.526 0v.705c-.748.139-2.086-.092-3.172 0 .76 1.551 1.887 2.732 3.406 3.523-.144.282-.269.489-.471.823a7.976 7.976 0 0 1-3.171-3.524c-.225 1.361-.155 3.444 0 4.817h-.94c.147-1.499.125-3.164.117-4.817-.941 1.367-1.73 2.891-3.406 3.524-.119-.155-.189-.291-.353-.469 1.191-1.16 2.636-2.063 3.289-3.76-.461-.168-1.795-.076-2.467 0v-.939c.943.127 1.892.066 2.82.117.272-.395.041-1.291.117-1.881-.316-.27-1.617-.109-1.644-.115-.182.131-.541 1.101-.94 1.525-.033-.041-.554-.332-.587-.351.425-1.219 1.203-2.088 1.293-3.643.37-.059.802.078.822.117-.114.475-.24.936-.354 1.41.084.114.977.043 1.41.118.073-.854-.09-1.477-.117-2.233M251.178 18.754c.34.014.888-.039.941.117-.021.031-.088 1.322-.119 1.998.621.047 1.484-.152 1.764.235-.024.99-.934 2.017-1.528 2.82.407.846 1.225 1.281 1.996 1.762-.142.248-.324.458-.468.705-.727-.33-1.164-.95-1.764-1.41.062 1.74-.133 3.738.119 5.287h-.941v-4.934c-.643.412-1.487 1.131-1.762 1.174a8.944 8.944 0 0 0-.354-.469c1.282-1.344 2.934-2.314 3.643-4.23-.861-.274-2.23-.041-3.289-.118v-.822h1.644c.038-.029.042-1.447.118-2.115" fill="#000"/><path d="M256.231 18.871h1.058c-.252 1.041-.057 2.529-.119 3.76h2.82v.705c-.275.324-1.863.004-2.701.117-.275 1.488-.041 3.486-.119 5.17.863.273 2.232.039 3.289.117v.94c-2.137-.192-5.029-.192-7.166 0v-.94h3.055v-5.287c-.778-.029-2.069.045-2.467 0v-.822h2.35c.255-1.041.107-2.692 0-3.76M215.711 18.99c0 .703.014 1.532.014 2.235.041.084 2.382.006 3.519.084v.728c-.012-.019-3.394 0-3.416.006.035 2.553.447 5.742 2.233 6.932.607-.293.451-1.35.705-1.996 1.373.455.261 2.949-.588 3.054-2.328.287-3.18-5.418-3.289-7.99-2.135-.014-4.83.021-6.578 0v-.822h6.578c.043-.246-.561-2.6.822-2.231" fill="#000"/><path d="M218.205 20.523c-.17.129-.418.243-.512.383-.601-.463-1.056-1.072-1.789-1.406.553-1.322 1.868.314 2.301 1.023M208.897 23.924h5.521v.822h-2.233c-.003.02-.05 2.252-.128 3.27 1.156-.09 2.084-.666 2.832-.567-.098 1.117-1.797 1.246-2.811 1.463-1.178.252-2.564.484-3.533.416.033-.228-.092-.541-.117-.705a23.664 23.664 0 0 1 2.584-.352c.129-.296.107-3.484.117-3.525h-2.232v-.822M226.574 24.822c-.262-.244-.427-.584-.689-.828 2.555-1.26 4.705-2.924 6.342-5.101 1.416.095 2.474 1.988 3.724 2.896 1.305.947 2.301 1.514 3.723 2.068-.129.377-.492.846-.553.965-2.58-1.189-4.873-2.664-6.342-4.965-1.746 1.977-3.697 3.75-6.205 4.965" fill="#000"/><path d="M236.363 23.58c0 .186-.035.502-.035.686-.785.257-5.687.043-7.271.142v-.965c2.388.092 5.146-.183 7.306.137M231.025 25.1h10.692v.82h-5.875c-.582.867-1.18 2.283-1.557 2.904.375.016 3.289-.328 4.731-.453.035-.226-1.456-1.148-1.41-1.627 1.353-.486 2.939 2.137 3.523 3.172-.072.059-.426.246-.469.352-.521-.223-.65-.84-1.058-1.174-2.713.301-5.487.543-8.225.822-.027-.17-.152-.691-.115-.941.709.045 1.297-.032 1.879-.118.726-.8 1.17-1.882 1.644-2.937h-3.76v-.82" fill="#000"/><g fill="#1A1918"><path d="M80 0v9.955C80 15.29 76.67 16 71.838 16c-1.351 0-2.726-.024-4.075-.024-5.198 0-8.763-.188-8.763-6.259V0h4.957v8.289c.1 2.974.27 3.736 3.56 3.808l2.233.024 2.063-.024c2.798 0 3.117-.761 3.19-3.118V0H80M88.883 12.009H100V16H84V0h4.883v12.009M109.924 16H105.1V3.991H98V0h19v3.991h-7.076V16M127 8V4h7.751c.437 0 .919.023 1.332.14.87.255.895.883.917 1.697 0 1.72-.183 2.163-2.362 2.163H127zm-5 8h4.798v-4.101h8.037c2.016 0 2.086.819 2.086 2.578V16h4.89v-3.065c0-2.21-1.211-2.809-3.234-3.072 1.002-.335 2.14-.55 2.758-1.509.594-.96.665-2.189.665-3.295C142 1.197 140.432 0 136.709 0H122v16zM162 9h-7l3.499-6L162 9zm1.18 4.11l1.496 2.89H170l-8.648-16h-6.51L146 16h5.371l1.567-2.89h10.243zM179 12V4h7.827C189.955 4 190 5.224 190 7.906v.141c0 2.753-.204 3.953-3.242 3.953H179zm-5 4h15.588c2.728 0 4.753-1.345 5.222-4.13.19-1.224.19-2.522.19-3.77v-.913C195 1.41 193.424 0 187.823 0H174v16zM200 0h18v3.635h-13.099v2.747h12.228v3.165H204.9V12.4H218V16h-18V0M244 16h-7.752L226.58 3.973V16H222V0h7.757l9.666 12.003V0H244v16M258.924 16H254.1V3.991H247V0h19v3.991h-7.076V16M0 1.954s.007 21.173 0 23.128C-.005 27.038 1.784 29 3.574 29h25.62c1.79 0 3.61-1.962 3.61-3.918V9.285c0-.978.816-1.927 1.712-1.927h6.814c2.24 0 2.24 3.474.041 3.474-1.856 0-3.173-.028-4.27-.028-.893 0-1.74.978-1.74 1.955v3.148c0 1.467.447 1.955 1.74 1.955h14.08c1.342 0 1.819-.488 1.819-1.955v-12C53 1.954 51.181 0 49.388 0c-3.793 0-28.005.011-28.901.011-.896 0-1.744.967-1.744 1.943v13.419c0 2.707-3.197 2.707-3.197 0V1.954c0-.976-.928-1.943-1.823-1.943H1.784C.89.011 0 .978 0 1.954"/><path d="M51.17 29c1.372 0 1.83-.513 1.83-2.028v-4.947C53 20.507 52.542 20 51.17 20H36.78C35.407 20 35 20.507 35 22.025v4.947c0 1.515.456 2.028 1.779 2.028h14.392M54.533 1c.219 0 .45.121.45.536 0 .248-.087.417-.231.504.21.106.206.334.212.636.003.111.003.228.036.324h-.158a.748.748 0 0 1-.028-.217c-.012-.44.022-.657-.343-.657h-.31V3H54V1h.533zM54 1.72h.419c.234 0 .453-.071.453-.375 0-.274-.206-.345-.421-.345H54v.72zm2-.22c0 .821-.676 1.5-1.497 1.5A1.505 1.505 0 0 1 53 1.5c0-.826.676-1.5 1.503-1.5C55.324 0 56 .677 56 1.5zm-3-.003C53 2.315 53.67 3 54.505 3 55.34 3 56 2.312 56 1.497 56 .68 55.34 0 54.505 0 53.669 0 53 .68 53 1.497z"/></g></g></svg>