<?xml version="1.0" encoding="UTF-8"?><svg viewBox="0 0 48 48" xmlns="http://www.w3.org/2000/svg"><g fill="#E35205" fill-rule="evenodd"><path d="M28.474 35.418c-2.123-.007-3.825-.646-5.422-1.613-1.775-1.075-3.287-2.462-4.679-3.989-1.409-1.545-2.694-3.186-3.708-5.024-.75-1.36-1.336-2.785-1.559-4.332-.365-2.53.187-4.797 2.028-6.649.527-.53 1.113-1.007 1.708-1.46.696-.533 1.466-.446 2.121.173.231.218.458.441.64.702.707 1.021 1.443 2.026 1.88 3.206.41 1.104.186 2.003-.693 2.78-.435.383-.874.76-1.348 1.096-.685.485-.879 1.158-.713 1.957.181.866.62 1.612 1.122 2.318.961 1.353 2.04 2.606 3.323 3.668.573.475 1.185.893 1.928 1.065.648.151 1.213-.015 1.674-.488a19.06 19.06 0 0 1 1.342-1.247c.862-.728 1.791-.817 2.793-.294.902.471 1.633 1.164 2.393 1.82a6.76 6.76 0 0 1 1.136 1.216c.561.793.512 1.59-.207 2.241-.73.664-1.42 1.378-2.29 1.875-1.148.657-2.374.987-3.469.98"/><path d="M47.49 24h-.511a22.907 22.907 0 0 1-6.73 16.249A22.905 22.905 0 0 1 24 46.979a22.905 22.905 0 0 1-16.249-6.73A22.907 22.907 0 0 1 1.021 24a22.905 22.905 0 0 1 6.73-16.249A22.905 22.905 0 0 1 24 1.021a22.905 22.905 0 0 1 16.249 6.73A22.905 22.905 0 0 1 46.979 24H48C48 10.745 37.255 0 24 0S0 10.745 0 24c0 13.254 10.745 24 24 24s24-10.746 24-24h-.51z"/></g></svg>