<?xml version="1.0" encoding="UTF-8"?><svg viewBox="0 0 48 48" xmlns="http://www.w3.org/2000/svg"><g fill="#E35205" fill-rule="evenodd"><path d="M47.49 24h-.511a22.907 22.907 0 0 1-6.73 16.249A22.905 22.905 0 0 1 24 46.979a22.905 22.905 0 0 1-16.249-6.73A22.907 22.907 0 0 1 1.021 24a22.905 22.905 0 0 1 6.73-16.249A22.905 22.905 0 0 1 24 1.021a22.905 22.905 0 0 1 16.249 6.73A22.905 22.905 0 0 1 46.979 24H48C48 10.745 37.255 0 24 0S0 10.745 0 24c0 13.254 10.745 24 24 24s24-10.746 24-24h-.51z"/><path d="M27.068 23.786c1.577-.906 2.651-2.587 2.651-4.536a5.25 5.25 0 0 0-10.5 0c0 1.949 1.074 3.63 2.651 4.536-4.277 1.091-7.509 4.797-7.868 9.322-.036.459.345.843.806.843H34.13c.46 0 .842-.384.806-.843-.36-4.525-3.59-8.231-7.868-9.322"/></g></svg>